<svg width="468" height="448" viewBox="0 0 468 448" fill="none" xmlns="http://www.w3.org/2000/svg">
<path d="M417.877 5.08792C451.422 22.8699 448.66 94.2153 450.038 156.729C451.417 219.243 456.957 272.9 441.346 328.088C425.735 383.277 389.027 439.962 342.787 446.585C296.408 453.348 240.369 410.162 177.01 387.124C113.651 364.087 43.0037 361.182 14.9591 326.829C-13.0855 292.475 1.71022 226.666 31.2472 181.574C60.9226 136.457 105.374 112.175 143.47 95.2081C181.428 78.2362 213.174 68.5796 263.832 45.8136C314.629 23.1614 384.337 -12.7089 417.877 5.08792Z" fill="#F0F0F0"/>
<path d="M47.2046 263.302C43.7453 262.314 33.3676 255.893 31.3909 253.423C29.4142 250.954 24.7195 256.945 33.2441 265.051" fill="#F0C09D"/>
<path d="M43.2512 259.351C39.7919 258.363 29.4142 251.942 27.4375 249.472C25.4608 247.002 20.7661 252.994 29.2907 261.099" stroke="black" stroke-width="5" stroke-linecap="round" stroke-linejoin="round"/>
<path d="M86.7389 278.615C84.268 275.651 75.8669 263.302 74.3844 259.351C72.9019 255.399 62.8058 251.448 69.3339 278.615" fill="#F0C09D"/>
<path d="M81.797 273.675C79.3261 270.712 70.9251 258.363 69.4426 254.411C68.1627 251.008 60.498 247.605 62.5686 264.093" stroke="black" stroke-width="5" stroke-linecap="round" stroke-linejoin="round"/>
<path d="M141.78 323.445C138.628 329.985 124.791 355.67 124.791 355.67C124.791 355.67 93.1631 288 89.7039 286.518C86.2447 285.036 33.3676 266.76 23.484 261.327C19.5306 259.351 7.67033 262.808 29.4142 277.133C51.158 291.457 72.4077 303.312 74.8786 308.251C77.3494 313.191 95.1399 389.752 95.1399 389.752H161.419C165.807 389.752 180.633 341.346 180.633 341.346C180.633 341.346 145.432 319.385 141.78 323.445Z" fill="#F0C09D"/>
<path d="M85.449 364.6C88.1966 376.218 90.198 384.813 90.198 384.813H156.477C160.866 384.813 175.691 336.406 175.691 336.406C175.691 336.406 140.491 314.445 136.839 318.506C133.686 325.045 119.849 350.731 119.849 350.731C119.849 350.731 88.2213 283.06 84.7621 281.578C83.6947 281.124 77.9424 279.074 70.2036 276.298" stroke="black" stroke-width="5" stroke-linecap="round" stroke-linejoin="round"/>
<path d="M37.7558 280.739C54.212 291.111 67.9748 299.395 69.9367 303.312C71.2364 305.915 76.8009 328.434 81.7674 349.14" stroke="black" stroke-width="5" stroke-linecap="round" stroke-linejoin="round"/>
<path d="M57.2315 271.62C41.4672 265.896 23.8349 259.297 18.5422 256.387C14.9397 254.589 4.78433 257.296 19.4169 268.612" stroke="black" stroke-width="5" stroke-linecap="round" stroke-linejoin="round"/>
<path d="M231.316 242.557C260.937 257.928 227.782 334.43 209.572 353.793C194.662 357.023 142.067 331.773 135.569 315.008C141.034 298.486 189.103 220.645 231.316 242.557Z" fill="#76C2ED"/>
<path d="M435.248 107.71L464.83 175.523L344.206 196.052L435.248 107.71Z" stroke="#B6C6FC" stroke-width="5" stroke-linecap="round" stroke-linejoin="round"/>
<path d="M98.1272 105.73L39.9633 174.842L100.796 225.99L158.96 156.877L98.1272 105.73Z" stroke="#B6C6FC" stroke-width="5" stroke-linecap="round" stroke-linejoin="round"/>
<path d="M171.431 252.86C188.134 237.627 207.817 227.985 226.374 237.617C255.995 252.989 222.84 329.491 204.63 348.854C189.721 352.084 137.125 326.833 130.627 310.069C132.332 304.907 138.198 293.769 146.747 281.529" stroke="black" stroke-width="5" stroke-linecap="round" stroke-linejoin="round"/>
<path d="M224.516 224.612C236.455 216.615 250.381 211.932 266.62 211.932C327.898 211.932 353.595 292.939 355.078 385.307" stroke="black" stroke-width="5" stroke-linecap="round" stroke-linejoin="round"/>
<path d="M171.915 308.222C179.822 282.66 191.055 258.076 206.953 240.151" stroke="black" stroke-width="5" stroke-linecap="round" stroke-linejoin="round"/>
<path d="M156.472 384.892C157.747 373.793 159.531 361.38 162.012 348.434" stroke="black" stroke-width="5" stroke-linecap="round" stroke-linejoin="round"/>
<path d="M359.901 384.813C357.509 294.727 331.634 216.872 271.561 216.872C195.354 216.872 170.092 320.027 162.012 384.813H359.901Z" fill="#76C2ED"/>
<path d="M394.137 349.135L379.806 315.66L324.952 349.249C326.633 355.295 332.424 373.669 335.958 384.813" stroke="black" stroke-width="5" stroke-linecap="round" stroke-linejoin="round"/>
<path d="M393.871 385.079V341.924L384.728 320.6L329.874 354.188C331.357 359.444 335.903 374.02 339.392 385.06L393.871 385.079Z" fill="#F0C09D"/>
<path d="M320.485 237.123C350.63 222.799 391.647 295.409 396.094 321.588C389.67 335.418 337.781 362.091 320.485 357.152C310.602 342.827 277.526 257.538 320.485 237.123Z" fill="#76C2ED"/>
<path d="M345.54 240.151C367.748 258.704 388.094 298.649 391.153 316.648C384.728 330.479 332.84 357.152 315.543 352.212C314.345 350.396 313.262 348.505 312.301 346.552" stroke="black" stroke-width="5" stroke-linecap="round" stroke-linejoin="round"/>
<path d="M297.565 304.073C291.694 277.622 291.388 247.985 310.977 234.792" stroke="black" stroke-width="5" stroke-linecap="round" stroke-linejoin="round"/>
<path d="M377.009 77.5792H394.118V384.813H86.7388V370.049" stroke="black" stroke-width="5" stroke-linecap="round" stroke-linejoin="round"/>
<path d="M86.7388 101.373V77.5792H310.977" stroke="black" stroke-width="5" stroke-linecap="round" stroke-linejoin="round"/>
<path d="M86.7388 284.117V176.516" stroke="black" stroke-width="5" stroke-linecap="round" stroke-linejoin="round"/>
<path d="M294.541 170.214C292.07 180.092 287.622 201.332 289.105 229.981C280.704 237.39 252.536 238.872 239.687 228.993C242.158 213.681 242.158 198.862 241.664 188.983C241.169 179.105 294.541 170.214 294.541 170.214Z" fill="#F0C09D"/>
<path d="M235.733 225.041C238.204 209.729 238.204 194.911 237.71 185.032C237.216 175.153 290.587 166.262 290.587 166.262C288.116 176.141 283.669 197.38 285.151 226.029C280.175 230.416 268.28 232.722 256.731 231.828" stroke="black" stroke-width="5" stroke-linecap="round" stroke-linejoin="round"/>
<path d="M255.501 201.065C283.749 201.065 306.648 171.874 306.648 135.865C306.648 99.8553 283.749 70.664 255.501 70.664C227.253 70.664 204.353 99.8553 204.353 135.865C204.353 171.874 227.253 201.065 255.501 201.065Z" fill="#F0C09D"/>
<path d="M274.383 189.28C267.587 193.707 259.659 196.084 251.547 196.126C235.862 196.126 221.827 187.126 212.443 172.955" stroke="black" stroke-width="5" stroke-linecap="round" stroke-linejoin="round"/>
<path d="M203.053 151.715C201.28 144.928 200.388 137.94 200.4 130.925C200.4 94.9167 223.295 65.7245 251.547 65.7245C279.799 65.7245 302.695 94.9167 302.695 130.925C302.717 139.44 301.393 147.906 298.771 156.008" stroke="black" stroke-width="5" stroke-linecap="round" stroke-linejoin="round"/>
<path d="M230.545 124.998C230.05 129.937 223.626 143.768 218.684 148.707" stroke="black" stroke-width="5" stroke-linecap="round" stroke-linejoin="round"/>
<path d="M234.004 168.465C236.475 168.465 241.417 167.477 245.37 161.55" stroke="black" stroke-width="5" stroke-linecap="round" stroke-linejoin="round"/>
<path d="M218.416 129.222C218.879 126.465 218.218 124.055 216.939 123.841C215.661 123.626 214.249 125.688 213.786 128.445C213.323 131.203 213.983 133.612 215.262 133.827C216.541 134.041 217.952 131.98 218.416 129.222Z" fill="black"/>
<path d="M247.479 129.067C247.942 126.309 247.281 123.9 246.003 123.685C244.724 123.471 243.312 125.532 242.849 128.29C242.386 131.047 243.047 133.457 244.325 133.671C245.604 133.886 247.016 131.824 247.479 129.067Z" fill="black"/>
<path d="M316.532 109.192C316.532 83.0126 287.869 65.2306 268.596 59.3033C253.015 54.512 228.568 46.9547 215.719 46.9547C199.906 46.9547 187.551 63.2548 187.551 79.555C187.551 97.337 196.941 110.673 208.307 113.637C210.283 107.71 211.272 105.24 211.272 105.24C213.248 107.71 266.125 114.131 283.916 113.637C282.433 120.058 281.445 142.78 291.328 143.274C296.764 143.768 316.532 149.695 316.532 109.192Z" fill="#433D3D"/>
<path d="M280.704 61.773C275.293 58.7118 269.575 56.2284 263.645 54.3638C248.063 49.5726 223.616 42.0152 210.768 42.0152C198.477 42.0152 188.278 51.8546 184.344 63.892" stroke="black" stroke-width="5" stroke-linecap="round" stroke-linejoin="round"/>
<path d="M278.974 108.698C277.492 115.119 276.503 137.84 286.387 138.334C291.823 138.828 311.59 144.756 311.59 104.252C311.59 92.526 305.838 82.489 297.753 74.4427" stroke="black" stroke-width="5" stroke-linecap="round" stroke-linejoin="round"/>
<path d="M183.845 85.5317C186.77 97.7124 194.45 106.376 203.345 108.698C205.322 102.77 206.31 100.301 206.31 100.301C207.723 102.069 235.254 105.867 257.299 107.71" stroke="black" stroke-width="5" stroke-linecap="round" stroke-linejoin="round"/>
<path d="M294.788 158.092C302.157 158.092 308.131 152.121 308.131 144.756C308.131 137.39 302.157 131.419 294.788 131.419C287.419 131.419 281.445 137.39 281.445 144.756C281.445 152.121 287.419 158.092 294.788 158.092Z" fill="#F0C09D"/>
<path d="M277.492 140.804C277.49 137.968 278.394 135.205 280.071 132.917C281.748 130.628 284.111 128.934 286.817 128.08" stroke="black" stroke-width="5" stroke-linecap="round" stroke-linejoin="round"/>
<path d="M286.817 128.08C288.651 127.504 290.588 127.332 292.494 127.574C294.401 127.816 296.234 128.467 297.866 129.482C299.497 130.498 300.89 131.854 301.949 133.457C303.008 135.061 303.708 136.874 304.001 138.773C304.294 140.672 304.173 142.612 303.646 144.46C303.119 146.307 302.199 148.019 300.948 149.479C299.698 150.938 298.147 152.11 296.401 152.915C294.656 153.72 292.757 154.138 290.834 154.141C289.708 154.14 288.585 153.999 287.494 153.721" stroke="black" stroke-width="5" stroke-linecap="round" stroke-linejoin="round"/>
</svg>
