<svg width="21" height="14" viewBox="0 0 21 14" fill="none" xmlns="http://www.w3.org/2000/svg">
<path d="M18.07 1.35004H13V2.76004H18.09L18.07 1.35004ZM17 11.05C16.6154 11.3049 16.1612 11.4342 15.7 11.42C15.3947 11.4519 15.0862 11.4203 14.7937 11.3274C14.5011 11.2345 14.2309 11.0822 14 10.88C13.573 10.3959 13.3507 9.76489 13.38 9.12004H20C20.0477 8.44859 19.9904 7.7738 19.83 7.12004C19.6749 6.49806 19.4034 5.91106 19.03 5.39004C18.6541 4.88464 18.1686 4.47095 17.61 4.18004C16.9884 3.87358 16.3029 3.71933 15.61 3.73004C14.9583 3.72526 14.3123 3.85107 13.71 4.10004C13.1585 4.33253 12.6588 4.67247 12.24 5.10004C11.8224 5.53615 11.499 6.05355 11.29 6.62004C11.0657 7.23159 10.9539 7.87868 10.96 8.53004C10.9497 9.19064 11.0581 9.84773 11.28 10.47C11.4685 11.0336 11.7677 11.5538 12.16 12C12.5659 12.4382 13.0648 12.7799 13.62 13C14.2391 13.2359 14.8976 13.3513 15.56 13.34C16.4894 13.369 17.407 13.1257 18.2 12.64C19.0009 12.0709 19.5775 11.2396 19.83 10.29H17.62C17.5017 10.6042 17.284 10.871 17 11.05ZM13.57 6.93004C13.6478 6.68072 13.777 6.45047 13.9493 6.25412C14.1215 6.05777 14.3329 5.89968 14.57 5.79004C14.884 5.64872 15.2258 5.58035 15.57 5.59004C15.8186 5.5688 16.0689 5.6016 16.3036 5.68618C16.5384 5.77076 16.7521 5.90512 16.93 6.08004C17.2698 6.49597 17.4878 6.99783 17.56 7.53004H13.41C13.4262 7.32682 13.463 7.12578 13.52 6.93004H13.57ZM8.28 6.45004C8.78896 6.2381 9.23121 5.89259 9.56 5.45004C9.86222 4.98004 10.0124 4.42837 9.99 3.87004C10.0096 3.36088 9.91031 2.85415 9.7 2.39004C9.52331 1.98795 9.23968 1.64206 8.88 1.39004C8.49865 1.12801 8.06561 0.9507 7.61 0.870037C7.07082 0.75695 6.52087 0.703297 5.97 0.710037H0V13.29H6.1C6.65669 13.2904 7.21116 13.2199 7.75 13.08C8.26075 12.9479 8.74462 12.728 9.18 12.43C9.60174 12.1378 9.94515 11.7463 10.18 11.29C10.4399 10.7798 10.5672 10.2124 10.55 9.64004C10.5689 8.93077 10.37 8.23275 9.98 7.64004C9.56059 7.04396 8.93852 6.62095 8.23 6.45004H8.28ZM2.77 2.86004H5.36C5.59795 2.85974 5.83548 2.87982 6.07 2.92004C6.28595 2.95204 6.49334 3.02683 6.68 3.14004C6.86035 3.24205 7.00648 3.39514 7.1 3.58004C7.21582 3.80175 7.27102 4.05013 7.26 4.30004C7.27863 4.51527 7.24572 4.73185 7.16399 4.93184C7.08225 5.13183 6.95405 5.30946 6.79 5.45004C6.43212 5.69607 6.00388 5.81892 5.57 5.80004H2.77V2.86004ZM7.61 10.3C7.50726 10.5038 7.35189 10.6765 7.16 10.8C6.9603 10.9242 6.74027 11.0123 6.51 11.06C6.25406 11.1173 5.99224 11.1442 5.73 11.14H2.73V7.69004H5.73C6.24482 7.66749 6.75322 7.81125 7.18 8.10004C7.37281 8.27307 7.52217 8.48907 7.61599 8.73055C7.7098 8.97204 7.74543 9.23222 7.72 9.49004C7.74704 9.76492 7.70936 10.0423 7.61 10.3Z" fill="black" fill-opacity="0.8"/>
</svg>
