<svg width="190" height="48" viewBox="0 0 190 48" fill="none" xmlns="http://www.w3.org/2000/svg">
<path d="M135.737 2.55873C135.737 1.16474 136.593 0.265991 137.99 0.265991C142.016 0.265991 146.267 0.265991 150.294 0.265991C151.776 0.265991 152.861 1.31606 152.861 2.81093C152.861 7.58899 152.957 12.5849 152.959 17.3629C152.959 22.3519 152.868 27.1231 152.864 32.1121C152.864 33.6184 151.815 34.6914 150.317 34.7006C146.264 34.7212 142.07 34.7327 138.029 34.7166C136.663 34.7166 135.753 33.7033 135.753 32.2726L135.664 17.3698L135.737 2.55873ZM140.634 4.5259L140.65 30.3925H147.773V4.5259H140.634Z" fill="#5A7493"/>
<path d="M58.6477 17.3606C58.6477 12.0048 58.6318 0.265991 58.6318 0.265991H72.6406V4.71849H63.8202V15.0358H71.3845V19.3209H63.8202V30.2642H72.7999V34.7075H58.6318C58.6318 34.7075 58.6477 22.7692 58.6477 17.3606Z" fill="#5A7493"/>
<path d="M110.769 34.7073C108.962 34.7073 107.986 33.7283 107.972 31.9033C107.952 29.3813 107.952 23.5142 107.952 23.5142H113.02V30.5781H119.328V23.6632C119.328 23.6632 110.68 15.7831 108.498 13.2221C108.216 12.8792 108.034 12.4641 107.972 12.023C107.972 11.9061 107.959 5.83262 107.972 3.11802C107.972 1.387 108.96 0.414884 110.655 0.385079C112.351 0.355273 113.975 0.238344 115.634 0.242929C117.796 0.242929 119.958 0.323175 122.118 0.396542C123.29 0.435519 124.345 1.54291 124.38 3.01714C124.38 5.86243 124.38 11.0692 124.38 11.0692H119.316V4.55327H113.013V11.044C113.013 11.044 119.778 17.4637 122.705 20.2998C123.508 21.0793 124.097 21.3499 124.195 22.5925C124.236 22.8791 124.289 28.9342 124.286 31.6718C124.286 33.7352 123.319 34.7028 121.289 34.7028C119.58 34.7096 112.562 34.7165 110.769 34.7073Z" fill="#5A7493"/>
<path d="M92.7072 34.7165H87.6712V4.69998H81.989V0.252075H98.3849V4.69998H92.7072V34.7165Z" fill="#5A7493"/>
<path d="M6.33766 16.377C6.38318 12.8691 5.52981 9.49875 2.7945 6.8965C2.46681 6.58469 2.1687 6.23848 1.87059 5.89686C1.01267 4.91787 0.978538 3.8036 1.90017 2.87962C2.73517 2.02648 3.73255 1.35198 4.83252 0.896549C5.93249 0.441121 7.1124 0.214143 8.30154 0.22922C10.3155 0.22922 12.7663 0.458494 14.3616 1.83414C16.9171 4.0237 17.1128 7.79525 16.5507 10.8813C15.868 14.6849 13.9315 18.3693 11.7719 21.5242C11.3532 22.1203 10.9231 22.7164 10.4679 23.3102C9.78392 24.2584 8.86186 25.0062 7.79635 25.4768C7.29571 25.7061 6.70177 25.7886 6.2034 25.5479C4.48074 24.7065 5.68683 21.8451 5.92122 20.4764C6.16465 19.1228 6.30388 17.7522 6.33766 16.377Z" fill="#5A7493"/>
<path d="M6.48329 31.681C6.48816 32.5604 6.14748 33.406 5.53565 34.0331C4.92381 34.6603 4.09053 35.0181 3.21775 35.0284C1.38586 35.0123 0 33.5175 0 31.5549C0 29.8376 1.51557 28.3772 3.26782 28.4047C3.69351 28.4034 4.11518 28.4876 4.50825 28.6522C4.90132 28.8169 5.25791 29.0588 5.55722 29.3637C5.85653 29.6687 6.09257 30.0307 6.25156 30.4285C6.41056 30.8264 6.48934 31.2521 6.48329 31.681Z" fill="#5A7493"/>
<path d="M47.3196 21.2353C47.3196 19.4837 46.8394 19.0916 45.8541 18.4175C45.0963 17.8971 44.466 17.395 43.5352 16.7713C44.3317 16.2394 44.9985 15.8978 45.4627 15.5722C46.9919 14.4992 47.1489 14.0522 47.1444 12.3487C47.1444 9.15946 47.1444 5.97256 47.1444 2.78336C47.1444 1.40772 46.2774 0.261353 44.9006 0.261353H30.7211V34.7051C30.7211 34.7051 40.3789 34.7258 44.7049 34.7051C46.2842 34.7051 47.3082 33.6596 47.3105 32.057C47.312 28.4528 47.3151 24.8456 47.3196 21.2353ZM42.2176 4.61984L42.2449 12.9929L39.9693 14.6758H35.8982V4.61984H42.2176ZM42.3269 30.3994H35.8982V18.9357H40.0194L42.3269 20.5979V30.3994Z" fill="#5A7493"/>
<path d="M164.267 0.252075H169.16V30.264H177.529V34.7142C177.529 34.7142 168.222 34.6981 164.267 34.7142" fill="#5A7493"/>
<path d="M35.5 43.931C35.5084 44.514 35.392 45.0919 35.1586 45.6254C34.9601 46.0859 34.6297 46.4763 34.2097 46.7465C33.7803 47.0032 33.2901 47.1386 32.7908 47.1386C32.2915 47.1386 31.8014 47.0032 31.372 46.7465C30.9507 46.4775 30.6169 46.0902 30.4116 45.6322C30.1769 45.108 30.0596 44.5382 30.068 43.9631V43.5917C30.0569 43.0065 30.1726 42.426 30.4071 41.8905C30.6085 41.4279 30.941 41.0355 31.3629 40.7625C31.7877 40.4981 32.2791 40.3628 32.7783 40.3727C33.2776 40.3632 33.7692 40.4967 34.196 40.7579C34.6162 41.0262 34.948 41.414 35.1495 41.8722C35.3881 42.4026 35.5078 42.9795 35.5 43.5619V43.931ZM34.3622 43.5871C34.3622 42.858 34.2249 42.2986 33.9503 41.9088C33.8151 41.7284 33.6403 41.582 33.4395 41.4812C33.2387 41.3805 33.0174 41.328 32.7931 41.328C32.5688 41.328 32.3475 41.3805 32.1467 41.4812C31.9459 41.582 31.7711 41.7284 31.6359 41.9088C31.3583 42.2955 31.2165 42.8435 31.2104 43.5527V43.9333C31.2104 44.6578 31.3515 45.2173 31.6291 45.6116C31.7589 45.8003 31.9335 45.9533 32.137 46.0566C32.3405 46.16 32.5665 46.2103 32.7942 46.2031C33.0204 46.2138 33.2456 46.1664 33.4486 46.0653C33.6516 45.9643 33.8258 45.8129 33.9548 45.6254C34.2249 45.2402 34.3606 44.6762 34.3622 43.9333V43.5871Z" fill="#5A7493"/>
<path d="M44.7482 47.0515H43.6104L40.6975 42.3789V47.0515H39.5597V40.4668H40.6975L43.6217 45.1669V40.4668H44.7482V47.0515Z" fill="#5A7493"/>
<path d="M52.854 44.1122H50.1688V46.139H53.3069V47.0561H49.0332V40.4668H53.275V41.3839H50.1688V43.202H52.854V44.1122Z" fill="#5A7493"/>
<path d="M66.8582 41.3884H64.8101V47.0515H63.6837V41.3884H61.6698V40.4713H66.8582V41.3884Z" fill="#5A7493"/>
<path d="M74.4771 44.1122H71.7918V46.139H74.9299V47.0561H70.6563V40.4668H74.8981V41.3839H71.7918V43.202H74.4771V44.1122Z" fill="#5A7493"/>
<path d="M82.4555 45.5177H79.9227L79.3947 47.0515H78.2137L80.6827 40.4668H81.6954L84.169 47.0515H82.9834L82.4555 45.5177ZM80.2436 44.6006H82.1369L81.1902 41.87L80.2436 44.6006Z" fill="#5A7493"/>
<path d="M89.3302 40.4668L91.2144 45.5108L93.0964 40.4668H94.5641V47.0515H93.4263V44.8803L93.5378 41.9777L91.6081 47.0515H90.798L88.8728 41.9823L88.9843 44.8803V47.0515H87.8465V40.4668H89.3302Z" fill="#5A7493"/>
<path d="M109.297 43.9311C109.309 44.5149 109.195 45.0944 108.964 45.63C108.764 46.0894 108.434 46.4793 108.015 46.7511C107.586 47.0078 107.096 47.1433 106.597 47.1433C106.097 47.1433 105.607 47.0078 105.178 46.7511C104.756 46.4822 104.423 46.0948 104.217 45.6369C103.982 45.113 103.864 44.5429 103.874 43.9678V43.5963C103.862 43.0111 103.977 42.4303 104.213 41.8951C104.414 41.4325 104.747 41.0401 105.169 40.7671C105.593 40.5028 106.085 40.3674 106.584 40.3773C107.083 40.3681 107.575 40.5016 108.002 40.7625C108.421 41.0315 108.753 41.419 108.955 41.8768C109.188 42.408 109.305 42.9836 109.297 43.5642V43.9311ZM108.159 43.5872C108.159 42.8581 108.02 42.2986 107.747 41.9089C107.612 41.7284 107.436 41.5821 107.235 41.4813C107.035 41.3805 106.813 41.328 106.589 41.328C106.364 41.328 106.143 41.3805 105.942 41.4813C105.741 41.5821 105.566 41.7284 105.43 41.9089C105.125 42.4001 104.977 42.974 105.007 43.5528V43.9334C105.007 44.6579 105.147 45.2173 105.426 45.6117C105.556 45.8004 105.73 45.9534 105.934 46.0567C106.137 46.16 106.363 46.2104 106.591 46.2032C106.817 46.2139 107.042 46.1665 107.245 46.0654C107.448 45.9643 107.622 45.8129 107.751 45.6254C108.021 45.2402 108.157 44.6762 108.159 43.9334V43.5872Z" fill="#5A7493"/>
<path d="M118.561 47.0515H117.423L114.51 42.3789V47.0515H113.372V40.4668H114.51L117.423 45.1669V40.4668H118.561V47.0515Z" fill="#5A7493"/>
<path d="M126.657 44.1122H123.974V46.139H127.113V47.0561H122.839V40.4668H127.081V41.3839H123.974V43.202H126.657V44.1122Z" fill="#5A7493"/>
<path d="M136.211 47.0516V40.4668H138.131C138.669 40.4567 139.199 40.5913 139.667 40.8566C140.114 41.1136 140.475 41.4971 140.707 41.9594C140.96 42.4669 141.087 43.0287 141.076 43.5964V43.9266C141.088 44.4977 140.961 45.0631 140.705 45.5728C140.469 46.036 140.102 46.4177 139.649 46.6687C139.168 46.9297 138.628 47.0616 138.081 47.0516H136.211ZM137.348 41.3885V46.1391H138.088C138.343 46.1541 138.598 46.1113 138.834 46.0137C139.071 45.916 139.282 45.7661 139.453 45.5751C139.772 45.199 139.934 44.6603 139.94 43.9587V43.5918C139.94 42.8765 139.789 42.3308 139.485 41.9548C139.32 41.763 139.112 41.6121 138.879 41.5139C138.647 41.4157 138.394 41.3728 138.143 41.3885H137.348Z" fill="#5A7493"/>
<path d="M147.559 44.5204H146.294V47.0424H145.156V40.4668H147.461C148.22 40.4668 148.802 40.6372 149.207 40.9781C149.415 41.1608 149.579 41.3894 149.686 41.6463C149.792 41.9032 149.839 42.1813 149.821 42.4592C149.837 42.8509 149.728 43.2374 149.509 43.562C149.286 43.8702 148.981 44.1087 148.629 44.2498L150.097 47.0011V47.0584H148.879L147.559 44.5204ZM146.294 43.6033H147.461C147.786 43.6235 148.106 43.5195 148.358 43.3121C148.467 43.2111 148.552 43.0873 148.608 42.9494C148.664 42.8115 148.689 42.6629 148.681 42.5142C148.69 42.3644 148.669 42.2143 148.617 42.0734C148.566 41.9326 148.486 41.8039 148.383 41.6957C148.135 41.4847 147.815 41.3772 147.491 41.3954H146.294V43.6033Z" fill="#5A7493"/>
<path d="M157.656 44.1122H154.971V46.139H158.107V47.0561H153.833V40.4668H158.075V41.3839H154.971V43.202H157.656V44.1122Z" fill="#5A7493"/>
<path d="M165.635 45.5177H163.104L162.574 47.0515H161.393L163.862 40.4668H164.881L167.355 47.0515H166.169L165.635 45.5177ZM163.423 44.6006H165.316L164.369 41.8654L163.423 44.6006Z" fill="#5A7493"/>
<path d="M172.509 40.4668L174.396 45.5108L176.275 40.4668H177.743V47.0515H176.605V44.8803L176.719 41.9777L174.787 47.0515H173.975L172.05 41.9823L172.161 44.8803V47.0515H171.023V40.4668H172.509Z" fill="#5A7493"/>
<path d="M183.416 0.33474C183.863 0.337457 184.299 0.473423 184.669 0.725486C185.04 0.97755 185.327 1.33442 185.496 1.75108C185.666 2.16774 185.708 2.62553 185.62 3.0667C185.531 3.50787 185.314 3.91266 184.997 4.23C184.681 4.54735 184.277 4.76304 183.839 4.84986C183.401 4.93669 182.947 4.89076 182.534 4.71787C182.121 4.54499 181.769 4.25288 181.521 3.87841C181.273 3.50394 181.141 3.06387 181.141 2.61372C181.144 2.00803 181.386 1.4284 181.812 1.0014C182.238 0.574395 182.815 0.334729 183.416 0.33474V0.33474ZM183.416 0C182.729 0.0024202 182.071 0.278643 181.585 0.768353C181.1 1.25806 180.826 1.92147 180.824 2.61372V2.61372C180.844 3.29322 181.126 3.93814 181.611 4.41166C182.095 4.88518 182.743 5.15004 183.418 5.15004C184.092 5.15004 184.74 4.88518 185.225 4.41166C185.709 3.93814 185.991 3.29322 186.011 2.61372V2.61372C186.009 1.92108 185.735 1.25732 185.249 0.767546C184.763 0.277772 184.104 0.00181559 183.416 0V0Z" fill="#5A7493"/>
<path d="M186.401 8.50682H184.435V11.8918H183.326V3.52411H186.096C187.039 3.52411 187.763 3.73867 188.268 4.16778C188.778 4.5969 189.033 5.22141 189.033 6.04133C189.033 6.5624 188.891 7.01641 188.608 7.40338C188.328 7.79035 187.937 8.07962 187.435 8.27119L189.401 11.8229V11.8918H188.217L186.401 8.50682ZM184.435 7.60453H186.131C186.678 7.60453 187.113 7.46277 187.435 7.17925C187.761 6.89573 187.924 6.51642 187.924 6.04133C187.924 5.52409 187.768 5.12754 187.458 4.85168C187.152 4.57582 186.707 4.43598 186.125 4.43215H184.435V7.60453Z" fill="#5A7493"/>
</svg>
