<svg width="44" height="44" viewBox="0 0 44 44" fill="none" xmlns="http://www.w3.org/2000/svg">
<path d="M34.8333 3.66675H16.5C15.0413 3.66675 13.6424 4.24621 12.6109 5.27766C11.5795 6.30911 11 7.70806 11 9.16675V11.0001H9.16667C7.70798 11.0001 6.30903 11.5795 5.27758 12.611C4.24613 13.6424 3.66667 15.0414 3.66667 16.5001V34.8334C3.66667 36.2921 4.24613 37.6911 5.27758 38.7225C6.30903 39.754 7.70798 40.3334 9.16667 40.3334H27.5C28.9587 40.3334 30.3576 39.754 31.3891 38.7225C32.4205 37.6911 33 36.2921 33 34.8334V33.0001H34.8333C36.292 33.0001 37.691 32.4206 38.7224 31.3892C39.7539 30.3577 40.3333 28.9588 40.3333 27.5001V9.16675C40.3333 7.70806 39.7539 6.30911 38.7224 5.27766C37.691 4.24621 36.292 3.66675 34.8333 3.66675ZM29.3333 34.8334C29.3333 35.3196 29.1402 35.786 28.7964 36.1298C28.4525 36.4736 27.9862 36.6667 27.5 36.6667H9.16667C8.68044 36.6667 8.21412 36.4736 7.8703 36.1298C7.52649 35.786 7.33333 35.3196 7.33333 34.8334V22.0001H29.3333V34.8334ZM29.3333 18.3334H7.33333V16.5001C7.33333 16.0139 7.52649 15.5475 7.8703 15.2037C8.21412 14.8599 8.68044 14.6667 9.16667 14.6667H27.5C27.9862 14.6667 28.4525 14.8599 28.7964 15.2037C29.1402 15.5475 29.3333 16.0139 29.3333 16.5001V18.3334ZM36.6667 27.5001C36.6667 27.9863 36.4735 28.4526 36.1297 28.7964C35.7859 29.1403 35.3196 29.3334 34.8333 29.3334H33V16.5001C32.995 15.8747 32.8834 15.2547 32.67 14.6667H36.6667V27.5001ZM36.6667 11.0001H14.6667V9.16675C14.6667 8.68052 14.8598 8.2142 15.2036 7.87039C15.5475 7.52657 16.0138 7.33341 16.5 7.33341H34.8333C35.3196 7.33341 35.7859 7.52657 36.1297 7.87039C36.4735 8.2142 36.6667 8.68052 36.6667 9.16675V11.0001Z" fill="black"/>
</svg>
