<svg width="154" height="38" viewBox="0 0 154 38" fill="none" xmlns="http://www.w3.org/2000/svg">
<path d="M12.8001 34.4339C11.3055 34.4339 9.87125 34.1928 8.49723 33.7107C7.14732 33.2045 5.95409 32.4572 4.91755 31.4689C3.90511 30.4565 3.09757 29.203 2.49493 27.7084C1.89229 26.1898 1.59097 24.4301 1.59097 22.4293C1.59097 20.4526 1.90434 18.705 2.53109 17.1863C3.15784 15.6436 3.98948 14.3539 5.02602 13.3174C6.08667 12.2567 7.29195 11.4492 8.64186 10.8948C10.0159 10.3403 11.4502 10.0631 12.9447 10.0631C14.5116 10.0631 15.9097 10.3765 17.1391 11.0032C18.3685 11.6059 19.405 12.3291 20.2487 13.1727L16.9945 17.1502C16.4159 16.644 15.8133 16.2342 15.1865 15.9208C14.5839 15.5833 13.8848 15.4146 13.0894 15.4146C12.3903 15.4146 11.7274 15.5713 11.1006 15.8846C10.498 16.198 9.95562 16.644 9.47351 17.2225C9.0155 17.801 8.64186 18.5121 8.3526 19.3558C8.08743 20.1995 7.95485 21.1517 7.95485 22.2124C7.95485 24.4301 8.41286 26.1295 9.32887 27.3107C10.269 28.4919 11.4984 29.0825 13.017 29.0825C13.933 29.0825 14.7406 28.8896 15.4396 28.5039C16.1628 28.0941 16.7775 27.612 17.2837 27.0576L20.538 30.9627C19.5255 32.1198 18.3564 32.9876 17.0306 33.5661C15.7289 34.1446 14.3187 34.4339 12.8001 34.4339ZM28.4267 34.4339C27.4384 34.4339 26.5827 34.2652 25.8595 33.9277C25.1604 33.5661 24.5819 33.0719 24.1239 32.4452C23.6659 31.7943 23.3284 31.023 23.1114 30.131C22.8945 29.215 22.786 28.1905 22.786 27.0576V15.9208H29.0053V26.2621C29.0053 27.4192 29.1499 28.1905 29.4392 28.5762C29.7284 28.9619 30.1864 29.1548 30.8132 29.1548C31.3917 29.1548 31.8618 29.0342 32.2234 28.7932C32.6091 28.5521 33.0068 28.1423 33.4166 27.5638V15.9208H39.6358V34H34.5737L34.1398 31.6135H33.9951C33.272 32.4813 32.4644 33.1684 31.5725 33.6746C30.7047 34.1808 29.6561 34.4339 28.4267 34.4339ZM49.4031 34.4339C48.3425 34.4339 47.4506 34.2772 46.7274 33.9638C46.0284 33.6264 45.4619 33.1563 45.028 32.5537C44.5941 31.951 44.2807 31.2399 44.0879 30.4203C43.9191 29.5766 43.8347 28.6486 43.8347 27.6361V8.83374H50.054V27.8531C50.054 28.4798 50.1625 28.9017 50.3794 29.1186C50.6205 29.3356 50.8495 29.444 51.0664 29.444C51.187 29.444 51.2834 29.444 51.3557 29.444C51.4521 29.444 51.5726 29.4199 51.7173 29.3717L52.4405 33.9277C52.103 34.0723 51.6811 34.1928 51.1749 34.2893C50.6928 34.3857 50.1022 34.4339 49.4031 34.4339ZM62.0532 34.4339C60.872 34.4339 59.8596 34.2652 59.0159 33.9277C58.1963 33.5661 57.5093 33.0599 56.9549 32.409C56.4246 31.7582 56.0268 30.9868 55.7617 30.0949C55.5206 29.1789 55.4001 28.1664 55.4001 27.0576V20.766H53.0136V16.1377L55.7617 15.9208L56.4848 11.2202H61.6193V15.9208H65.7414V20.766H61.6193V26.9491C61.6193 27.9615 61.8363 28.6606 62.2702 29.0463C62.7041 29.4079 63.2103 29.5887 63.7888 29.5887C64.0781 29.5887 64.3553 29.5646 64.6205 29.5164C64.9097 29.444 65.1628 29.3717 65.3798 29.2994L66.3199 33.783C65.8378 33.9277 65.2593 34.0723 64.5843 34.217C63.9094 34.3616 63.0657 34.4339 62.0532 34.4339ZM74.5782 34.4339C73.5898 34.4339 72.7341 34.2652 72.0109 33.9277C71.3119 33.5661 70.7333 33.0719 70.2753 32.4452C69.8173 31.7943 69.4798 31.023 69.2629 30.131C69.0459 29.215 68.9374 28.1905 68.9374 27.0576V15.9208H75.1567V26.2621C75.1567 27.4192 75.3013 28.1905 75.5906 28.5762C75.8799 28.9619 76.3379 29.1548 76.9646 29.1548C77.5432 29.1548 78.0132 29.0342 78.3748 28.7932C78.7605 28.5521 79.1582 28.1423 79.568 27.5638V15.9208H85.7873V34H80.7251L80.2912 31.6135H80.1466C79.4234 32.4813 78.6159 33.1684 77.7239 33.6746C76.8561 34.1808 75.8075 34.4339 74.5782 34.4339ZM89.9862 34V15.9208H95.0484L95.4823 19.0304H95.6269C96.3018 17.801 97.0973 16.9091 98.0133 16.3547C98.9535 15.7762 99.8695 15.4869 100.761 15.4869C101.316 15.4869 101.762 15.523 102.099 15.5954C102.437 15.6436 102.738 15.7279 103.003 15.8485L101.991 21.1999C101.653 21.1276 101.328 21.0673 101.014 21.0191C100.725 20.9468 100.376 20.9106 99.9659 20.9106C99.315 20.9106 98.628 21.1397 97.9049 21.5977C97.2058 22.0316 96.6393 22.815 96.2054 23.948V34H89.9862ZM113.135 34.4339C111.809 34.4339 110.58 34.229 109.447 33.8192C108.314 33.3853 107.325 32.7706 106.482 31.9751C105.662 31.1555 105.011 30.1552 104.529 28.974C104.047 27.7928 103.806 26.4549 103.806 24.9604C103.806 23.49 104.047 22.1762 104.529 21.0191C105.035 19.8379 105.686 18.8376 106.482 18.018C107.301 17.1984 108.229 16.5716 109.266 16.1377C110.302 15.7038 111.375 15.4869 112.484 15.4869C113.81 15.4869 114.967 15.7159 115.955 16.1739C116.944 16.6319 117.763 17.2586 118.414 18.0541C119.065 18.8496 119.547 19.7777 119.86 20.8383C120.198 21.899 120.367 23.0319 120.367 24.2372C120.367 24.7917 120.33 25.3099 120.258 25.792C120.21 26.2741 120.162 26.6237 120.113 26.8406H109.808C110.098 27.9254 110.616 28.6847 111.363 29.1186C112.11 29.5284 112.99 29.7333 114.003 29.7333C114.629 29.7333 115.232 29.6489 115.811 29.4802C116.413 29.2874 117.04 29.0101 117.691 28.6486L119.716 32.3367C118.727 33.0358 117.631 33.5661 116.425 33.9277C115.244 34.2652 114.147 34.4339 113.135 34.4339ZM109.736 22.7909H115.087C115.087 22.0918 114.907 21.4892 114.545 20.983C114.208 20.4526 113.569 20.1875 112.629 20.1875C111.93 20.1875 111.315 20.3924 110.785 20.8022C110.278 21.212 109.929 21.8749 109.736 22.7909ZM129.203 30.7457V24.2372H122.911V19.8982H129.203V13.3897H133.686V19.8982H139.978V24.2372H133.686V30.7457H129.203Z" fill="#1F1F1F"/>
<path d="M145.815 5.75168V6.74291H144.089V12H142.841V6.74291H141.124V5.75168H145.815ZM153.139 5.82248V12H151.9V7.6899L150.316 12H149.236L147.652 7.7076V12H146.404V5.82248H147.918L149.794 10.4689L151.635 5.82248H153.139Z" fill="#1F1F1F"/>
</svg>
