<?xml version="1.0" encoding="utf-8"?>
<!-- Generator: Adobe Illustrator 22.1.0, SVG Export Plug-In . SVG Version: 6.00 Build 0)  -->
<svg version="1.1" id="Layer_1" xmlns="http://www.w3.org/2000/svg" xmlns:xlink="http://www.w3.org/1999/xlink" x="0px" y="0px"
	 width="90px" height="39px" viewBox="0 0 90 39" style="enable-background:new 0 0 90 39;" xml:space="preserve">
<style type="text/css">
	.st0{fill-rule:evenodd;clip-rule:evenodd;fill:#EC1944;}
	.st1{fill:#EC1944;}
</style>
<g>
	<g>
		<path class="st0" d="M0.859,22.703"/>
	</g>
</g>
<g>
	<g>
		<g>
			<path class="st0" d="M48.729,15.835c0-0.981,1.378-1.693,3.491-1.693c2.41,0,4.674,0.855,6.083,2.057
				c0.262,0.223,0.662,0.153,0.833-0.146l1.72-3.42c0.133-0.231,0.071-0.523-0.141-0.683c-2.125-1.597-4.985-2.744-8.541-2.744
				c-5.833,0-9.093,3.261-9.093,6.981c0,8.686,13.181,5.68,13.181,9.499c0,1.045-1.194,1.93-3.72,1.93c-2.51,0-5.476-0.99-7.2-2.359
				c-0.257-0.204-0.636-0.135-0.809,0.145l-1.953,3.267c-0.137,0.221-0.092,0.51,0.108,0.678c2.353,1.977,5.903,3.144,9.579,3.144
				c6.154,0,9.599-3.031,9.599-7.118C61.863,16.62,48.729,19.324,48.729,15.835z"/>
			<path class="st0" d="M22.154,1.027h-5.131c-0.206,0-0.374,0.167-0.374,0.374v10.83c-1.719-1.878-4.025-3.022-6.62-3.022
				C4.49,9.209,0,14.421,0,20.85c0,6.429,4.49,11.641,10.028,11.641c2.595,0,4.902-1.144,6.62-3.022v2.097
				c0,0.206,0.167,0.374,0.374,0.374h5.131c0.206,0,0.374-0.167,0.374-0.374V1.4C22.527,1.194,22.36,1.027,22.154,1.027z
				 M11.26,27.602c-2.977,0-5.389-3.024-5.389-6.755c0-3.731,2.413-6.755,5.389-6.755c2.963,0,5.367,2.998,5.388,6.705v0.099
				C16.628,24.605,14.224,27.602,11.26,27.602z"/>
			<path class="st0" d="M77.013,9.207c-2.711,0-4.796,1.139-6.165,2.998V1.4c0-0.206-0.167-0.374-0.374-0.374h-5.131
				c-0.206,0-0.374,0.167-0.374,0.374v30.166c0,0.206,0.167,0.374,0.374,0.374h5.131c0.206,0,0.374-0.167,0.374-0.374V18.666
				c0.004-2.92,2.09-4.548,4.609-4.548c2.522,0,4.502,1.55,4.502,5.356l0.005,12.092c0,0.206,0.167,0.374,0.374,0.374h5.131
				c0.206,0,0.374-0.167,0.374-0.374V19.116C85.844,12.271,81.915,9.207,77.013,9.207z"/>
			<path class="st1" d="M29.194,3.474c0-1.92,1.6-3.474,3.474-3.474c1.92,0,3.474,1.554,3.474,3.474c0,1.92-1.554,3.474-3.474,3.474
				C30.794,6.948,29.194,5.394,29.194,3.474z M39.318,26.295c-2.348,1.364-4.866,1.724-6.6,1.727
				c-1.734-0.003-4.253-0.362-6.6-1.727c-0.385-0.215-0.59,0.161-0.51,0.489c0.797,3.275,3.666,5.704,7.089,5.724h0.042
				c3.423-0.02,6.292-2.448,7.089-5.724C39.908,26.455,39.703,26.079,39.318,26.295z M37.929,18.024
				c-1.854,1.077-3.842,1.361-5.211,1.363c-1.369-0.002-3.358-0.286-5.211-1.363c-0.304-0.17-0.466,0.127-0.403,0.386
				c0.629,2.586,2.894,4.504,5.597,4.519h0.033c2.703-0.016,4.968-1.933,5.597-4.519C38.395,18.151,38.233,17.854,37.929,18.024z
				 M36.45,10.975c-1.327,0.771-2.752,0.975-3.732,0.976c-0.98-0.002-2.405-0.205-3.732-0.976c-0.218-0.122-0.333,0.091-0.288,0.276
				c0.451,1.852,2.073,3.225,4.008,3.236h0.024c1.936-0.011,3.558-1.384,4.008-3.236C36.783,11.066,36.667,10.854,36.45,10.975z"/>
		</g>
	</g>
	<g>
		<path class="st1" d="M88.323,30.595v0.217h-0.419v1.094h-0.26v-1.094h-0.419v-0.217H88.323z M89.74,31.906l-0.048-0.771
			c-0.005-0.101-0.005-0.227-0.01-0.366h-0.014c-0.034,0.116-0.072,0.27-0.111,0.39l-0.236,0.728h-0.27l-0.236-0.747
			c-0.024-0.101-0.063-0.255-0.092-0.371h-0.014c0,0.121-0.005,0.246-0.01,0.366l-0.048,0.771H88.4l0.096-1.311h0.39l0.227,0.641
			c0.029,0.101,0.053,0.198,0.087,0.333h0.005c0.034-0.121,0.063-0.231,0.092-0.328l0.227-0.646h0.376L90,31.906H89.74z"/>
	</g>
</g>
</svg>
