<svg width="580" height="582" viewBox="0 0 580 582" fill="none" xmlns="http://www.w3.org/2000/svg">
<path fill-rule="evenodd" clip-rule="evenodd" d="M447.712 411.759C447.712 376.296 477.325 347.537 513.856 347.537C550.386 347.537 580 376.29 580 411.759C580 447.228 550.386 475.986 513.856 475.986C477.325 475.986 447.712 447.227 447.712 411.759Z" fill="#F3F6FF"/>
<path fill-rule="evenodd" clip-rule="evenodd" d="M83.5592 274.661C83.5592 185.734 157.807 113.644 249.396 113.644C340.986 113.644 415.234 185.732 415.234 274.661C415.234 363.59 340.986 435.679 249.396 435.679C157.807 435.679 83.5592 363.588 83.5592 274.661Z" fill="#EAF0FF"/>
<path fill-rule="evenodd" clip-rule="evenodd" d="M94.5627 331.066C99.2294 326.882 115.603 312.291 118.992 310.803C122.38 309.316 161.681 351.884 157.8 354.93C153.918 357.976 133.374 376.346 125.649 381.017C110.216 364.708 99.4859 345.979 94.5627 331.066Z" fill="#F0C09D"/>
<path d="M92.9918 327.363C97.6584 323.18 113.453 309.035 116.846 307.548C120.24 306.06 159.823 351.779 155.941 354.823C152.06 357.868 131.457 377.393 125.369 381.137" stroke="black" stroke-width="3" stroke-linecap="round" stroke-linejoin="round"/>
<path fill-rule="evenodd" clip-rule="evenodd" d="M196.371 282.983C218.891 316.238 163.584 357.971 155.119 360.369C146.653 362.766 110.202 314.28 112.841 307.894C115.481 301.509 169.176 242.825 196.371 282.983Z" fill="#76C2ED"/>
<path d="M138.653 276.69C156.534 264.647 178.787 257.698 193.395 279.268C215.915 312.523 160.608 354.256 152.142 356.654C143.677 359.051 107.226 310.559 109.866 304.179C110.378 302.944 112.804 299.746 116.581 295.686" stroke="black" stroke-width="3" stroke-linecap="round" stroke-linejoin="round"/>
<path fill-rule="evenodd" clip-rule="evenodd" d="M241.619 254.778C216.254 254.63 191.296 259.369 178.994 268.647C159.018 283.719 145.732 376.882 151.462 404.606C178.903 424.136 212.755 435.675 249.387 435.675C278.305 435.675 305.489 428.479 329.159 415.846C333.349 381.229 323.021 282.268 306.685 270.229C292.758 259.963 266.985 254.926 241.619 254.778Z" fill="#76C2ED"/>
<path d="M156.41 308.356C161.216 287.87 167.651 270.786 175.275 265.036C199.877 246.478 275.108 246.083 302.965 266.615C320.294 279.391 331.633 390.199 324.518 417.837" stroke="black" stroke-width="3" stroke-linecap="round" stroke-linejoin="round"/>
<path d="M147.826 401.452C146.675 394.398 146.603 382.96 147.471 369.6" stroke="black" stroke-width="3" stroke-linecap="round" stroke-linejoin="round"/>
<path d="M34.5055 2L110.273 29.7735L77.7568 113.379L2 85.6063L34.5055 2Z" stroke="#B6C6FC" stroke-width="3" stroke-linecap="round" stroke-linejoin="round"/>
<path d="M374.276 437.883L390.371 580L493.988 408.581L374.276 437.883Z" stroke="#B6C6FC" stroke-width="3" stroke-linecap="round" stroke-linejoin="round"/>
<path d="M32.2396 120.198C32.2396 96.3266 52.1696 76.9769 76.7545 76.9769C101.339 76.9769 121.266 96.3277 121.266 120.198C121.266 144.068 101.336 163.419 76.7509 163.419C52.1661 163.419 32.2396 144.068 32.2396 120.198Z" stroke="#B6C6FC" stroke-width="3" stroke-linecap="round" stroke-linejoin="round"/>
<path fill-rule="evenodd" clip-rule="evenodd" d="M348.213 405.404C344.679 401.973 320.318 369.712 317.573 366.675C314.828 363.639 366.913 321.704 370.116 325.371C373.319 329.038 386.162 346.488 392.15 356.082C387.338 364.503 360.73 397.11 348.213 405.404Z" fill="#F0C09D"/>
<path d="M349.395 402.849C346.44 398.936 320.038 363.62 317.292 360.582C314.546 357.544 366.633 315.611 369.836 319.278C373.039 322.945 388.381 343.331 393.664 353.306" stroke="black" stroke-width="3" stroke-linecap="round" stroke-linejoin="round"/>
<path fill-rule="evenodd" clip-rule="evenodd" d="M292.244 265.274C318.545 247.752 382.025 307.932 381.866 325.871C381.708 343.81 325.267 376.408 315.865 371.7C305.502 366.516 251.886 292.146 292.244 265.274Z" fill="#76C2ED"/>
<path d="M276.395 304.437C272.849 287.757 275.126 271.757 289.767 262.007C316.073 244.489 379.549 304.668 379.389 322.612C379.229 340.556 322.791 373.147 313.388 368.44C310.379 366.934 303.725 359.597 296.783 349.282" stroke="black" stroke-width="3" stroke-linecap="round" stroke-linejoin="round"/>
<path d="M83.5592 274.661C83.5592 185.734 157.807 113.644 249.396 113.644C340.986 113.644 415.234 185.732 415.234 274.661C415.234 363.59 340.986 435.679 249.396 435.679C157.807 435.679 83.5592 363.588 83.5592 274.661Z" stroke="black" stroke-width="3" stroke-linecap="round" stroke-linejoin="round"/>
<path fill-rule="evenodd" clip-rule="evenodd" d="M391.948 301.46C392.111 296.834 401.396 294.958 412.686 297.268C423.977 299.578 432.998 305.201 432.836 309.826C432.674 314.451 423.387 316.327 412.097 314.017C400.806 311.707 391.781 306.085 391.948 301.46Z" fill="#F0C09D"/>
<path fill-rule="evenodd" clip-rule="evenodd" d="M395.297 283.764C395.46 279.139 404.744 277.262 416.035 279.572C427.326 281.882 436.348 287.505 436.185 292.13C436.022 296.755 426.736 298.632 415.445 296.322C404.155 294.012 395.139 288.39 395.297 283.764Z" fill="#F0C09D"/>
<path fill-rule="evenodd" clip-rule="evenodd" d="M394.864 265.476C395.027 260.851 404.312 258.975 415.604 261.284C426.896 263.593 435.916 269.217 435.752 273.842C435.589 278.467 426.303 280.344 415.013 278.034C403.722 275.724 394.701 270.102 394.864 265.476Z" fill="#F0C09D"/>
<path d="M399.505 258.765C403.215 258.099 408.182 258.242 413.613 259.353C424.904 261.663 433.925 267.285 433.762 271.91C433.652 275.033 429.382 276.904 423.144 277.075" stroke="black" stroke-width="3" stroke-linecap="round" stroke-linejoin="round"/>
<path d="M396.722 277.962C400.443 276.398 406.835 276.165 414.046 277.641C425.336 279.951 434.358 285.573 434.194 290.198C434.076 293.57 429.112 295.478 422.047 295.374" stroke="black" stroke-width="3" stroke-linecap="round" stroke-linejoin="round"/>
<path d="M399.04 294.44C402.369 294.183 406.384 294.455 410.692 295.336C421.983 297.647 431.004 303.268 430.841 307.894C430.739 310.784 427.074 312.6 421.582 312.994" stroke="black" stroke-width="3" stroke-linecap="round" stroke-linejoin="round"/>
<path fill-rule="evenodd" clip-rule="evenodd" d="M62.0345 272.19C62.1976 267.565 71.4836 265.689 82.7742 267.999C94.0648 270.309 103.086 275.931 102.923 280.557C102.76 285.183 93.475 287.058 82.1832 284.748C70.8914 282.438 61.8714 276.815 62.0345 272.19Z" fill="#F0C09D"/>
<path fill-rule="evenodd" clip-rule="evenodd" d="M65.3869 254.494C65.5501 249.869 74.836 247.993 86.1266 250.303C97.4173 252.613 106.438 258.236 106.275 262.864C106.112 267.493 96.8274 269.366 85.5368 267.056C74.2462 264.745 65.2238 259.121 65.3869 254.494Z" fill="#F0C09D"/>
<path fill-rule="evenodd" clip-rule="evenodd" d="M64.9543 236.206C65.1174 231.581 74.4034 229.705 85.694 232.015C96.9846 234.325 106.006 239.948 105.843 244.573C105.68 249.198 96.3948 251.074 85.1042 248.764C73.8135 246.454 64.7924 240.829 64.9543 236.206Z" fill="#F0C09D"/>
<path d="M67.2911 240.58C63.8159 238.354 61.7202 235.866 61.7994 233.615C61.9625 228.99 71.2485 227.113 82.5391 229.424C87.597 230.457 92.1985 232.157 95.7245 234.129" stroke="black" stroke-width="3" stroke-linecap="round" stroke-linejoin="round"/>
<path d="M72.0712 261.192C66.0831 258.501 62.1233 254.981 62.232 251.903C62.3952 247.278 71.6811 245.402 82.9717 247.711C87.6762 248.674 91.987 250.211 95.403 252.012" stroke="black" stroke-width="3" stroke-linecap="round" stroke-linejoin="round"/>
<path d="M75.2131 281.227C65.7747 278.558 58.7358 273.688 58.88 269.598C59.0431 264.973 68.329 263.095 79.6197 265.405C86.2236 266.757 92.0522 269.241 95.7188 271.996" stroke="black" stroke-width="3" stroke-linecap="round" stroke-linejoin="round"/>
<path fill-rule="evenodd" clip-rule="evenodd" d="M266.994 219.397C265.92 225.335 260.966 249.244 264.763 275.16C260.383 278.374 234.848 280.696 227.825 275.16C228.073 264.649 228.32 243.627 227.329 238.252C226.339 232.876 268.072 213.46 266.994 219.397Z" fill="#F0C09D"/>
<path d="M224.957 271.713C225.204 261.201 225.452 240.18 224.461 234.804C223.469 229.428 265.2 210.014 264.127 215.949C263.054 221.884 258.099 245.796 261.895 271.713C259.913 273.165 253.597 274.436 246.625 274.88" stroke="black" stroke-width="3" stroke-linecap="round" stroke-linejoin="round"/>
<path fill-rule="evenodd" clip-rule="evenodd" d="M183.607 184.992C186.037 156.045 208.411 134.163 233.58 136.115C258.749 138.067 277.183 163.115 274.752 192.061C272.321 221.008 249.947 242.895 224.779 240.944C199.61 238.993 181.175 213.938 183.607 184.992Z" fill="#F0C09D"/>
<path d="M248.843 231.013C241.061 236.167 231.957 238.826 222.456 238.09C210.735 237.181 200.47 231.262 193.102 222.275" stroke="black" stroke-width="3" stroke-linecap="round" stroke-linejoin="round"/>
<path d="M183.322 203.421C181.419 196.807 180.659 189.604 181.285 182.143C183.715 153.197 206.09 131.314 231.26 133.267C256.429 135.219 274.862 160.267 272.432 189.213C271.699 197.935 269.156 206.015 265.271 212.995" stroke="black" stroke-width="3" stroke-linecap="round" stroke-linejoin="round"/>
<path fill-rule="evenodd" clip-rule="evenodd" d="M227.854 174.42C228.202 171.291 229.666 168.879 231.125 169.031C232.583 169.184 233.483 171.845 233.134 174.973C232.785 178.1 231.321 180.514 229.863 180.36C228.406 180.206 227.505 177.547 227.854 174.42Z" fill="black"/>
<path d="M207.799 177.041C206.642 181.884 203.435 187.418 199.605 190.354" stroke="black" stroke-width="3" stroke-linecap="round" stroke-linejoin="round"/>
<path d="M217.151 207.177C217.151 206.16 217.462 205.165 218.044 204.319C218.626 203.473 219.454 202.813 220.422 202.424C221.39 202.035 222.456 201.933 223.484 202.131C224.512 202.33 225.456 202.82 226.197 203.539C226.938 204.259 227.443 205.176 227.647 206.174C227.852 207.172 227.747 208.206 227.346 209.146C226.945 210.086 226.265 210.89 225.394 211.455C224.523 212.021 223.498 212.322 222.45 212.322C221.045 212.322 219.697 211.78 218.703 210.815C217.71 209.85 217.151 208.542 217.151 207.177V207.177Z" stroke="black" stroke-width="3" stroke-linecap="round" stroke-linejoin="round"/>
<path fill-rule="evenodd" clip-rule="evenodd" d="M261.465 192.887C258.265 192.665 249.081 179.942 258.503 171.196C253.88 166.823 226.685 147.059 194.013 159.316C189.768 155.125 178.182 138.273 188.183 131.007C198.184 123.741 202.362 132.527 203.657 136.02C200.636 126.799 202.337 101.998 227.77 101.724C253.204 101.45 280.549 173.601 279.443 186.549C278.338 199.497 278.283 201.246 261.465 192.887Z" fill="#433D3D"/>
<path d="M260.361 135.277C269.983 154.642 276.331 175.359 275.787 181.732C274.681 194.68 274.627 196.429 257.809 188.07C254.61 187.848 245.425 175.125 254.847 166.379C251.19 162.919 233.395 149.819 209.939 150.578" stroke="black" stroke-width="3" stroke-linecap="round" stroke-linejoin="round"/>
<path d="M190.357 154.501C186.112 150.309 174.526 133.457 184.527 126.191C194.528 118.925 198.712 127.711 200.001 131.204C196.98 121.983 198.682 97.1829 224.114 96.9074C230.497 96.8386 237.007 101.336 243.153 108.315" stroke="black" stroke-width="3" stroke-linecap="round" stroke-linejoin="round"/>
<path fill-rule="evenodd" clip-rule="evenodd" d="M254.199 199.034C254.199 196.796 254.882 194.609 256.163 192.749C257.443 190.888 259.263 189.438 261.392 188.582C263.521 187.726 265.863 187.502 268.123 187.938C270.383 188.375 272.459 189.452 274.089 191.034C275.718 192.616 276.828 194.632 277.278 196.827C277.727 199.021 277.496 201.296 276.615 203.363C275.733 205.43 274.239 207.196 272.323 208.44C270.407 209.683 268.155 210.346 265.85 210.346C262.76 210.346 259.797 209.154 257.612 207.033C255.427 204.911 254.199 202.034 254.199 199.034Z" fill="#F0C09D"/>
<path d="M259.925 187.224C261.727 186.419 263.712 186.074 265.69 186.222C267.668 186.37 269.575 187.007 271.229 188.071C272.883 189.135 274.23 190.591 275.142 192.302C276.054 194.013 276.501 195.922 276.44 197.847C276.379 199.773 275.813 201.652 274.795 203.305C273.777 204.959 272.341 206.333 270.623 207.296C268.905 208.26 266.962 208.782 264.978 208.812C262.994 208.843 261.035 208.381 259.286 207.47" stroke="black" stroke-width="3" stroke-linecap="round" stroke-linejoin="round"/>
</svg>
