<svg width="126" height="26" viewBox="0 0 126 26" fill="none" xmlns="http://www.w3.org/2000/svg">
<path d="M14.496 25V14.38H4.236V25H0.204V0.52L4.236 0.339998V11.104H14.496V0.52H18.564V25H14.496ZM31.8292 25.432C29.1172 25.408 27.0292 24.568 25.5652 22.912C24.1012 21.232 23.3692 19 23.3692 16.216C23.3932 13.48 24.1732 11.284 25.7092 9.628C27.2452 7.948 29.3812 7.096 32.1172 7.072C34.9252 7.072 37.0852 7.936 38.5972 9.664C40.1092 11.392 40.8652 13.636 40.8652 16.396C40.8412 19.132 40.0132 21.328 38.3812 22.984C36.7492 24.616 34.5652 25.432 31.8292 25.432ZM36.6892 16.396C36.6892 14.644 36.3172 13.24 35.5732 12.184C34.8532 11.104 33.7372 10.564 32.2252 10.564C30.7132 10.564 29.5612 11.056 28.7692 12.04C27.9772 13 27.5812 14.38 27.5812 16.18C27.5812 18.004 27.9172 19.432 28.5892 20.464C29.2612 21.472 30.3532 21.976 31.8652 21.976C33.3772 21.976 34.5532 21.508 35.3932 20.572C36.2332 19.636 36.6652 18.244 36.6892 16.396ZM59.377 9.7C60.121 8.884 61.093 8.224 62.293 7.72C63.493 7.192 64.585 6.928 65.569 6.928C67.825 6.928 69.445 7.588 70.429 8.908C71.413 10.204 71.905 11.824 71.905 13.768V25H67.801V14.02C67.801 12.892 67.525 12.004 66.973 11.356C66.445 10.708 65.641 10.384 64.561 10.384C63.865 10.384 63.121 10.576 62.329 10.96C61.537 11.344 60.817 11.824 60.169 12.4C60.193 12.616 60.217 12.844 60.241 13.084C60.265 13.3 60.277 13.528 60.277 13.768V25H56.173V14.02C56.173 12.892 55.897 12.004 55.345 11.356C54.817 10.708 54.025 10.384 52.969 10.384C52.297 10.384 51.613 10.54 50.917 10.852C50.221 11.164 49.561 11.584 48.937 12.112V25H44.869V7.54H47.101L48.145 9.268C48.913 8.548 49.849 7.984 50.953 7.576C52.057 7.144 53.053 6.928 53.941 6.928C55.285 6.928 56.401 7.18 57.289 7.684C58.201 8.164 58.897 8.836 59.377 9.7ZM92.0968 17.368H80.0008C80.1688 18.736 80.6848 19.852 81.5488 20.716C82.4128 21.58 83.6368 22.012 85.2208 22.012C86.1328 22.012 86.9248 21.904 87.5968 21.688C88.2688 21.472 88.9888 21.184 89.7568 20.824C89.9728 21.304 90.1768 21.796 90.3688 22.3C90.5848 22.804 90.7888 23.296 90.9808 23.776C90.1888 24.352 89.2048 24.772 88.0288 25.036C86.8528 25.3 85.8928 25.432 85.1488 25.432C82.1728 25.432 79.8568 24.604 78.2008 22.948C76.5448 21.268 75.7168 19.048 75.7168 16.288C75.7168 13.528 76.4848 11.308 78.0208 9.628C79.5568 7.924 81.6448 7.072 84.2848 7.072C87.2848 7.072 89.3368 8.116 90.4408 10.204C91.5448 12.268 92.0968 14.656 92.0968 17.368ZM88.2088 14.632C87.9688 13.336 87.5128 12.34 86.8408 11.644C86.1928 10.924 85.3048 10.564 84.1768 10.564C83.0248 10.564 82.0888 10.924 81.3688 11.644C80.6728 12.364 80.2408 13.36 80.0728 14.632H88.2088ZM95.9511 25V7.54H98.1471C98.3631 7.972 98.5791 8.404 98.7951 8.836C99.0351 9.244 99.2631 9.652 99.4791 10.06C100.175 9.46 101.039 8.896 102.071 8.368C103.103 7.816 104.087 7.54 105.023 7.54L105.851 10.816C104.987 10.816 104.027 11.056 102.971 11.536C101.939 12.016 100.955 12.688 100.019 13.552V25H95.9511ZM116.134 25.432C113.422 25.408 111.334 24.568 109.87 22.912C108.406 21.232 107.674 19 107.674 16.216C107.698 13.48 108.478 11.284 110.014 9.628C111.55 7.948 113.686 7.096 116.422 7.072C119.23 7.072 121.39 7.936 122.902 9.664C124.414 11.392 125.17 13.636 125.17 16.396C125.146 19.132 124.318 21.328 122.686 22.984C121.054 24.616 118.87 25.432 116.134 25.432ZM120.994 16.396C120.994 14.644 120.622 13.24 119.878 12.184C119.158 11.104 118.042 10.564 116.53 10.564C115.018 10.564 113.866 11.056 113.074 12.04C112.282 13 111.886 14.38 111.886 16.18C111.886 18.004 112.222 19.432 112.894 20.464C113.566 21.472 114.658 21.976 116.17 21.976C117.682 21.976 118.858 21.508 119.698 20.572C120.538 19.636 120.97 18.244 120.994 16.396Z" fill="#323593"/>
</svg>
