<svg width="20" height="20" viewBox="0 0 20 20" fill="none" xmlns="http://www.w3.org/2000/svg">
<path d="M18.47 -0.00010431H1.53C1.33958 -0.00274893 1.1505 0.0321432 0.973563 0.102579C0.796628 0.173016 0.635301 0.277616 0.498795 0.410408C0.362289 0.543199 0.253279 0.70158 0.177989 0.876505C0.1027 1.05143 0.062606 1.23947 0.0599976 1.4299V18.5699C0.062606 18.7603 0.1027 18.9484 0.177989 19.1233C0.253279 19.2982 0.362289 19.4566 0.498795 19.5894C0.635301 19.7222 0.796628 19.8268 0.973563 19.8972C1.1505 19.9676 1.33958 20.0025 1.53 19.9999H18.47C18.6604 20.0025 18.8495 19.9676 19.0264 19.8972C19.2034 19.8268 19.3647 19.7222 19.5012 19.5894C19.6377 19.4566 19.7467 19.2982 19.822 19.1233C19.8973 18.9484 19.9374 18.7603 19.94 18.5699V1.4299C19.9374 1.23947 19.8973 1.05143 19.822 0.876505C19.7467 0.70158 19.6377 0.543199 19.5012 0.410408C19.3647 0.277616 19.2034 0.173016 19.0264 0.102579C18.8495 0.0321432 18.6604 -0.00274893 18.47 -0.00010431ZM6.09 16.7399H3.09V7.7399H6.09V16.7399ZM4.59 6.4799C4.17626 6.4799 3.77947 6.31554 3.48691 6.02298C3.19435 5.73043 3.03 5.33363 3.03 4.9199C3.03 4.50616 3.19435 4.10937 3.48691 3.81681C3.77947 3.52425 4.17626 3.3599 4.59 3.3599C4.80969 3.33498 5.03217 3.35675 5.24287 3.42378C5.45357 3.49081 5.64774 3.60159 5.81265 3.74886C5.97757 3.89613 6.10952 4.07657 6.19987 4.27838C6.29021 4.48018 6.33692 4.69879 6.33692 4.9199C6.33692 5.141 6.29021 5.35961 6.19987 5.56141C6.10952 5.76322 5.97757 5.94366 5.81265 6.09093C5.64774 6.23821 5.45357 6.34898 5.24287 6.41601C5.03217 6.48304 4.80969 6.50481 4.59 6.4799ZM16.91 16.7399H13.91V11.9099C13.91 10.6999 13.48 9.9099 12.39 9.9099C12.0527 9.91237 11.7242 10.0182 11.4488 10.2131C11.1735 10.408 10.9645 10.6826 10.85 10.9999C10.7717 11.2349 10.7378 11.4825 10.75 11.7299V16.7299H7.75C7.75 16.7299 7.75 8.5499 7.75 7.7299H10.75V8.9999C11.0225 8.527 11.4189 8.13741 11.8964 7.8731C12.374 7.60878 12.9146 7.47975 13.46 7.4999C15.46 7.4999 16.91 8.7899 16.91 11.5599V16.7399Z" fill="black" fill-opacity="0.8"/>
</svg>
