<svg width="44" height="44" viewBox="0 0 44 44" fill="none" xmlns="http://www.w3.org/2000/svg">
<path d="M13.6033 28.4898C13.2619 28.8333 13.0702 29.298 13.0702 29.7823C13.0702 30.2666 13.2619 30.7313 13.6033 31.0748C13.7737 31.2466 13.9765 31.383 14.1999 31.4761C14.4233 31.5692 14.663 31.6171 14.905 31.6171C15.147 31.6171 15.3866 31.5692 15.61 31.4761C15.8334 31.383 16.0362 31.2466 16.2066 31.0748C16.5481 30.7313 16.7398 30.2666 16.7398 29.7823C16.7398 29.298 16.5481 28.8333 16.2066 28.4898C16.0362 28.318 15.8334 28.1816 15.61 28.0885C15.3866 27.9954 15.147 27.9475 14.905 27.9475C14.663 27.9475 14.4233 27.9954 14.1999 28.0885C13.9765 28.1816 13.7737 28.318 13.6033 28.4898ZM13.6033 12.9248C13.2619 13.2683 13.0702 13.733 13.0702 14.2173C13.0702 14.7016 13.2619 15.1663 13.6033 15.5098C13.7737 15.6816 13.9765 15.818 14.1999 15.9111C14.4233 16.0042 14.663 16.0521 14.905 16.0521C15.147 16.0521 15.3866 16.0042 15.61 15.9111C15.8334 15.818 16.0362 15.6816 16.2066 15.5098C16.5481 15.1663 16.7398 14.7016 16.7398 14.2173C16.7398 13.733 16.5481 13.2683 16.2066 12.9248C16.0362 12.753 15.8334 12.6166 15.61 12.5235C15.3866 12.4304 15.147 12.3825 14.905 12.3825C14.663 12.3825 14.4233 12.4304 14.1999 12.5235C13.9765 12.6166 13.7737 12.753 13.6033 12.9248ZM22.6783 31.2581C22.3157 31.2581 21.9613 31.3657 21.6598 31.5671C21.3583 31.7686 21.1233 32.0549 20.9845 32.3899C20.8458 32.7249 20.8095 33.0935 20.8802 33.4491C20.9509 33.8048 21.1256 34.1314 21.3819 34.3878C21.6383 34.6442 21.965 34.8188 22.3206 34.8896C22.6763 34.9603 23.0449 34.924 23.3799 34.7853C23.7149 34.6465 24.0012 34.4115 24.2027 34.11C24.4041 33.8085 24.5116 33.4541 24.5116 33.0915C24.5241 32.8431 24.4859 32.5948 24.3993 32.3617C24.3128 32.1286 24.1797 31.9155 24.0082 31.7354C23.8367 31.5554 23.6304 31.4121 23.4017 31.3143C23.1731 31.2164 22.927 31.1662 22.6783 31.1665V31.2581ZM11.6783 20.2581C11.3157 20.2581 10.9613 20.3657 10.6598 20.5671C10.3583 20.7686 10.1233 21.0549 9.98453 21.3899C9.84577 21.7249 9.80946 22.0935 9.8802 22.4491C9.95094 22.8048 10.1256 23.1314 10.3819 23.3878C10.6383 23.6442 10.965 23.8188 11.3206 23.8896C11.6763 23.9603 12.0449 23.924 12.3799 23.7853C12.7149 23.6465 13.0012 23.4115 13.2027 23.11C13.4041 22.8085 13.5116 22.4541 13.5116 22.0915C13.5241 21.8431 13.4859 21.5948 13.3993 21.3617C13.3128 21.1286 13.1797 20.9155 13.0082 20.7354C12.8367 20.5554 12.6304 20.4121 12.4017 20.3143C12.1731 20.2164 11.927 20.1662 11.6783 20.1665V20.2581ZM22.6783 9.25814C22.3157 9.25814 21.9613 9.36566 21.6598 9.56711C21.3583 9.76856 21.1233 10.0549 20.9845 10.3899C20.8458 10.7249 20.8095 11.0935 20.8802 11.4491C20.9509 11.8048 21.1256 12.1314 21.3819 12.3878C21.6383 12.6442 21.965 12.8188 22.3206 12.8896C22.6763 12.9603 23.0449 12.924 23.3799 12.7853C23.7149 12.6465 24.0012 12.4115 24.2027 12.11C24.4041 11.8085 24.5116 11.4541 24.5116 11.0915C24.5241 10.8431 24.4859 10.5948 24.3993 10.3617C24.3128 10.1286 24.1797 9.91551 24.0082 9.73544C23.8367 9.55537 23.6304 9.41207 23.4017 9.31425C23.1731 9.21644 22.927 9.16616 22.6783 9.16647V9.25814ZM29.1683 13.0165C28.9108 13.2724 28.7351 13.5991 28.6635 13.955C28.5919 14.3109 28.6276 14.6801 28.766 15.0158C28.9044 15.3514 29.1394 15.6384 29.4411 15.8403C29.7429 16.0422 30.0977 16.15 30.4608 16.15C30.8239 16.15 31.1788 16.0422 31.4805 15.8403C31.7822 15.6384 32.0172 15.3514 32.1556 15.0158C32.2941 14.6801 32.3297 14.3109 32.2581 13.955C32.1865 13.5991 32.0108 13.2724 31.7533 13.0165C31.4221 12.6626 30.9642 12.4542 30.4797 12.437C29.9953 12.4199 29.5238 12.5952 29.1683 12.9248V13.0165ZM40.7183 13.0165C39.0422 9.66569 36.4657 6.84807 33.2779 4.87959C30.0901 2.91111 26.4169 1.86959 22.6703 1.87183C18.9236 1.87407 15.2517 2.91998 12.0662 4.89227C8.88073 6.86456 6.30766 9.68525 4.63552 13.038C2.96339 16.3908 2.25831 20.1431 2.59936 23.8742C2.9404 27.6053 4.31409 31.1676 6.56637 34.1617C8.81865 37.1557 11.8605 39.4632 15.3507 40.8253C18.841 42.1873 22.6417 42.5502 26.3266 41.8731C27.2533 41.6988 28.1359 41.3415 28.9228 40.8221C29.7098 40.3027 30.3853 39.6316 30.91 38.8481C31.4753 37.9964 31.8653 37.0405 32.0573 36.0364C32.2493 35.0323 32.2395 34.0001 32.0283 32.9998C31.9129 32.3954 31.8515 31.7818 31.845 31.1665C31.853 29.3899 32.3771 27.6539 33.3536 26.1698C34.33 24.6856 35.7167 23.5171 37.345 22.8065C38.2229 22.4134 39.011 21.8446 39.6605 21.1351C40.3101 20.4256 40.8073 19.5906 41.1216 18.6815C41.4395 17.7525 41.5676 16.7691 41.4984 15.7897C41.4291 14.8103 41.1638 13.8548 40.7183 12.9798V13.0165ZM37.6016 17.4898C37.4452 17.9286 37.2023 18.3315 36.8874 18.6747C36.5725 19.018 36.192 19.2945 35.7683 19.4881C33.5133 20.4976 31.5975 22.1365 30.2512 24.2081C28.9048 26.2796 28.1851 28.6958 28.1783 31.1665C28.181 32.0283 28.267 32.8878 28.435 33.7331C28.5469 34.2498 28.5543 34.7836 28.4567 35.3031C28.3591 35.8226 28.1585 36.3174 27.8666 36.7581C27.6197 37.1439 27.2948 37.4736 26.9127 37.7262C26.5306 37.9788 26.0999 38.1487 25.6483 38.2248C24.669 38.4088 23.6747 38.5009 22.6783 38.4998C20.4676 38.5009 18.2793 38.0577 16.2432 37.1966C14.2071 36.3355 12.3648 35.074 10.8257 33.487C9.28667 31.9001 8.08219 30.02 7.28384 27.9585C6.48548 25.897 6.10953 23.6961 6.17831 21.4865C6.3206 17.3666 7.99149 13.4472 10.8655 10.4919C13.7394 7.53658 17.6107 5.75699 21.725 5.49981H22.66C25.7322 5.50058 28.7432 6.35907 31.3539 7.97859C33.9645 9.59812 36.0712 11.9144 37.4366 14.6665C37.8569 15.5373 37.9162 16.5388 37.6016 17.4531V17.4898ZM22.6783 20.1665C22.3157 20.1665 21.9613 20.274 21.6598 20.4754C21.3583 20.6769 21.1233 20.9632 20.9845 21.2982C20.8458 21.6332 20.8095 22.0018 20.8802 22.3575C20.9509 22.7131 21.1256 23.0398 21.3819 23.2962C21.6383 23.5526 21.965 23.7272 22.3206 23.7979C22.6763 23.8687 23.0449 23.8323 23.3799 23.6936C23.7149 23.5548 24.0012 23.3198 24.2027 23.0184C24.4041 22.7169 24.5116 22.3624 24.5116 21.9998C24.5116 21.5136 24.3185 21.0473 23.9747 20.7034C23.6309 20.3596 23.1645 20.1665 22.6783 20.1665Z" fill="black"/>
</svg>
