<svg width="375" height="447" viewBox="0 0 375 447" fill="none" xmlns="http://www.w3.org/2000/svg">
<path d="M56.9628 291.602C56.5476 295.329 48.6885 349.095 47.062 362.124C45.4355 375.152 34.8802 409.127 31.8665 413.839C35.0169 415.637 44.356 420.439 44.356 420.439C44.356 420.439 72.8227 380.066 73.9852 376.222C75.1477 372.379 80.0956 353.793 80.0956 353.793L73.2867 288.006L56.9628 291.602Z" fill="#3B3744"/>
<path d="M250.954 81.234C279.802 103.911 302.051 133.385 301.069 161.597C300.087 189.808 275.943 216.958 255.096 241.699C234.249 266.439 216.636 288.662 190.46 303.714C164.284 318.766 129.609 326.404 101.328 317.147C73.0474 307.891 51.1454 281.815 37.2491 254.166C23.3528 226.516 17.2473 197.253 28.1982 176.132C39.1492 155.01 67.1469 141.963 90.5191 118.446C113.891 94.9282 132.696 60.76 159.771 51.7099C186.846 42.6599 222.18 58.5616 250.954 81.234Z" fill="#F0F0F0"/>
<path d="M53.3776 223.45C51.4629 220.968 47.1206 210.277 47.1206 208.164C47.1206 206.051 60.3087 163.746 61.139 160.149C61.9694 156.552 61.945 146.378 61.139 143.029C61.4907 141.779 62.4237 141.374 62.6679 142.13C63.3077 142.606 66.9467 144.616 66.9467 144.616C66.9467 144.616 75.4554 155.406 73.5554 157.843C71.999 159.775 70.6371 161.833 69.4866 163.993C69.0275 166.713 62.3113 201.758 62.6483 204.006C62.9854 206.254 69.7504 217.588 69.9262 218.392C68.4657 219.107 54.2373 224.282 53.3776 223.45Z" fill="#F0C09D"/>
<path d="M52.6791 180.245C55.8101 169.873 58.814 160.014 59.1852 158.351C59.9912 154.754 59.9912 144.58 59.1852 141.231C59.5369 139.981 60.4699 139.576 60.7141 140.331" stroke="#1B3C87" stroke-width="2" stroke-linecap="round" stroke-linejoin="round"/>
<path d="M51.4238 221.652C49.5091 219.17 45.1668 208.479 45.1668 206.366C45.1668 205.57 47.062 199.002 49.4603 190.954" stroke="#1B3C87" stroke-width="2" stroke-linecap="round" stroke-linejoin="round"/>
<path d="M269.667 9.08619e-05L37.9673 54.8362L91.1238 245.118L322.823 190.282L269.667 9.08619e-05Z" fill="#EAF0FF"/>
<path d="M98.425 40.5239L37.9681 54.8322L91.1246 245.114L151.581 230.806L98.425 40.5239Z" fill="#D8DFFF"/>
<path d="M75.895 93.0534C86.5749 93.0534 95.2326 85.0846 95.2326 75.2545C95.2326 65.4244 86.5749 57.4556 75.895 57.4556C65.2151 57.4556 56.5574 65.4244 56.5574 75.2545C56.5574 85.0846 65.2151 93.0534 75.895 93.0534Z" fill="#EAF0FF"/>
<path d="M106.352 96.6955L60.9143 107.449L62.037 111.468L107.474 100.714L106.352 96.6955Z" fill="#EAF0FF"/>
<path d="M109.056 106.372L63.6189 117.125L64.7416 121.144L110.179 110.39L109.056 106.372Z" fill="#EAF0FF"/>
<path d="M161.827 124.03C164.795 124.03 167.2 121.815 167.2 119.084C167.2 116.353 164.795 114.139 161.827 114.139C158.86 114.139 156.454 116.353 156.454 119.084C156.454 121.815 158.86 124.03 161.827 124.03Z" fill="#B2C3FB"/>
<path d="M259.987 93.7032L173.862 114.086L174.985 118.105L261.11 97.7221L259.987 93.7032Z" fill="#D8DFFF"/>
<path d="M240.452 23.7488L136.464 48.3595L154.032 111.247L258.02 86.6362L240.452 23.7488Z" fill="white"/>
<path d="M186.675 212.988C189.642 212.988 192.048 210.774 192.048 208.043C192.048 205.312 189.642 203.097 186.675 203.097C183.707 203.097 181.302 205.312 181.302 208.043C181.302 210.774 183.707 212.988 186.675 212.988Z" fill="#B2C3FB"/>
<path d="M284.842 182.661L198.717 203.044L199.839 207.063L285.964 186.68L284.842 182.661Z" fill="#D8DFFF"/>
<path d="M265.3 112.707L161.312 137.318L178.88 200.205L282.868 175.594L265.3 112.707Z" fill="white"/>
<path d="M29.4779 417.319L24.6667 425.119L18.6442 429.39L35.1048 447H48.6104L39.8135 434.502L41.2983 423.509" fill="#B2C3FB"/>
<path d="M91.3152 429.745L93.6793 437.631L92.0137 447H128.354L107.019 435.405L107.537 429.745" fill="#B2C3FB"/>
<path d="M46.5345 345.736C45.6846 351.842 44.991 356.913 44.6198 359.876C42.9981 372.913 32.4379 406.893 29.4242 411.577C32.5747 413.376 41.9138 418.177 41.9138 418.177C41.9138 418.177 70.3804 377.805 71.543 373.961C72.7055 370.117 77.6534 351.531 77.6534 351.531L70.8445 285.758L54.5206 289.354C54.3154 291.22 52.2444 305.593 50.0269 321.126" stroke="#1B3C87" stroke-width="2" stroke-linecap="round" stroke-linejoin="round"/>
<path d="M85.2146 424.31H109.3" stroke="#1B3C87" stroke-width="2" stroke-linecap="round" stroke-linejoin="round"/>
<path d="M85.2146 427.947H109.3" stroke="#1B3C87" stroke-width="2" stroke-linecap="round" stroke-linejoin="round"/>
<path d="M121.965 445.202H126.4L105.065 433.607L105.583 427.947" stroke="#1B3C87" stroke-width="2" stroke-linecap="round" stroke-linejoin="round"/>
<path d="M89.3615 427.947L91.7256 435.832L90.06 445.202H111.371" stroke="#1B3C87" stroke-width="2" stroke-linecap="round" stroke-linejoin="round"/>
<path d="M26.3324 410.08L43.345 418.987" stroke="#1B3C87" stroke-width="2" stroke-linecap="round" stroke-linejoin="round"/>
<path d="M24.6423 414.01L41.6598 422.92" stroke="#1B3C87" stroke-width="2" stroke-linecap="round" stroke-linejoin="round"/>
<path d="M39.0222 434.358L37.8597 432.703L39.3446 421.711" stroke="#1B3C87" stroke-width="2" stroke-linecap="round" stroke-linejoin="round"/>
<path d="M24.2858 420.767L22.713 423.32L16.6904 427.591L33.1511 445.202H46.6566L43.1691 440.247" stroke="#1B3C87" stroke-width="2" stroke-linecap="round" stroke-linejoin="round"/>
<path d="M64.1625 294.861C64.1625 297.109 66.1944 323.833 73.1499 344.99C77.7462 365.194 91.0759 426.557 91.0759 426.557H108.025L101.924 289.48L64.1625 294.861Z" fill="#3B3744"/>
<path d="M80.0956 385.16C84.5307 405.427 88.6337 424.31 88.6337 424.31H105.583L99.4821 287.232L61.7203 292.627C61.7203 294.875 63.7522 321.598 70.7077 342.756C71.753 347.346 73.2476 354.058 74.9327 361.696" stroke="#1B3C87" stroke-width="2" stroke-linecap="round" stroke-linejoin="round"/>
<path d="M122.205 234.411C126.112 236.317 138.548 241.492 140.048 241.492C141.547 241.492 163.005 234.973 164.138 232.981C165.271 230.99 166.443 225.684 168.407 225.154C170.37 224.623 169.262 229.29 169.262 229.29C170.424 228.939 188.775 224.538 188.692 224.628C189.18 227.047 179.25 233.903 178.215 234.15C173.11 239.419 141.327 255.82 139.945 255.82C138.563 255.82 117.091 250.425 115.738 249.975C116.006 248.137 120.349 235.71 122.205 234.411Z" fill="#F0C09D"/>
<path d="M69.2619 159.965C70.4879 158.454 71.8458 156.818 71.7823 154.484" stroke="#1B3C87" stroke-width="2" stroke-linecap="round" stroke-linejoin="round"/>
<path d="M67.6402 215.807C66.6634 213.074 60.8655 204.19 60.7141 201.87C60.5675 199.622 66.341 168.206 67.3863 163.364" stroke="#1B3C87" stroke-width="2" stroke-linecap="round" stroke-linejoin="round"/>
<path d="M70.2681 248.204C63.5129 250.901 48.288 228.548 51.5997 224.992C56.2301 220.092 69.2717 216.32 73.7409 217.907C75.9976 220.753 81.7563 243.641 70.2681 248.204Z" fill="#76C2ED"/>
<path d="M68.3143 246.406C61.5591 249.103 46.3342 226.75 49.6459 223.194C54.2764 218.293 67.3179 214.521 71.7872 216.108C74.0438 218.954 79.8026 241.842 68.3143 246.406Z" stroke="#1B3C87" stroke-width="2" stroke-linecap="round" stroke-linejoin="round"/>
<path d="M131.563 252.947C134.528 253.581 136.936 254.017 137.747 254.017C140.282 254.017 170.024 238.21 176.017 232.482C181.785 229.403 185.414 225.963 186.738 223.315" stroke="#1B3C87" stroke-width="2" stroke-linecap="round" stroke-linejoin="round"/>
<path d="M114.526 248.698C115.581 249.067 118.028 249.733 120.969 250.47" stroke="#1B3C87" stroke-width="2" stroke-linecap="round" stroke-linejoin="round"/>
<path d="M151.321 235.836C156.64 234.038 161.647 232.118 162.184 231.183C163.337 229.191 164.489 223.886 166.453 223.356C168.417 222.825 167.308 227.492 167.308 227.492" stroke="#1B3C87" stroke-width="2" stroke-linecap="round" stroke-linejoin="round"/>
<path d="M120.251 232.613C124.158 234.519 136.594 239.694 138.094 239.694C139.006 239.554 139.904 239.348 140.78 239.078" stroke="#1B3C87" stroke-width="2" stroke-linecap="round" stroke-linejoin="round"/>
<path d="M84.0618 221.458C106.574 221.458 108.303 262.582 102.071 294.457C96.0092 296.705 61.7252 297.645 56.0104 292.542C53.9345 285.533 46.5443 221.463 84.0618 221.458Z" fill="#76C2ED"/>
<path d="M54.0224 248.208C57.207 233.022 64.9782 219.66 82.108 219.66C97.5234 219.66 103.194 238.947 103.238 261.341" stroke="#1B3C87" stroke-width="2" stroke-linecap="round" stroke-linejoin="round"/>
<path d="M55.39 291.602C54.9047 291.374 54.456 291.085 54.0566 290.744C53.3337 288.311 51.9758 279.014 52.0735 267.905" stroke="#1B3C87" stroke-width="2" stroke-linecap="round" stroke-linejoin="round"/>
<path d="M102.55 275.759C102.017 281.495 101.182 287.21 100.107 292.659C96.6882 293.908 84.4428 294.758 73.3111 294.367" stroke="#1B3C87" stroke-width="2" stroke-linecap="round" stroke-linejoin="round"/>
<path d="M87.8424 230.378C89.9476 223.374 120.944 226.561 121.985 231.502C123.372 238.354 118.004 250.946 113.5 253.334C109.344 253.176 84.2572 242.301 87.8424 230.378Z" fill="#76C2ED"/>
<path d="M118.253 227.883C119.274 228.445 119.914 229.061 120.051 229.704C121.438 236.555 116.07 249.148 111.566 251.535C110.238 251.486 102.046 248.141 98.0705 246.221" stroke="#1B3C87" stroke-width="2" stroke-linecap="round" stroke-linejoin="round"/>
<path d="M85.5614 231.502C85.492 230.518 85.6026 229.53 85.8886 228.58C87.2172 224.165 100.005 223.796 109.549 225.365" stroke="#1B3C87" stroke-width="2" stroke-linecap="round" stroke-linejoin="round"/>
<path d="M85.7225 226.103C85.7225 227.932 73.1206 228.166 73.1206 226.103V209.648H85.7225V226.103Z" fill="#F0C09D"/>
<path d="M83.7688 219.013V224.304" stroke="#1B3C87" stroke-width="2" stroke-linecap="round" stroke-linejoin="round"/>
<path d="M78.5863 225.734C75.1135 225.896 71.1668 225.46 71.1668 224.304V207.85H83.7687V215.236" stroke="#1B3C87" stroke-width="2" stroke-linecap="round" stroke-linejoin="round"/>
<path d="M82.3425 213.236C89.4588 213.236 95.2277 206.253 95.2277 197.64C95.2277 189.026 89.4588 182.044 82.3425 182.044C75.2262 182.044 69.4573 189.026 69.4573 197.64C69.4573 206.253 75.2262 213.236 82.3425 213.236Z" fill="#F0C09D"/>
<path d="M89.2589 207.688C87.0072 210.026 84.0765 211.437 80.8772 211.437C73.7605 211.437 67.9871 204.455 67.9871 195.841C67.9871 187.227 73.7605 180.245 80.8772 180.245C87.9938 180.245 93.7624 187.227 93.7624 195.841C93.7872 198.654 93.1437 201.437 91.877 203.997" stroke="#1B3C87" stroke-width="2" stroke-linecap="round" stroke-linejoin="round"/>
<path d="M67.2251 199.339C67.2251 186.917 71.7041 175.026 76.2174 175.026C80.7306 175.026 78.2444 180.92 78.2444 180.92C80.12 177.467 85.9179 172.13 88.4529 172.13C90.988 172.13 91.6034 175.727 89.0049 179.396C90.1343 178.237 91.5008 177.296 93.0263 176.625C94.5518 175.953 96.2061 175.566 97.8946 175.484C100.825 175.484 101.206 178.685 101.206 181.837C101.206 187.407 88.5067 195.958 87.0755 197.433C86.9632 199.263 85.3074 214.148 81.2777 214.148C77.248 214.148 67.2251 213.236 67.2251 199.339Z" fill="#433D3D"/>
<path d="M83.6808 208.119C82.8212 210.547 81.7026 212.35 80.3008 212.35C78.0344 212.35 73.8728 212.062 70.6638 209.338" stroke="#1B3C87" stroke-width="2" stroke-linecap="round" stroke-linejoin="round"/>
<path d="M99.2037 183.141C96.8542 187.187 90.9978 191.714 87.9157 194.128" stroke="#1B3C87" stroke-width="2" stroke-linecap="round" stroke-linejoin="round"/>
<path d="M93.5768 174.257C94.6506 173.905 95.7783 173.712 96.9177 173.686C99.36 173.686 100.029 175.911 100.185 178.474" stroke="#1B3C87" stroke-width="2" stroke-linecap="round" stroke-linejoin="round"/>
<path d="M66.2677 196.026C66.6096 184.166 70.9129 173.218 75.2405 173.218C79.7488 173.218 77.2675 179.112 77.2675 179.112C79.1432 175.66 84.941 170.323 87.4761 170.323C90.0111 170.323 90.6265 173.92 88.028 177.588" stroke="#1B3C87" stroke-width="2" stroke-linecap="round" stroke-linejoin="round"/>
<path d="M87.6617 203.129C89.925 203.129 91.7597 201.44 91.7597 199.357C91.7597 197.274 89.925 195.585 87.6617 195.585C85.3984 195.585 83.5636 197.274 83.5636 199.357C83.5636 201.44 85.3984 203.129 87.6617 203.129Z" fill="#F0C09D"/>
<path d="M82.5965 198.858C82.5891 198.725 82.5891 198.591 82.5965 198.458C82.593 197.804 82.7747 197.16 83.1235 196.59C83.4724 196.02 83.9765 195.544 84.5862 195.207C85.1959 194.871 85.8902 194.687 86.6007 194.673C87.3113 194.659 88.0136 194.815 88.6386 195.126" stroke="#1B3C87" stroke-width="2" stroke-linecap="round" stroke-linejoin="round"/>
<path d="M87.8473 202.077C87.4703 202.182 87.0786 202.235 86.6848 202.234C85.6311 202.236 84.6176 201.862 83.8567 201.191" stroke="#1B3C87" stroke-width="2" stroke-linecap="round" stroke-linejoin="round"/>
<path d="M323.112 48.8955H296.131L309.621 70.399L323.112 48.8955Z" stroke="#B6C6FC" stroke-width="2" stroke-linecap="round" stroke-linejoin="round"/>
<path d="M23.9263 80.9772L14.2686 75.2506L2 92.7797L11.6577 98.5063L23.9263 80.9772Z" stroke="#B6C6FC" stroke-width="2" stroke-linecap="round" stroke-linejoin="round"/>
<path d="M252.026 292.474L189.756 271.636L147.223 379.312L209.493 400.15L252.026 292.474Z" fill="#EAF0FF"/>
<path d="M186.675 284.171C192.922 284.171 197.987 279.509 197.987 273.758C197.987 268.008 192.922 263.346 186.675 263.346C180.427 263.346 175.362 268.008 175.362 273.758C175.362 279.509 180.427 284.171 186.675 284.171Z" stroke="#B6C6FC" stroke-width="2" stroke-linecap="round" stroke-linejoin="round"/>
<path d="M339.436 220.78L337.38 259.668L375 241.86L339.436 220.78Z" fill="#EAF0FF"/>
</svg>
