<svg width="393" height="103" viewBox="0 0 393 103" fill="none" xmlns="http://www.w3.org/2000/svg">
<path d="M190.472 25.6611V27.9421C190.472 28.3223 190.088 28.7024 189.705 28.7024H186.828H185.101C183.375 28.7024 182.032 30.2231 182.032 31.7437V32.8842V56.0743C182.032 57.2148 182.032 58.1652 182.032 59.1156C182.224 65.5784 181.649 71.8511 183.375 73.5618C185.101 75.2726 187.403 75.0825 188.938 74.7023C189.513 74.5123 189.897 75.0825 189.705 75.6527C188.554 77.5536 185.677 79.6445 181.073 79.6445C175.894 79.6445 171.674 76.9833 168.989 74.7023C165.536 71.661 163.81 65.9586 163.81 58.1652V32.6942C163.81 32.6942 163.81 31.7437 163.81 31.5537C163.81 29.6528 162.467 28.5123 160.741 28.5123H146.738C145.012 28.5123 143.669 29.8429 143.669 31.5537C143.669 31.7437 143.669 31.9338 143.669 32.1239V69.38V70.7106C143.669 72.8015 145.395 74.5122 147.313 74.5122H149.615C150.191 74.5122 150.574 74.8924 150.574 75.2726V77.3635C150.574 77.7436 150.191 78.1238 149.807 78.1238H119.308C118.925 78.1238 118.541 77.7436 118.541 77.3635V75.2726C118.541 74.8924 118.925 74.5122 119.308 74.5122H121.035H122.186C123.912 74.5122 125.255 73.1817 125.255 71.4709C125.255 71.4709 125.255 70.3304 125.255 70.1404V31.3636C125.255 29.6528 123.72 28.5123 122.569 28.5123H119.308C118.925 28.5123 118.541 28.1322 118.541 27.752V25.6611C118.541 25.2809 118.925 24.9008 119.308 24.9008H121.994C124.296 24.9008 125.638 23.9504 125.638 21.0991C125.638 21.0991 125.638 21.0991 125.638 20.9091C126.981 7.03304 134.654 0 148.656 0C154.027 0 158.247 1.14049 161.316 3.42148C164.193 5.70247 165.728 8.5537 165.728 11.595C165.728 13.6859 165.152 15.2066 163.81 16.3471C162.467 17.4876 160.932 18.0578 159.206 18.0578C156.137 18.0578 152.301 16.7272 152.301 10.0744C152.301 3.42148 149.615 3.42148 148.656 3.42148C146.93 3.42148 145.779 5.13222 145.012 8.36362C144.436 11.2149 144.053 15.2066 143.861 20.3388V20.5289C143.861 23.3801 144.628 24.5206 148.081 24.5206H164.577C169.372 24.5206 172.25 22.2396 173.784 20.3388C175.51 18.0578 178.388 12.5454 179.347 7.79337C179.347 7.60329 179.73 7.22313 179.922 7.22313H181.457C181.84 7.22313 182.224 7.60329 182.224 7.98346V19.9586C182.224 19.9586 182.224 21.2892 182.224 21.4793C182.224 23.19 183.567 24.5206 185.293 24.5206C185.293 24.5206 187.595 24.5206 188.554 24.5206C188.554 24.5206 189.897 24.5206 190.088 24.5206C190.28 24.9008 190.472 25.2809 190.472 25.6611Z" fill="#131313"/>
<path d="M113.747 39.1568C112.021 35.5452 109.527 32.5039 106.65 30.413C103.773 28.3221 100.512 26.6114 97.2509 25.4709C90.5373 23.1899 83.4401 23.1899 76.7266 25.4709C73.4657 26.6114 70.2048 28.132 67.3276 30.413C64.4503 32.5039 61.9567 35.5452 60.2303 39.1568C58.504 42.7684 57.5449 47.1402 57.5449 51.7022C57.5449 60.446 60.614 67.289 66.5603 72.041C72.5066 76.7931 79.2202 79.074 86.5092 79.074C93.7982 79.074 100.512 76.7931 106.266 72.6113C109.144 70.5203 111.637 67.479 113.363 63.8675C115.09 60.2559 116.049 56.0741 116.049 51.5121C116.433 47.1402 115.665 42.7684 113.747 39.1568ZM95.1409 70.3303C93.4146 73.9418 90.921 75.6526 87.0846 75.6526C83.2483 75.6526 80.5629 73.9418 79.0284 70.3303C77.4938 66.7187 76.5347 60.446 76.5347 51.7022C76.5347 42.9584 77.302 36.6857 79.0284 32.8841C80.5629 29.2725 83.2483 27.5618 87.0846 27.5618C90.921 27.5618 93.6064 29.2725 95.1409 32.8841C96.8673 36.6857 97.6345 42.9584 97.6345 51.7022C97.8264 60.2559 96.8673 66.5286 95.1409 70.3303Z" fill="#131313"/>
<path d="M391.688 24.9H373.273C372.89 24.9 372.506 25.2802 372.506 25.6604V27.7513C372.506 28.1314 372.89 28.5116 373.273 28.5116H376.918C378.261 28.5116 379.22 28.8918 379.603 29.6521C379.987 30.2223 379.987 30.7926 379.795 31.5529L371.547 50.371C370.972 51.5115 370.012 52.2719 369.053 52.2719C368.094 52.2719 367.327 51.7016 366.752 50.9413L366.56 50.5611L357.353 32.5033C356.393 30.2223 356.969 28.7017 358.887 28.5116H359.654C360.038 28.5116 360.422 28.1314 360.422 27.7513V25.6604C360.422 25.2802 360.038 24.9 359.654 24.9H329.347C328.964 24.9 328.58 25.2802 328.58 25.6604V27.7513C328.58 28.1314 328.964 28.5116 329.347 28.5116H330.115C332.033 28.5116 333.375 29.2719 334.335 30.4124L335.869 33.2636C335.869 33.2636 335.869 33.2636 335.869 33.4537L356.393 71.8503C356.393 72.0404 356.585 72.0404 356.585 72.2305L356.777 72.6107C358.12 75.4619 358.503 79.8338 357.353 82.1148L354.667 88.1974C353.708 90.4784 352.557 91.6189 351.406 91.6189C350.255 91.6189 348.721 90.2883 347.186 88.0073C346.611 86.8668 345.46 85.9164 343.734 85.1561C342.199 84.2057 340.089 83.8255 337.787 83.8255C335.485 83.8255 333.375 84.7759 331.649 86.2966C329.923 88.0073 329.156 90.2883 329.156 93.1395C329.156 95.9908 330.306 98.2718 332.608 100.173C334.91 101.883 337.979 102.644 341.815 102.644C345.652 102.644 348.913 101.693 351.406 99.6023C353.708 97.7015 356.01 94.4701 358.12 89.9081L383.056 33.2636C383.056 33.0736 383.056 33.0736 383.248 32.8835L383.823 31.5529C384.782 29.8422 386.317 28.3215 388.811 28.3215H391.496C391.88 28.3215 392.263 27.9413 392.263 27.5612V25.4703C392.455 25.2802 392.263 24.9 391.688 24.9Z" fill="#131313"/>
<path d="M333.571 74.8928C333.379 74.7027 333.187 74.5126 332.803 74.5126C331.077 74.8928 329.351 74.3225 328.008 72.992C327.433 72.4217 326.665 70.711 326.665 65.9589V45.6201C326.665 37.6367 324.939 31.9342 321.486 28.8929C318.034 25.6615 312.087 24.1408 304.031 24.1408C295.975 24.1408 289.837 25.4714 285.808 28.3226C281.589 31.1739 279.479 34.5953 279.479 38.7771C279.479 41.2482 280.438 43.3391 282.164 45.2399C283.89 46.9507 286.192 47.9011 288.686 47.9011C291.179 47.9011 293.289 46.9507 295.016 45.2399C296.742 43.5292 297.701 41.4383 297.701 38.7771C297.701 37.6367 297.509 36.3061 296.934 34.5953C296.358 32.8846 295.975 31.7441 295.783 30.6036C295.591 29.8433 295.783 29.0829 296.55 28.5127C296.934 28.1325 298.277 27.5623 301.729 27.5623C304.415 27.5623 306.141 28.5127 306.908 30.6036C307.867 32.6945 308.251 37.0664 308.251 43.5292V44.6697V42.7689C308.251 46.3804 306.525 48.4713 302.496 49.2317C293.481 50.3722 287.151 52.273 283.315 54.9341C279.287 57.7854 277.177 61.9672 277.177 67.0994C277.177 71.0911 278.711 74.1325 281.397 76.2234C284.274 78.1242 287.727 79.2647 292.138 79.2647C297.509 79.2647 302.113 78.3143 305.757 76.4134C308.059 75.2729 309.977 75.2729 311.704 76.4134C311.704 76.4134 311.895 76.4134 311.895 76.6035C314.005 78.1242 317.266 78.8845 321.294 78.8845C324.172 78.8845 326.665 78.5044 328.775 77.9341C331.077 77.3639 332.612 76.6035 333.379 75.8432C333.762 75.463 333.762 75.0829 333.571 74.8928ZM297.126 56.0746C298.852 54.3639 301.154 53.2234 303.647 52.6532C305.182 52.4631 306.333 52.6532 307.292 53.4135C308.059 53.9837 308.443 54.9341 308.443 56.2647V68.2399C308.443 69.9506 308.059 70.5209 307.1 71.6614C305.949 72.6118 304.606 73.182 303.072 73.182C300.962 73.182 299.044 72.4217 297.509 71.0911C295.975 69.7606 294.824 67.6697 294.632 65.0085C294.248 61.0168 295.016 57.9755 297.126 56.0746Z" fill="#131313"/>
<path d="M52.174 50.9417C51.215 48.6607 49.8722 46.7599 48.7213 45.4293C47.3786 43.9087 44.5014 41.6277 41.816 40.2971C40.2814 39.7269 39.1305 39.1566 38.3633 38.7765C37.596 38.3963 35.1024 37.2558 31.0742 35.5451C30.1152 35.1649 28.7724 34.5946 26.6625 33.6442C24.5525 32.6938 23.018 32.1236 22.0589 31.5533C21.0998 30.9831 19.9489 30.4128 18.6062 29.4624C17.2635 28.512 16.1126 26.9914 15.7289 25.0905C15.1535 22.0492 16.3044 19.3881 17.6471 18.0575C19.1816 16.5368 20.7162 15.3963 25.5116 15.3963C30.307 15.3963 34.9106 17.2972 38.7469 20.5286C42.5832 23.76 44.6932 26.8013 44.6932 26.8013C44.885 26.9914 45.0768 27.1814 45.2686 27.1814H47.3786C47.7623 27.1814 48.1459 26.8013 48.1459 26.4211V12.7352C48.1459 12.355 47.7623 11.9749 47.3786 11.9749H45.2686C45.0768 11.9749 44.885 12.1649 44.6932 12.355L44.1177 12.7352C42.5832 14.636 40.8569 15.0162 38.1714 14.636C37.596 14.4459 36.8287 14.2558 36.2533 14.0658C32.2251 12.7352 27.6215 11.9749 22.6343 11.9749C17.4553 11.9749 12.8517 13.6856 8.82355 17.1071C4.79541 20.5286 2.49361 25.2806 1.91816 31.3632C1.34271 37.4459 3.45269 42.5781 8.43992 46.1897C10.7417 48.0905 14.9617 50.1814 20.7162 52.8425C26.4706 55.5037 30.4988 57.4045 32.8006 58.545C36.8287 60.826 38.5551 62.7268 38.9387 66.3384C39.1305 68.9995 38.1714 71.2805 36.4451 72.8012C34.7187 74.5119 32.417 75.2723 29.5397 75.2723C22.4425 75.2723 16.3044 72.8012 11.3172 68.0491C6.32994 63.2971 3.83633 57.7847 3.83633 57.7847C3.64451 57.5946 3.45269 57.4045 3.26088 57.4045H0.767265C0.383633 57.4045 0 57.7847 0 58.1648V77.3632C0 77.7433 0.383633 78.1235 0.767265 78.1235H2.87724C3.06906 78.1235 3.26088 78.1235 3.45269 77.9334L5.17904 76.2227C6.71357 74.702 8.63173 73.1814 10.9335 74.1318C11.1253 74.1318 11.3172 74.3218 11.509 74.5119C17.6471 77.5532 23.7852 79.264 29.9233 79.264C36.8287 79.264 42.3914 77.5532 46.4195 74.3218C50.4477 71.0904 53.5167 65.7681 53.9004 60.6359C54.0922 56.4541 52.9413 53.0326 52.174 50.9417Z" fill="#131313"/>
<path d="M280.435 24.9013H262.212C261.829 24.9013 261.445 25.2814 261.445 25.6616V27.7525C261.445 28.1327 261.829 28.5128 262.212 28.5128H266.049C268.351 28.7029 269.31 30.4136 268.351 33.2649L262.788 47.7111C261.637 49.9921 259.335 49.9921 258.184 47.7111L250.895 31.3641C250.512 30.2236 249.744 28.5128 251.854 28.3227H253.389C253.773 28.3227 254.156 27.9426 254.156 27.5624V25.4715C254.156 25.0913 253.773 24.7112 253.389 24.7112H225.192C224.808 24.7112 224.425 25.0913 224.425 25.4715V27.7525C224.425 28.1327 224.808 28.5128 225.192 28.5128H226.343C228.069 28.7029 228.645 29.4632 229.412 30.7938L233.824 40.2979L234.015 40.6781L231.33 47.7111C230.179 50.1822 227.686 49.9921 226.726 47.7111L226.918 47.9012L219.437 31.5541C219.054 30.4136 218.287 28.7029 220.397 28.5128H221.931C222.315 28.5128 222.698 28.1327 222.698 27.7525V25.6616C222.698 25.2814 222.315 24.9013 221.931 24.9013H193.734C193.35 24.9013 192.967 25.2814 192.967 25.6616V27.7525C192.967 28.1327 193.35 28.5128 193.734 28.5128H194.693C196.419 28.7029 196.995 29.4632 197.762 30.7938L202.174 40.2979L220.205 77.554C220.397 77.7441 220.588 77.9342 220.78 77.9342H223.082C223.274 77.9342 223.657 77.7441 223.657 77.554L234.015 50.5624C235.166 48.2814 237.276 48.4715 238.619 50.7524L251.663 77.7441C251.854 77.9342 252.046 78.1243 252.238 78.1243H254.54C254.732 78.1243 255.115 77.9342 255.115 77.7441L272.571 32.6946C273.721 30.2236 276.215 28.893 278.709 28.7029H280.243C280.627 28.7029 281.01 28.3227 281.01 27.9426V25.8517C281.202 25.2814 280.819 24.9013 280.435 24.9013Z" fill="#131313"/>
</svg>
