<svg width="199" height="70" viewBox="0 0 199 70" fill="none" xmlns="http://www.w3.org/2000/svg">
<g clip-path="url(#clip0)">
<path d="M43.4991 22.7526C43.5186 22.7386 43.5367 22.7228 43.5532 22.7053C43.5303 22.7142 43.5112 22.7309 43.4991 22.7526Z" fill="#AE6F2D"/>
<path d="M37.035 19.6229L37.1235 19.603C37.067 19.6005 37.0449 19.608 37.035 19.6229Z" fill="#AE6F2D"/>
<path d="M46.3835 25.8772H46.3638L46.526 26.1258L46.3835 25.8772Z" fill="#AE6F2D"/>
<path d="M22.7483 24.843L22.8072 24.761C22.7802 24.7983 22.7556 24.8157 22.7483 24.843Z" fill="#AE6F2D"/>
<path d="M30.684 19.8864C30.6563 19.9224 30.6187 19.9492 30.5759 19.9634C30.6348 19.9584 30.6791 19.9386 30.684 19.8864Z" fill="#AE6F2D"/>
<path d="M46.2901 28.4773L46.3245 28.3331C46.3035 28.3497 46.2887 28.373 46.2825 28.3992C46.2762 28.4253 46.2789 28.4529 46.2901 28.4773Z" fill="#AE6F2D"/>
<path d="M47.9878 32.0344L48.0075 32.0195C48.0075 32.0195 47.9927 32.022 47.9878 32.0344Z" fill="#AE6F2D"/>
<path d="M47.9657 30.3988C47.9418 30.3654 47.9155 30.3338 47.8871 30.3043C47.9092 30.3491 47.9264 30.4087 47.9657 30.3988Z" fill="#AE6F2D"/>
<path d="M47.8453 30.2596L47.8871 30.3043C47.8748 30.277 47.8625 30.2546 47.8453 30.2596Z" fill="#AE6F2D"/>
<path d="M49.9066 35.4028C49.9018 35.2749 49.8618 35.1509 49.7912 35.0448L49.9066 35.4028Z" fill="#AE6F2D"/>
<path d="M19.8098 38.8132L19.7632 38.7958C19.7828 38.8181 19.7975 38.8206 19.8098 38.8132Z" fill="#AE6F2D"/>
<path d="M49.0541 35.2112L49.0787 35.1267C49.0641 35.1526 49.0557 35.1815 49.0541 35.2112Z" fill="#AE6F2D"/>
<path d="M44.9855 26.9087C44.8454 26.8764 44.7889 26.6377 44.7177 26.6974C44.8012 26.7794 44.8553 26.9435 44.9855 26.9087Z" fill="#AE6F2D"/>
<path d="M24.1831 40.0884L24.2175 40.148C24.209 40.1265 24.1974 40.1064 24.1831 40.0884Z" fill="#AE6F2D"/>
<path d="M49.0541 35.2113L49.0271 35.3107C49.0444 35.3035 49.0609 35.2944 49.0762 35.2834C49.0641 35.2611 49.0565 35.2366 49.0541 35.2113Z" fill="#AE6F2D"/>
<path d="M30.5636 50.0863L30.3867 50.0739C30.4139 50.0877 30.4435 50.096 30.4739 50.0981C30.5043 50.1003 30.5348 50.0962 30.5636 50.0863Z" fill="#AE6F2D"/>
<path d="M49.7911 35.0498L49.7248 34.8459C49.7346 34.9174 49.757 34.9865 49.7911 35.0498Z" fill="#AE6F2D"/>
<path d="M39.2561 49.9197C39.2309 49.9289 39.2063 49.9397 39.1824 49.952C39.2091 49.9473 39.2344 49.9362 39.2561 49.9197Z" fill="#AE6F2D"/>
<path d="M31.281 19.7944C31.3047 19.797 31.3286 19.797 31.3522 19.7944C31.3522 19.7745 31.3449 19.7596 31.281 19.7944Z" fill="#AE6F2D"/>
<path d="M27.6424 24.1271C27.6013 24.1544 27.5673 24.1912 27.5429 24.2344C27.5186 24.2776 27.5047 24.326 27.5023 24.3757C27.5415 24.3464 27.5742 24.3092 27.5984 24.2664C27.6225 24.2236 27.6375 24.1761 27.6424 24.1271Z" fill="#AE6F2D"/>
<path d="M27.0257 24.6814H27.0576C27.0472 24.6783 27.0361 24.6783 27.0257 24.6814Z" fill="#AE6F2D"/>
<path d="M30.7626 22.8371C30.7374 22.8247 30.7095 22.8187 30.6815 22.8197C30.7064 22.8329 30.7345 22.839 30.7626 22.8371Z" fill="#AE6F2D"/>
<path d="M23.2716 35.6463C23.1899 35.1427 23.1366 34.6348 23.1119 34.125C23.0959 33.8609 23.0959 33.5961 23.1119 33.332C23.1414 33.0835 23.1782 32.8349 23.2249 32.6037C23.1449 32.4876 23.1013 32.3499 23.0996 32.2085C23.0996 32.0692 23.1291 31.9226 23.1438 31.771L23.4092 31.8058L23.3871 31.5572C23.4878 31.4826 23.3871 31.7536 23.5296 31.6094L23.392 31.4751C23.4902 31.4751 23.6033 30.881 23.6893 31.3335C23.7679 31.0302 23.8981 30.7443 23.9964 30.4485C24.075 30.2546 23.8318 30.2496 23.9718 30.0558C24.0578 30.0408 23.9915 30.1552 24.0873 30.1751C24.1743 30.0747 24.2347 29.9536 24.2626 29.8231C24.2906 29.6927 24.2852 29.5571 24.247 29.4293C24.2218 29.3084 24.2103 29.185 24.2126 29.0614C24.2185 28.919 24.2773 28.7841 24.3772 28.6836V28.7482C24.3772 28.6165 24.4951 28.4375 24.4632 28.4151C24.188 28.3505 24.5271 28.5916 24.2863 28.6861C24.0971 28.5568 24.3133 28.4052 24.1585 28.3281C24.3108 28.2337 24.2494 28.0795 24.3108 27.9577C24.4248 27.881 24.5225 27.7822 24.5983 27.6669C24.6748 27.5613 24.785 27.4858 24.9103 27.4531C24.9103 27.3189 24.8219 27.0803 24.9644 26.869C25.2101 26.8342 25.0725 27.0082 25.269 26.854L25.1904 26.7372C25.3255 26.5906 25.3427 26.6477 25.382 26.69C25.5295 26.5359 25.3648 26.4414 25.6081 26.2947V26.4911C25.7039 26.3313 25.8251 26.1885 25.9668 26.0685C26.0159 26.1257 25.9398 26.2053 25.871 26.25C26.1167 26.2724 25.9791 26.0014 26.0479 25.9567C25.9914 25.9318 25.8464 26.0586 25.8022 25.897C25.9103 25.81 25.8734 25.549 26.0479 25.5962L26.0257 25.7901C26.1633 25.5217 26.0257 25.5664 26.3034 25.38C26.3034 25.3999 26.3255 25.4173 26.3402 25.4421C26.382 25.1761 26.6842 25.0991 26.9225 24.9052C26.9133 24.9263 26.9051 24.9479 26.8979 24.9698C26.9667 24.858 26.9495 24.7212 27.011 24.6914C26.8218 24.7386 26.8341 24.6914 26.7432 24.592C27.0675 24.6193 26.8807 24.1719 27.2738 24.0352C27.2859 24.0552 27.2924 24.0782 27.2925 24.1017C27.2926 24.1252 27.2864 24.1483 27.2746 24.1685C27.2627 24.1887 27.2456 24.2053 27.2251 24.2164C27.2046 24.2275 27.1816 24.2327 27.1584 24.2315C27.1854 24.4801 27.2861 24.6541 27.1584 24.8729C27.2419 24.7486 27.3574 24.6243 27.3844 24.7163L27.2984 24.5249C27.3648 24.4677 27.4262 24.4354 27.4802 24.3956C27.4335 24.2638 27.21 24.3285 27.3254 24.147C27.4409 23.9656 27.5466 24.2464 27.522 24.147C27.7308 23.8984 27.4974 23.8736 27.7996 23.7692C27.7824 23.799 27.7505 23.8612 27.7185 23.8587C27.9642 23.8139 28.1632 23.5405 28.3475 23.7219C28.3475 23.7866 28.3819 23.8537 28.3008 23.8785L28.2836 23.8462C28.1755 24.1246 28.4286 23.6996 28.4802 23.9308C28.3966 23.8239 28.6718 23.6822 28.7996 23.6399L28.689 23.5281C28.8733 22.8991 28.8069 23.799 29.1804 23.5455C29.3892 23.3292 29.0625 23.5455 29.1804 23.3839C29.3671 23.3217 29.4875 23.4137 29.7135 23.2298C29.8069 23.2521 29.9838 23.2571 30.0624 23.4087C30.1853 23.2745 30.5538 23.3043 30.5906 23.1104C30.2712 23.0806 30.3867 23.359 29.9936 23.2919L30.0157 23.098C30.2393 23.0259 30.5071 22.8494 30.6668 22.8494C30.6476 22.8429 30.6312 22.83 30.62 22.8129C30.6089 22.7958 30.6038 22.7754 30.6054 22.755C30.9051 22.5859 30.9395 22.3597 31.281 22.3349C31.367 22.4766 31.168 22.489 31.0353 22.5511C31.281 22.6009 31.2515 22.5014 31.5857 22.4641C31.6373 22.5884 31.367 22.5114 31.367 22.6456L31.7061 22.5138C31.705 22.5229 31.705 22.5321 31.7061 22.5412C31.7061 22.31 31.9788 22.4915 32.1778 22.3697C32.6888 22.2603 32.7208 21.9744 32.9935 21.7433C33.0819 21.7905 33.1139 21.8452 33.0868 21.9048C32.9443 21.8278 32.9763 21.9048 32.9394 21.967C33.1188 21.9148 33.3595 22.1236 33.2711 22.2305C33.5414 22.1211 33.1556 22.1285 33.3178 22.0316C33.4469 22.0105 33.5776 22.0005 33.7084 22.0018C33.6519 21.8899 33.5094 21.8725 33.7084 21.7756C33.8705 21.7465 34.0356 21.7381 34.1998 21.7507C34.1703 21.8079 34.2784 21.9197 34.1113 21.9222C34.2219 21.9595 34.389 21.957 34.4504 21.8427C34.2047 21.7507 34.8533 21.7209 34.6666 21.5518C34.7501 21.5808 34.8321 21.614 34.9123 21.6513C34.8558 21.6513 34.8484 21.7209 34.7649 21.7035C34.8361 21.8675 34.9688 21.6562 35.0572 21.6438C35.1432 21.6811 35.3717 21.7085 35.3865 21.7756C35.4675 21.7333 35.6567 21.7756 35.6862 21.87C35.8041 21.8402 35.7034 21.7557 35.7403 21.701C35.8729 21.7159 36.0056 21.7184 36.1358 21.7408C36.1481 21.8402 36.153 22.1111 36.0916 22.1385C36.2464 22.0714 36.1727 21.8626 36.3962 21.9048C36.2464 22.0714 36.669 22.0913 36.4577 22.2852C36.5658 22.4393 36.9122 22.484 37.1161 22.4616C37.2635 22.3349 36.9196 22.3498 36.9589 22.2131C37.1659 22.22 37.3713 22.1738 37.5559 22.0788C37.6284 22.0323 37.7111 22.0043 37.7967 21.9974C37.8823 21.9905 37.9683 22.0048 38.0473 22.0391L37.949 21.9719C38.0994 21.9829 38.2497 21.9492 38.3814 21.875C38.32 21.957 38.3618 22.0962 38.4674 22.2255C38.5853 22.385 38.7534 22.4989 38.944 22.5486C39.0104 22.4691 38.7721 22.3001 38.8851 22.1783L39.1701 22.2454C39.1848 22.2678 39.143 22.2876 39.1013 22.2976C39.3715 22.32 39.4723 22.6829 39.6197 22.5014L39.7548 22.8668L39.7057 22.7152C39.772 22.6431 40.0472 22.7376 40.1184 22.7301C40.2206 22.727 40.3212 22.7562 40.4062 22.8137C40.4912 22.8712 40.5564 22.9541 40.5926 23.0508C40.5803 22.9613 40.5386 22.7475 40.767 22.8196C40.6295 23.0906 41.1454 23.1651 41.0643 23.2994C41.1479 23.3441 41.2461 23.5082 41.31 23.4038L41.2019 23.5604C41.3469 23.3491 41.6564 23.5082 41.8923 23.6275C41.6466 23.896 42.138 23.7717 42.0618 24.1097C42.2387 23.9382 42.4967 24.2962 42.6564 24.1545C42.8284 24.2688 42.6711 24.4428 42.6564 24.5348H42.7841C42.7841 24.6914 43.0667 24.9474 43.1871 25.1488L43.4868 25.1214V25.2482C43.5458 25.2308 43.6907 25.3327 43.6686 25.196L43.7399 25.2855C43.9069 25.1214 43.8971 25.3526 44.1305 25.4446C44.1305 25.5092 44.0912 25.5391 44.0347 25.5266C44.1133 25.6087 43.9929 25.6584 43.9806 25.7578C43.9634 25.6559 44.5752 25.7578 44.4303 25.462C44.4818 25.38 44.6759 25.462 44.7153 25.5763L44.6047 25.7727L44.8504 25.7305C44.9904 25.8498 44.9388 25.9989 45.0125 26.1257C44.9069 26.0188 44.499 26.1406 44.7423 26.424C44.6246 26.3386 44.4908 26.2785 44.3492 26.2475C44.3909 26.3121 44.3983 26.3544 44.2583 26.3221C44.4892 26.4986 44.4155 26.3221 44.617 26.511C44.4647 26.6204 44.4696 26.7223 44.5752 26.9485V26.7223C44.5951 26.7151 44.6168 26.7151 44.6366 26.7223C44.6222 26.6967 44.617 26.6669 44.6219 26.6378C44.6268 26.6088 44.6416 26.5824 44.6637 26.5632C44.6956 26.6055 45.0568 26.6701 45.0003 26.7795C45.0199 26.5781 45.1501 26.6353 45.2681 26.7248C45.386 26.8143 45.4941 26.9286 45.5137 26.7969C45.5752 26.7969 45.7029 26.9585 45.639 27.0305C45.3934 26.9112 45.5702 27.3089 45.44 27.3512C45.5359 27.3935 45.44 27.1026 45.5727 27.1722C45.6367 27.2833 45.6569 27.4147 45.6292 27.5401L45.5653 27.5103L45.6218 27.739C45.7201 27.7191 45.6218 27.473 45.7889 27.6147C45.7889 27.6793 45.9363 27.8335 45.8675 27.8633C45.7078 27.8484 45.6046 27.9975 45.4843 27.8633C45.5727 27.9751 45.8086 28.3604 45.8724 28.1119L45.9511 28.266C45.9683 28.1342 45.9388 27.7887 46.1329 28.0845L46.0985 28.0994L46.3442 28.2411L46.3122 28.3828C46.3515 28.358 46.408 28.3828 46.4523 28.4499C46.413 28.4996 46.4351 28.5842 46.3663 28.614C46.5039 28.8377 46.5653 28.783 46.6341 28.788C46.7053 28.9173 46.693 28.9844 46.5653 28.9719C46.6243 29.1658 46.7938 29.4691 46.7569 29.6406C46.9461 29.8519 46.7717 29.5735 46.9535 29.668C46.7496 30.006 47.1304 30.5479 47.322 30.9531C47.5677 30.7543 47.3859 31.0575 47.6512 31.0675C47.5431 31.0004 47.5382 31.5373 47.3687 31.1818L47.4522 31.4031C47.3392 31.5969 47.2483 31.06 47.096 31.3509C47.1648 31.5994 47.5112 31.6864 47.4842 32.0121C47.2606 31.9524 47.607 32.2259 47.3687 32.1985C47.2827 32.1513 47.2827 32.0643 47.2458 31.9847L47.2213 32.0444C47.2778 32.6062 47.4891 32.1562 47.6758 32.4272C47.7544 32.7727 47.5603 32.7255 47.4694 32.7628C47.4375 32.82 47.494 32.9865 47.5603 33.071C47.5311 33.0378 47.5135 32.9959 47.51 32.9517C47.5065 32.9074 47.5174 32.8632 47.5411 32.8257C47.5647 32.7883 47.5998 32.7597 47.641 32.7443C47.6821 32.7289 47.7271 32.7276 47.7692 32.7404C47.5628 32.9293 47.8281 33.2599 47.9338 33.3494C48.1008 32.815 47.8945 33.0014 48.0812 32.4819C48.0001 32.4272 47.7962 32.4819 47.8355 32.1761C47.9633 32.3352 47.9485 32.1413 47.9731 32.0842C47.8699 32.1612 47.8773 31.8977 47.8085 31.8232C47.8822 31.7212 48.118 31.9325 48.0959 31.6317H47.8085C47.8085 31.5099 48.0198 31.6317 47.8945 31.408C48.0689 31.5025 48.1057 31.3111 48.2311 31.6317C48.3662 31.1793 47.9583 31.0526 47.7839 30.7866C47.8109 30.8114 47.8453 30.804 47.8723 30.8288C47.7864 30.7841 47.7446 30.6722 47.7028 30.5803C47.7028 30.3665 47.8773 30.6971 47.9313 30.6225L47.8158 30.3068C47.8172 30.3035 47.8192 30.3004 47.8217 30.2979C47.8243 30.2953 47.8273 30.2933 47.8306 30.2919C47.7667 30.2198 47.7151 30.1502 47.7692 30.098C47.8707 30.142 47.9749 30.1794 48.0812 30.2099L47.779 29.9364C47.8797 29.9364 47.833 29.5984 47.9804 29.8196C47.9043 29.6555 47.8478 29.4865 47.7593 29.3224L47.9141 29.2081C47.8306 29.1037 47.7937 29.1161 47.8355 29.2653C47.7986 29.0763 47.2016 28.6662 47.5898 28.5916C47.2852 28.271 47.2606 28.1168 46.9264 27.7216C47.2704 27.9702 46.8945 27.2244 47.1721 27.5401C47.123 27.2915 46.9264 27.3438 46.8011 27.1946C46.779 26.9933 46.9756 26.9609 47.1328 27.0977C47.0689 27.0479 47.01 26.9933 46.9436 26.9435L46.9756 26.9261L46.7717 26.8192C46.7348 26.5856 46.9043 26.6751 46.8011 26.4762L46.6341 26.5334V26.3544C46.6046 26.4439 46.5014 26.3544 46.4007 26.2326L46.4326 26.2127L46.295 26.071C46.4867 26.168 46.2238 25.9045 46.3687 25.902C46.2822 25.7689 46.1762 25.6499 46.0543 25.549L45.9977 25.6609C45.671 25.4247 46.1206 25.5415 45.9216 25.288L45.8356 25.3874C45.7803 25.1828 45.6527 25.0059 45.4769 24.8903C45.3246 24.7859 45.1698 24.7088 45.1034 24.5373C45.2607 24.6541 45.3368 24.5124 45.3074 24.5373C45.0617 24.3658 44.7546 23.9904 44.4229 23.9084C44.456 23.8147 44.4617 23.7133 44.4395 23.6163C44.4173 23.5194 44.368 23.4309 44.2976 23.3615C44.1133 23.2223 44.0765 23.2148 43.9487 23.2546C43.8657 23.1476 43.768 23.053 43.6588 22.9737C43.5507 22.8967 43.4672 22.832 43.504 22.7724C43.3959 22.832 43.3517 22.6381 43.1969 22.6456V22.5835L43.1379 22.7053C43.1119 22.6138 43.0622 22.5309 42.994 22.4654C42.9257 22.3998 42.8414 22.3539 42.7497 22.3324C42.6606 22.3148 42.576 22.2785 42.5016 22.2258C42.4271 22.1731 42.3643 22.1053 42.3173 22.0266H42.396L42.224 21.9893C42.224 21.9247 42.3075 21.9272 42.3517 21.8651L41.6835 21.4574L41.767 21.6264C41.6171 21.5618 41.4697 21.6115 41.3346 21.4624C41.7056 21.4126 41.1036 21.348 41.1233 21.1864L41.3002 21.2088C41.084 21.1243 41.084 21.1243 41.0545 21.256C40.767 21.174 40.9734 20.9379 40.6639 20.9553L40.8407 21.0423C40.8604 21.1367 40.6909 21.179 40.5754 21.1243C40.5557 21.092 40.4943 21 40.5901 21.0249C40.4648 20.9883 40.343 20.9401 40.2265 20.8807C40.1373 20.8363 40.0406 20.8094 39.9415 20.8011C39.8359 20.7216 39.9071 20.6445 39.9858 20.6346C39.4723 20.5799 39.7769 20.5352 39.2659 20.483L39.2954 20.4134L39.1062 20.4432C39.0468 20.3648 38.9828 20.2901 38.9146 20.2195L38.9735 20.3338C38.8187 20.3349 38.6651 20.3054 38.5215 20.2468L38.6246 20.1573C38.1578 20.1076 38.1333 19.8416 37.6714 19.9087C37.6443 19.8839 37.7205 19.859 37.7574 19.8516C37.32 19.956 37.4822 19.603 37.0326 19.7546C37.0645 19.7198 37.0326 19.6676 37.0473 19.6378L36.8483 19.6825L36.8827 19.5359L36.7009 19.7347L36.6026 19.5632L36.5215 19.6254C36.3496 19.2947 36.0302 19.5135 35.7845 19.2773L35.8213 19.4712C35.6446 19.5564 35.4491 19.5941 35.2538 19.5806C35.0597 19.5806 34.8558 19.5234 34.6445 19.5011C34.2204 19.4014 33.7809 19.3896 33.3522 19.4663V19.3146L33.0205 19.5433C32.8166 19.4538 33.1163 19.3967 33.05 19.3295C32.6814 19.4687 32.9198 19.5781 32.4947 19.685C32.249 19.6179 32.5537 19.5632 32.6495 19.4911C32.4505 19.5607 32.2048 19.6378 31.9739 19.695C31.7793 19.7576 31.5781 19.7968 31.3744 19.8118C31.3744 19.8342 31.3596 19.864 31.3744 19.869C31.081 19.979 30.7784 20.0622 30.4702 20.1175C30.4702 20.0479 30.5268 20.0181 30.5956 19.9858C30.4874 20.0032 30.3278 19.9858 30.2639 20.1001L30.3327 19.9361C30.1017 19.9908 29.716 20.2592 29.6153 20.1325C29.6619 20.1797 29.689 20.2891 29.4973 20.3537C29.3106 20.1822 29.0059 20.6197 28.6816 20.6594C28.6816 20.5923 28.9028 20.478 28.8413 20.5053C28.6694 20.5202 28.5809 20.6843 28.4826 20.8111V20.7067L27.8414 21.1293C27.6252 20.9577 27.2419 21.5146 27.2026 21.3381C26.9569 21.4723 27.4483 21.3082 27.1707 21.5096C27.0429 21.4748 26.925 21.7109 26.866 21.5742L26.8881 21.5394L26.6916 21.6761L26.7407 21.4698C26.6733 21.5187 26.6223 21.5873 26.5946 21.6664C26.5669 21.7456 26.5639 21.8314 26.5859 21.9123C26.3697 21.9371 26.1953 22.1609 26.0454 22.1087L26.0823 22.0366C25.6867 22.4144 25.0995 22.2528 24.9202 22.7401C24.8833 22.7401 24.8612 22.7152 24.9202 22.6705L24.6597 22.8942V22.755L24.3231 23.277L24.2789 23.2173C24.1011 23.3582 23.9366 23.5155 23.7875 23.6871L23.2962 24.2837L23.3158 24.2042C23.0578 24.6815 22.9055 24.5273 22.7409 24.8977C22.7347 24.88 22.7347 24.8607 22.7409 24.843L22.5345 25.1264V25.0195C22.51 25.3253 21.9228 25.4943 22.1267 25.4446C22.0972 25.6087 22.0186 25.8622 22.0702 25.9418C21.8785 26.2699 21.9424 25.9666 21.7655 26.1332C21.6156 26.3668 21.6992 26.4762 21.4486 26.7621L21.3896 26.7173C21.311 26.8764 21.2987 26.9957 21.1881 27.2145C21.1881 27.1847 21.1881 27.1598 21.1881 27.1325C21.1488 27.56 20.7729 27.4805 20.9425 27.9105C20.8147 28.0348 20.7238 28.3406 20.5911 28.266C20.5223 28.5146 20.483 28.7308 20.4363 28.9496C20.3897 29.1683 20.3405 29.3846 20.2865 29.6257C20.026 29.6257 20.2644 29.7301 20.0408 29.9663L20.1735 29.9861C20.0658 30.3423 19.926 30.6876 19.7558 31.0178C19.6698 31.1953 19.5943 31.378 19.5298 31.5646C19.475 31.7529 19.438 31.946 19.4192 32.1413H19.262L19.3823 32.3178C19.3357 32.5241 19.289 32.7429 19.2398 32.9691C19.1907 33.1953 19.1833 33.4315 19.1588 33.6602C19.1072 34.0724 19.0818 34.4875 19.0826 34.9031C19.222 35.179 19.2984 35.4831 19.3062 35.793L19.2865 35.7582C19.3676 36.3572 19.5543 36.9663 19.5691 37.6275C19.5076 37.5977 19.4806 37.6697 19.4339 37.6051C19.5961 37.7319 19.5003 37.983 19.5371 38.1222L19.5961 37.9407C19.6594 38.0171 19.6975 38.1117 19.705 38.2111C19.7125 38.3105 19.689 38.4098 19.6379 38.495L19.8491 38.7436C19.8491 38.766 19.8295 38.8008 19.8098 38.8107L19.8909 38.843L19.7607 39.0419C19.8148 39.104 19.9499 39.4719 20.1587 39.5391C20.1145 39.5813 20.1587 39.8572 20.0629 39.6658L20.3921 40.695V40.5185C20.5125 40.4489 20.6869 40.7223 20.7066 40.8913C20.515 40.7372 20.5248 40.951 20.4757 41.0753C20.6034 41.1797 20.5297 40.9137 20.6304 40.9535C20.8028 41.103 20.9255 41.3027 20.9818 41.5252L20.886 41.4482C21.0383 41.6495 20.886 41.8583 20.999 42.0771C21.1832 42.2287 21.1857 42.4126 21.3626 42.2635C21.5641 42.5121 21.2889 42.445 21.3233 42.5444C21.4928 42.619 21.6623 43.0415 21.5935 43.146C21.7803 43.131 21.8638 43.3299 21.94 43.5238C22.0161 43.7177 22.1021 43.8842 22.2348 43.8271L22.2618 44.1328C22.3213 44.0956 22.3916 44.0803 22.4609 44.0893C22.5303 44.0984 22.5944 44.1313 22.6426 44.1825C22.6967 44.3913 22.564 44.4311 22.5419 44.533L22.8392 44.4659C22.9656 44.7514 23.131 45.0175 23.3305 45.2564C23.5289 45.5257 23.7457 45.7808 23.9792 46.0195C24.4705 46.4943 24.9619 46.989 25.4017 47.4513C25.6474 47.5955 25.925 47.7621 26.2174 47.9137C26.5197 48.0576 26.8112 48.2238 27.0896 48.4109H27.0085C27.1785 48.5511 27.3556 48.6822 27.5392 48.8036C27.4149 48.6961 27.2976 48.5807 27.1879 48.4581C27.3161 48.4886 27.4418 48.5293 27.5638 48.5799C27.8922 48.8216 28.2325 49.0465 28.5834 49.2535C28.9791 49.4679 29.405 49.6197 29.8462 49.7035C30.4776 49.5916 30.1189 50.1087 30.7159 50.0266C30.6619 50.0415 30.6324 50.0813 30.5833 50.1012C30.8855 50.1261 31.1164 50.1435 31.3474 50.1509C31.6048 50.1634 31.8629 50.1459 32.1164 50.0987C31.9935 50.407 32.4947 50.1509 32.4136 50.31L32.4824 50.1882C32.5979 50.2876 32.8976 50.3622 32.8411 50.4368L33.1188 50.315V50.4517C33.4603 50.5139 34.1998 50.4194 34.3718 50.7003C34.8042 50.6406 35.3545 50.5685 35.9294 50.5337C36.5044 50.4989 37.1038 50.4293 37.6493 50.3771C37.8558 50.2519 38.0817 50.1629 38.3175 50.1136L38.6074 50.2031C38.8408 50.0938 39.0399 49.8327 39.2905 49.8725C39.2929 49.881 39.2928 49.89 39.2901 49.8984C39.2875 49.9068 39.2825 49.9142 39.2757 49.9197C39.5214 49.8327 39.7671 49.8228 39.9391 49.6016C40.1995 49.5146 40.482 49.5021 40.4526 49.6712C40.3862 49.4226 41.0226 49.4972 41.0226 49.4972C41.0226 49.4972 41.0766 49.4798 41.1749 49.4375L41.5975 49.2511C42.1178 49.0405 42.622 48.7913 43.106 48.5053C44.6615 47.6147 46.0403 46.4397 47.1721 45.0401C48.4617 43.4757 49.3856 41.6369 49.8747 39.6609C49.9751 39.2279 50.0522 38.7898 50.1057 38.3484C50.1636 37.9585 50.185 37.564 50.1695 37.1701C50.1724 36.8375 50.1511 36.5052 50.1057 36.1758C50.058 35.9138 49.9898 35.6562 49.9017 35.4052C49.7789 35.2859 49.7101 34.9776 49.5504 35.0895C49.5135 34.8558 49.747 34.7464 49.6192 34.7017C49.5185 35.0199 49.2875 34.6023 49.1131 34.908L49.091 34.7141C49.0001 34.6719 49.1819 34.9801 49.0173 34.9304L49.2629 34.9901C49.2534 35.0494 49.2322 35.1061 49.2006 35.1569C49.1689 35.2077 49.1274 35.2516 49.0787 35.2859C49.1671 35.435 49.489 35.5543 49.3244 35.9048V35.8054C49.3244 36.0987 49.1598 35.9695 49.1155 36.0266V35.9645C49.0713 36.0415 49.0295 36.1186 48.9804 36.1957C49.0762 36.0192 48.892 35.6985 48.8993 35.8601C48.8133 36.1932 48.9607 35.7756 48.9779 36.0341C48.9779 36.1957 48.8551 36.1385 48.7814 36.1236C48.7814 36.218 48.7617 36.31 48.7519 36.4045C48.6413 36.3796 48.7839 36.2205 48.6512 36.32L48.7175 36.6854C48.4251 36.7077 48.7961 37.0906 48.5062 37.2074C48.4767 36.9439 48.4079 37.2074 48.3244 37.1552L48.2851 37.4609C48.2704 37.5629 48.2433 37.6623 48.2212 37.7617C48.1672 37.8089 48.1745 37.5852 48.1672 37.6797C48.0615 37.7741 48.1868 37.8786 48.1672 37.9283C48.0787 37.9606 48.0566 38.3732 47.8797 38.3061C47.6537 38.669 48.0763 38.5547 47.8601 38.8828C47.7421 38.8977 47.9239 38.582 47.7618 38.7113C47.7397 38.843 47.7004 38.9599 47.6709 39.0991C47.6316 39.0469 47.521 38.9673 47.5947 38.8356C47.3689 39.2395 47.083 39.6059 46.7471 39.9219C46.4256 40.188 46.1832 40.539 46.0469 40.9361C45.8552 40.9783 46.0223 40.8143 45.9756 40.6875C45.9437 40.8187 45.8862 40.9422 45.8065 41.0506C45.7267 41.159 45.6264 41.2503 45.5113 41.3189C45.3024 41.4432 45.1176 41.6049 44.9659 41.7962L45.0543 41.8707C44.8739 41.9738 44.7085 42.1018 44.5629 42.2511C44.4155 42.3977 44.2878 42.5668 44.133 42.7184L43.6883 43.1957C43.6156 43.2762 43.5385 43.3526 43.4573 43.4244C43.3721 43.4918 43.2835 43.5548 43.192 43.6133H43.3197C43.2768 43.7706 43.2033 43.9176 43.1035 44.0458C43.0495 44.016 43.0175 43.7972 42.8579 43.9986C42.9217 43.9986 43.0274 43.9538 43.0421 44.0185C42.5638 44.243 42.1051 44.5083 41.6712 44.8114C41.1312 45.1436 40.56 45.4208 39.9661 45.6392C39.792 45.7422 39.6115 45.8335 39.4256 45.9126L38.8482 46.1214C38.4579 46.2595 38.0569 46.3643 37.6493 46.4347C37.2486 46.5186 36.8433 46.5784 36.4356 46.6136C36.0375 46.6907 35.6322 46.6683 35.2464 46.718C35.4921 46.6957 35.3938 46.9815 35.2096 46.9268C35.1111 46.8349 34.9881 46.7743 34.8558 46.7528C34.7487 46.7317 34.6386 46.7317 34.5315 46.7528C34.4183 46.7852 34.2996 46.793 34.1832 46.7759C34.0668 46.7588 33.9552 46.717 33.8558 46.6534C33.6342 46.6751 33.4105 46.6575 33.1949 46.6012C32.9836 46.554 32.7773 46.4968 32.5733 46.4496C32.1776 46.2858 31.748 46.2234 31.3228 46.2681L31.3474 46.1364C31.2491 46.032 31.1877 46.109 31.0599 46.0767L31.0746 46.0419C30.8019 45.8828 30.399 45.8828 30.254 45.761L30.1853 45.8952C30.0108 45.8232 30.1435 45.7436 29.9396 45.7386L29.9764 45.6715L29.716 45.7038C29.8487 45.4727 29.2467 45.4553 29.1706 45.2788C28.8266 45.1729 28.5003 45.0154 28.2025 44.8114C28.2173 44.6623 27.8635 44.3839 27.6768 44.1602C27.5471 44.0843 27.4216 44.0013 27.3009 43.9116L26.9078 43.576L26.5024 43.2131C26.3795 43.0763 26.2567 42.9347 26.156 42.793L26.038 42.9197L25.9054 42.788C25.9348 42.7656 25.9324 42.7333 25.9643 42.7433C26.0184 42.4947 25.6204 42.4698 25.6326 42.2635C25.5663 42.44 25.6892 42.3878 25.7579 42.4673C25.8022 42.6314 25.5688 42.6388 25.5123 42.4151L25.5442 42.3952L25.3894 42.3356C25.4828 42.2386 25.4558 42.087 25.5516 42.0025C25.3665 41.7946 25.1679 41.5994 24.957 41.4183C24.7588 41.2161 24.593 40.9838 24.4656 40.7298C24.6253 40.7124 24.2027 40.3519 24.4951 40.3395C24.2494 40.0412 24.3379 40.4936 24.102 40.4215C24.0602 40.3221 23.9472 40.2525 24.0258 40.1903C24.102 40.2077 24.129 40.0412 24.1855 40.1083L24.0578 39.8871C24.0578 39.8572 24.1217 39.8871 24.1511 39.9094C23.9931 39.7266 23.8937 39.4995 23.8661 39.2582C23.8502 39.0317 23.7747 38.8137 23.6475 38.6268C23.5468 38.6268 23.6843 38.8082 23.5861 38.8082C23.247 38.4229 23.5861 38.3683 23.36 37.983L23.505 38.0352C23.3871 37.9258 23.2593 37.891 23.306 37.6399C23.446 37.5653 23.4755 37.799 23.5713 37.8885C23.5394 37.7344 23.4018 37.359 23.2986 37.5082C23.2028 37.3342 23.3158 37.2372 23.3305 37.1303C23.2937 37.1303 23.2765 37.3242 23.1807 37.2298C23.1941 36.9013 23.1744 36.5723 23.1217 36.2479C23.161 36.2479 23.2126 36.2156 23.2347 36.2479C23.0013 35.9943 23.3232 35.9844 23.2716 35.6463Z" fill="#AE6F2D"/>
<path d="M31.8706 22.5114H31.7355C31.7425 22.5334 31.7428 22.5571 31.7362 22.5793C31.7296 22.6015 31.7165 22.6211 31.6987 22.6356L31.8706 22.5114Z" fill="#AE6F2D"/>
<path d="M26.355 25.4321C26.3512 25.4527 26.3512 25.4737 26.355 25.4943C26.3612 25.4851 26.3645 25.4743 26.3645 25.4632C26.3645 25.4521 26.3612 25.4413 26.355 25.4321Z" fill="#AE6F2D"/>
<path d="M25.4926 26.7247C25.5418 26.6228 25.4459 26.6676 25.3796 26.6825C25.3939 26.6979 25.4116 26.7097 25.4312 26.7171C25.4508 26.7244 25.4718 26.727 25.4926 26.7247Z" fill="#AE6F2D"/>
<path d="M35.4086 21.7457C35.3964 21.7518 35.3863 21.7614 35.3797 21.7734C35.3731 21.7854 35.3703 21.7992 35.3717 21.8128C35.4037 21.7855 35.4135 21.7656 35.4086 21.7457Z" fill="#AE6F2D"/>
<path d="M44.273 26.0412C44.2714 26.0263 44.2714 26.0113 44.273 25.9965C44.2673 26.0108 44.2673 26.0269 44.273 26.0412Z" fill="#AE6F2D"/>
<path d="M44.0519 25.472C44.0229 25.4444 43.9897 25.4218 43.9536 25.4049C43.9648 25.4221 43.9793 25.4368 43.9961 25.4484C44.013 25.4599 44.0319 25.4679 44.0519 25.472Z" fill="#AE6F2D"/>
<path d="M32.9664 21.9371C32.9281 21.9455 32.8941 21.9675 32.8706 21.9993C32.8901 21.9968 32.9089 21.9899 32.9255 21.9791C32.942 21.9684 32.956 21.954 32.9664 21.9371Z" fill="#AE6F2D"/>
<path d="M43.8479 25.3551L43.757 25.2407L43.7349 25.2606L43.8479 25.3551Z" fill="#AE6F2D"/>
<path d="M44.3737 26.1928C44.336 26.1452 44.3023 26.0945 44.273 26.0411C44.2753 26.0731 44.2858 26.1039 44.3034 26.1305C44.3211 26.1571 44.3453 26.1786 44.3737 26.1928Z" fill="#AE6F2D"/>
<path d="M39.1135 22.2554H39.0963C38.971 22.2802 39.0448 22.2753 39.1135 22.2554Z" fill="#AE6F2D"/>
<path d="M43.2239 25.109L43.2141 25.0941L43.1551 25.0991L43.2239 25.109Z" fill="#AE6F2D"/>
<path d="M44.7152 26.6974C44.6972 26.6791 44.6741 26.6669 44.6489 26.6626L44.6858 26.7322C44.693 26.7186 44.703 26.7067 44.7152 26.6974Z" fill="#AE6F2D"/>
<path d="M40.9685 23.3392C41.0114 23.3226 41.0488 23.2942 41.0766 23.2571C41.0299 23.2372 40.9955 23.2447 40.9685 23.3392Z" fill="#AE6F2D"/>
<path d="M49.086 15.1062C49.1107 15.0995 49.1329 15.0857 49.1499 15.0664C49.1131 15.0763 49.0934 15.0888 49.086 15.1062Z" fill="#AE6F2D"/>
<path d="M38.433 10.2265H38.5755C38.4846 10.2041 38.4477 10.2116 38.433 10.2265Z" fill="#AE6F2D"/>
<path d="M53.9114 20.1847C53.9114 20.1847 53.8966 20.1847 53.8892 20.1847L54.1595 20.5973L53.9114 20.1847Z" fill="#AE6F2D"/>
<path d="M15.4415 18.8573L15.5398 18.7256C15.5018 18.7652 15.4687 18.8095 15.4415 18.8573Z" fill="#AE6F2D"/>
<path d="M28.1362 10.7262C28.0823 10.7712 28.0207 10.8057 27.9544 10.8281C28.0502 10.8057 28.1239 10.7784 28.1362 10.7262Z" fill="#AE6F2D"/>
<path d="M54.5895 24.0203V23.809C54.5428 23.8338 54.5428 23.9134 54.5895 24.0203Z" fill="#AE6F2D"/>
<path d="M57.2159 30.2248C57.2236 30.2185 57.2303 30.2109 57.2355 30.2024C57.2355 30.2024 57.2208 30.2074 57.2159 30.2248Z" fill="#AE6F2D"/>
<path d="M56.9235 27.5277C56.894 27.4755 56.8571 27.4159 56.8178 27.3562C56.8473 27.4333 56.8817 27.5327 56.9235 27.5277Z" fill="#AE6F2D"/>
<path d="M56.7539 27.2767L56.808 27.3562C56.7982 27.309 56.781 27.2692 56.7539 27.2767Z" fill="#AE6F2D"/>
<path d="M59.3116 35.8452C59.3063 35.6458 59.2664 35.4489 59.1936 35.2635L59.3116 35.8452Z" fill="#AE6F2D"/>
<path d="M10.7145 41.2642L10.6629 41.2294C10.6874 41.2642 10.7022 41.2766 10.7145 41.2642Z" fill="#AE6F2D"/>
<path d="M58.459 35.547L58.4812 35.4053C58.4662 35.451 58.4587 35.4988 58.459 35.547Z" fill="#AE6F2D"/>
<path d="M52.4962 21.1914C52.3144 21.092 52.1448 20.7315 52.076 20.7887C52.2136 20.9354 52.3463 21.1939 52.4962 21.1914Z" fill="#AE6F2D"/>
<path d="M15.7511 44.3168L15.81 44.4237C15.793 44.3866 15.7733 44.3509 15.7511 44.3168Z" fill="#AE6F2D"/>
<path d="M58.459 35.5469L58.432 35.7134C58.4492 35.701 58.4639 35.6811 58.4811 35.6662C58.4663 35.6282 58.4588 35.5877 58.459 35.5469Z" fill="#AE6F2D"/>
<path d="M27.9814 59.244L27.7038 59.1968C27.7909 59.2359 27.8864 59.2521 27.9814 59.244Z" fill="#AE6F2D"/>
<path d="M59.1936 35.2635L59.1248 34.9329C59.1359 35.0453 59.1589 35.1561 59.1936 35.2635Z" fill="#AE6F2D"/>
<path d="M41.8775 59.0601L41.7571 59.1073C41.7996 59.0985 41.8403 59.0826 41.8775 59.0601Z" fill="#AE6F2D"/>
<path d="M29.0919 10.5298C29.1296 10.5322 29.1673 10.5322 29.205 10.5298C29.2123 10.5 29.2 10.4875 29.0919 10.5298Z" fill="#AE6F2D"/>
<path d="M22.0188 16.6473L22.0161 16.65L22.0188 16.6473Z" fill="#AE6F2D"/>
<path d="M22.3208 16.2795C22.1828 16.3686 22.0768 16.5002 22.0186 16.6549C22.1528 16.5616 22.2576 16.4314 22.3208 16.2795Z" fill="#AE6F2D"/>
<path d="M21.2102 17.2042L21.2594 17.1793C21.2417 17.1846 21.225 17.193 21.2102 17.2042Z" fill="#AE6F2D"/>
<path d="M29.3991 13.2898C29.3979 13.2855 29.3979 13.2809 29.3991 13.2766C29.3979 13.2809 29.3979 13.2855 29.3991 13.2898Z" fill="#AE6F2D"/>
<path d="M27.6841 13.8359C27.641 13.8296 27.5971 13.8296 27.5539 13.8359C27.5967 13.8461 27.6413 13.8461 27.6841 13.8359Z" fill="#AE6F2D"/>
<path d="M13.8961 36.3821C13.7854 35.4747 13.7231 34.5619 13.7094 33.6478C13.6962 32.7301 13.7786 31.8136 13.9551 30.9134C13.889 30.6955 13.8673 30.4663 13.8912 30.2397C13.9133 29.9912 13.96 29.7426 13.9993 29.4667H14.2671C14.2671 29.315 14.2868 29.1684 14.299 29.0167C14.4243 28.8676 14.2548 29.3573 14.4366 29.0789L14.3236 28.875C14.4243 28.875 14.6897 27.8037 14.6725 28.5668C14.7413 28.2934 14.8469 28.0299 14.9182 27.7589L15.0533 27.3562L15.2081 26.961C15.353 26.6154 15.0828 26.6726 15.2965 26.3097C15.3997 26.2625 15.2965 26.4688 15.3899 26.4738C16.0655 25.4247 15.5078 24.9276 16.1884 23.9407L16.1687 24.0476C16.2056 23.8363 16.4144 23.5082 16.3727 23.4833C16.068 23.4833 16.3948 23.7319 16.0778 23.9805C15.8985 23.8388 16.1982 23.5231 16.0385 23.456C16.2424 23.2522 16.2277 23.0483 16.3481 22.8321C16.5212 22.6698 16.6753 22.4879 16.8075 22.2902C16.9288 22.1128 17.0853 21.963 17.267 21.8502C17.3235 21.6389 17.267 21.3207 17.5495 20.9652C17.8812 20.826 17.6355 21.1293 17.95 20.8335L17.891 20.6943C18.1367 20.4457 18.1244 20.5054 18.1637 20.5526C18.4094 20.2717 18.2301 20.1971 18.601 19.8939L18.5249 20.1797C18.7043 19.9074 18.9201 19.6614 19.1661 19.4489C19.2128 19.5086 19.0777 19.6453 18.9647 19.7348C19.2841 19.6776 19.2104 19.3495 19.3234 19.26C19.257 19.26 19.0064 19.4762 19.0261 19.26C19.2079 19.1009 19.257 18.7628 19.4929 18.7628L19.4094 19.0338C19.7017 18.6137 19.4904 18.7305 19.9425 18.3626C19.9278 18.3924 19.9597 18.4073 19.9695 18.4347C20.1194 18.0544 20.5911 17.858 21.0063 17.5149L20.9474 17.6069C21.0899 17.4379 21.112 17.2689 21.2103 17.2042C20.9203 17.336 20.9646 17.2539 20.8614 17.1719C21.0899 17.1296 21.1734 16.983 21.279 16.804C21.3949 16.5681 21.5887 16.3808 21.8269 16.2745C21.8613 16.3441 21.7827 16.5231 21.5812 16.5554C21.5296 16.8736 21.623 17.0526 21.37 17.3782C21.5346 17.1819 21.7483 16.973 21.7557 17.0874L21.6943 16.8711C21.8146 16.7767 21.9203 16.717 22.0137 16.6499C21.9915 16.5032 21.6353 16.6499 21.8761 16.3765C22.166 16.0856 22.1733 16.4262 22.1709 16.3118C22.5738 15.9216 22.2299 15.9887 22.7188 15.7525C22.6819 15.7948 22.6131 15.8818 22.564 15.8917C22.9325 15.7575 23.3355 15.3374 23.5639 15.5064C23.5443 15.5835 23.5639 15.6506 23.4386 15.7078L23.4239 15.673C23.1782 16.0508 23.6942 15.4468 23.7015 15.7127C23.6082 15.6108 24.0848 15.3697 24.3035 15.2728L24.1634 15.1758C24.6548 14.3828 24.2666 15.4567 24.9349 15.0391C25.3304 14.7159 24.7482 15.0888 24.9717 14.8502C25.2838 14.7159 25.4631 14.7831 25.8759 14.5196C26.0257 14.5196 26.3107 14.4773 26.3992 14.6265C26.6449 14.445 27.2591 14.3654 27.3549 14.1442C26.8316 14.1989 26.952 14.4922 26.3206 14.5146C26.35 14.44 26.3771 14.3654 26.409 14.2934C26.7972 14.1542 27.2566 13.8633 27.5515 13.8335C27.4851 13.8335 27.4458 13.7887 27.4679 13.744C28.0109 13.4954 28.119 13.2618 28.6964 13.1573C28.8118 13.2866 28.4777 13.3488 28.2492 13.4358C28.6399 13.4358 28.6251 13.3363 29.1927 13.2245C29.2565 13.3463 28.8168 13.3239 28.7897 13.473L29.3892 13.2568C29.3885 13.265 29.3885 13.2734 29.3892 13.2816C29.4236 13.0331 29.8658 13.1921 30.2295 13.0331C30.5473 12.9776 30.8511 12.8593 31.1238 12.685C31.3069 12.5322 31.5034 12.3965 31.711 12.2799C31.8584 12.3221 31.9051 12.3743 31.8559 12.4365C31.6102 12.3669 31.6643 12.4365 31.593 12.5086C31.9051 12.4439 32.3031 12.6403 32.1409 12.7571C32.6323 12.6279 31.9493 12.6627 32.2416 12.5533C32.4677 12.526 32.6937 12.5061 32.9222 12.4961C32.8313 12.3892 32.5881 12.3818 32.9345 12.2674C33.211 12.2258 33.4902 12.2051 33.7698 12.2053C33.7158 12.2649 33.9025 12.3694 33.6101 12.3818C33.7993 12.4091 34.1015 12.4166 34.2022 12.2997C33.7698 12.2053 34.9049 12.1829 34.5831 12.0114C34.728 12.0437 34.8705 12.0711 35.0155 12.1158C34.9172 12.1158 34.9049 12.1804 34.7698 12.163C34.8926 12.3271 35.1211 12.1282 35.2734 12.1158C35.4233 12.1556 35.8164 12.1904 35.8459 12.26C35.9355 12.2402 36.0282 12.2393 36.1182 12.2573C36.2083 12.2752 36.2937 12.3117 36.3692 12.3644C36.5731 12.3395 36.3938 12.25 36.4552 12.1978C36.6837 12.2177 36.9146 12.2152 37.1407 12.2575C37.1677 12.3594 37.1972 12.6328 37.0915 12.6552C37.3544 12.603 37.2119 12.3843 37.5976 12.4514C37.352 12.603 38.089 12.6676 37.7401 12.8417C37.9416 13.0107 38.5583 13.0902 38.9096 13.0902C39.1553 12.9759 38.5534 12.956 38.6025 12.8093C38.9399 12.8381 39.2796 12.8206 39.6123 12.7571C39.878 12.6887 40.1579 12.7025 40.4157 12.7969L40.2413 12.7099C40.4765 12.7491 40.7172 12.7398 40.9488 12.6826C40.8604 12.7596 40.9488 12.9063 41.1577 13.0654C41.4094 13.2767 41.7024 13.4317 42.0176 13.5203C42.1085 13.4532 41.681 13.212 41.8407 13.1101L42.3321 13.2468C42.3615 13.2742 42.2977 13.2841 42.2289 13.2866C42.6785 13.3736 42.9315 13.7838 43.1305 13.6272L43.4377 14.0721L43.3222 13.8882C43.4131 13.8285 43.8799 14.01 43.988 14.0199C44.3242 14.0683 44.6288 14.2465 44.8381 14.5171C44.7939 14.4102 44.6661 14.1591 45.0494 14.3033C44.9069 14.5718 45.7348 14.8253 45.6488 14.9571C45.7938 15.0341 45.9953 15.2603 46.0763 15.1609L45.9584 15.31C46.0395 15.2056 46.2041 15.228 46.408 15.31C46.5169 15.3495 46.6236 15.3952 46.7274 15.4468L47.037 15.6257C46.7594 15.8743 47.4645 15.8917 47.4473 16.277C47.6537 16.1254 48.1622 16.6573 48.3514 16.5256C48.6364 16.7319 48.4644 16.8985 48.4865 17.0228L48.6684 17.0576C48.7322 17.2614 49.2212 17.6939 49.4644 18.0022C49.602 18.027 49.7469 18.0444 49.8821 18.0767L49.9091 18.2433C49.9877 18.2433 50.2211 18.4372 50.1548 18.2433L50.285 18.3924C50.457 18.2333 50.5307 18.5441 50.8746 18.7529C50.9115 18.8448 50.855 18.8672 50.7714 18.8274C50.909 18.9691 50.7714 18.994 50.7837 19.1257C50.7248 18.9816 51.5871 19.337 51.2751 18.8772C51.3144 18.7852 51.5945 18.9567 51.6952 19.1257L51.6166 19.3594L51.9311 19.3917C52.1522 19.6105 52.135 19.8019 52.2751 20.0082C52.1031 19.8193 51.6117 19.8417 52.0294 20.3363C51.8558 20.1775 51.6625 20.0421 51.4545 19.9336C51.5331 20.043 51.5577 20.1076 51.3611 20.0082C51.7272 20.3488 51.5626 20.0505 51.9016 20.4159C51.7395 20.5153 51.7812 20.6644 52.0048 21.0323L51.9065 20.6968C51.9336 20.6942 51.9608 20.6993 51.9851 20.7117C51.9237 20.6048 51.9237 20.56 51.963 20.4929C52.022 20.5675 52.5134 20.7912 52.479 20.9255C52.4298 20.6446 52.6239 20.7689 52.8008 20.9429C52.9777 21.1169 53.1473 21.3257 53.1251 21.1368C53.2013 21.1517 53.4151 21.44 53.3585 21.527C53.0023 21.261 53.3585 21.9123 53.216 21.9297C53.3487 22.0292 53.1423 21.5792 53.3217 21.711C53.4322 21.8803 53.4981 22.0754 53.5133 22.2777L53.4249 22.2106L53.5723 22.5735C53.6878 22.5735 53.4937 22.1783 53.7369 22.4468C53.7664 22.5387 53.9826 22.8271 53.9113 22.8569C53.7172 22.7799 53.6411 22.9713 53.4544 22.7351C53.5993 22.9365 53.9973 23.6225 53.9949 23.2497L54.1349 23.5157C54.1128 23.3118 53.9728 22.7699 54.2946 23.2895L54.2578 23.3044L54.5894 23.6027V23.809C54.6288 23.7816 54.7 23.809 54.7737 23.9581C54.7442 24.0203 54.7983 24.1595 54.7246 24.1843C54.9555 24.5746 54.9997 24.51 55.0808 24.5373C55.1963 24.7635 55.2012 24.8679 55.0513 24.8083C55.1717 25.1364 55.442 25.6783 55.4494 25.9319C55.7172 26.3221 55.4493 25.8299 55.6754 26.0288C55.6411 26.3777 55.7023 26.7294 55.8523 27.0455C56.0046 27.4432 56.2159 27.8683 56.3584 28.2213C56.5746 27.9429 56.4468 28.4127 56.7245 28.4698C56.5992 28.3381 56.6802 29.233 56.4468 28.6066L56.5697 28.9944C56.4837 29.3001 56.2994 28.3754 56.1889 28.8377C56.3019 29.2678 56.6802 29.4816 56.7024 30.026C56.4567 29.8942 56.867 30.4088 56.6139 30.3242C56.5329 30.2111 56.4775 30.0812 56.4518 29.9439L56.437 30.0434C56.4557 30.139 56.4795 30.2336 56.5083 30.3267C56.5162 30.3839 56.5311 30.4398 56.5525 30.4933C56.5869 30.5679 56.6237 30.5828 56.668 30.5803C56.7515 30.5803 56.8522 30.5107 56.9579 30.7568C57.0733 31.3559 56.8694 31.2539 56.781 31.3061C56.7799 31.4942 56.8229 31.6799 56.9063 31.848C56.7294 31.5025 56.9333 31.157 57.0856 31.3037C56.894 31.6019 57.1987 32.1961 57.3141 32.3551C57.4271 31.4603 57.238 31.7586 57.3755 30.901C57.2871 30.799 57.0856 30.8562 57.0979 30.3516C57.2453 30.6399 57.2085 30.3093 57.2281 30.2149C57.1372 30.3317 57.1028 29.8892 57.0168 29.755C57.0783 29.5984 57.3583 29.9862 57.2846 29.4841L56.9874 29.4542C56.9874 29.2529 57.2085 29.489 57.0439 29.0963C57.2404 29.2827 57.2478 28.972 57.4271 29.5213C57.4984 28.7955 57.0537 28.527 56.8277 28.0473C56.8621 28.092 56.8965 28.0895 56.9284 28.1343C56.8295 28.0063 56.7523 27.8627 56.6999 27.7092C56.6459 27.3587 56.9112 27.9304 56.9456 27.8235L56.7515 27.2866C56.7538 27.2784 56.7591 27.2713 56.7662 27.2667C56.6827 27.1375 56.6115 27.0181 56.6606 26.9386C56.7744 27.0285 56.8934 27.1115 57.0168 27.1872L56.6385 26.69C56.7466 26.7223 56.6262 26.163 56.8277 26.5458C56.7122 26.2724 56.6262 25.9841 56.4837 25.7206L56.6287 25.5789C56.5107 25.3949 56.4739 25.4049 56.5574 25.646C56.469 25.3452 55.6975 24.5473 56.1029 24.5348C55.9358 24.3038 55.7808 24.064 55.6385 23.8164C55.4985 23.6002 55.356 23.364 55.1054 23.0185C55.5796 23.5157 54.9285 22.2504 55.3511 22.8171C55.2209 22.4169 55.0022 22.4493 54.8179 22.1858C54.7393 21.8825 54.9604 21.8949 55.184 22.1485C55.0931 22.0515 55.0096 21.9521 54.9162 21.8576L54.9531 21.8427L54.6607 21.6265C54.5452 21.2784 54.7762 21.4599 54.5894 21.1293L54.4052 21.1566L54.3462 20.9081C54.3462 21.0299 54.1841 20.8708 54.0244 20.6595L54.0563 20.6421L53.8475 20.3935C54.1103 20.5948 53.7099 20.1275 53.8892 20.1747C53.7435 19.9563 53.5728 19.7561 53.3807 19.5782L53.3463 19.7174C52.8549 19.2799 53.4617 19.5881 53.1325 19.173L53.0514 19.2848C52.9107 18.9763 52.7023 18.7043 52.4421 18.4894C52.2094 18.3286 52.0058 18.1284 51.8402 17.8978C52.0859 18.1041 52.1424 17.94 52.1105 17.9624C51.7321 17.6542 51.2063 17.0526 50.7321 16.8363C50.7199 16.5728 50.7321 16.5032 50.3808 16.0906C50.086 15.8569 50.0295 15.842 49.8673 15.842C49.7167 15.6787 49.5523 15.529 49.3759 15.3946C49.2015 15.2603 49.059 15.1609 49.0934 15.0963C48.9583 15.1385 48.8477 14.8899 48.6192 14.8477V14.7905L48.5676 14.9173C48.408 14.6644 48.1693 14.4727 47.8895 14.3729C47.762 14.3169 47.6388 14.2512 47.521 14.1765C47.3845 14.1032 47.2641 14.0026 47.1672 13.8807L47.2827 13.9056L47.0173 13.8136C47.0173 13.7415 47.1254 13.7664 47.1746 13.7067L46.0714 13.048L46.2434 13.2618C45.9977 13.1449 45.7938 13.1573 45.553 12.9535C46.1058 12.9883 45.1698 12.7696 45.1599 12.5956L45.4326 12.6627C45.0862 12.5185 45.0862 12.5185 45.0567 12.6627C44.5948 12.5036 44.8553 12.2923 44.3885 12.2376L44.6784 12.3743C44.7324 12.4862 44.4794 12.4912 44.2877 12.3992C44.2484 12.3594 44.1354 12.2426 44.2877 12.2948C44.0844 12.2251 43.8858 12.1421 43.6932 12.0462C43.5452 11.981 43.3902 11.9334 43.2313 11.9045C43.0495 11.7976 43.1453 11.7305 43.2657 11.733C42.45 11.5739 42.9217 11.5863 42.106 11.4272L42.1429 11.3601H41.8481C41.7399 11.2619 41.6259 11.1706 41.5065 11.0867L41.622 11.2159C41.3711 11.1932 41.1237 11.1406 40.885 11.0593L41.0373 10.9823C40.283 10.8605 40.2167 10.587 39.4772 10.5696C39.4329 10.5398 39.5509 10.5274 39.6098 10.5249C38.9145 10.5796 39.1381 10.2465 38.4305 10.3583C38.4772 10.326 38.4109 10.2689 38.4428 10.2415L38.1259 10.2689L38.1676 10.1222L37.89 10.3061L37.7205 10.1247L37.5927 10.1794C37.2955 9.82638 36.8016 10.0352 36.3643 9.79407L36.4306 9.98796C36.1324 10.0702 35.8226 10.1013 35.5142 10.0799C35.1948 10.0675 34.8631 10.0078 34.5192 9.98547C34.1752 9.9631 33.8263 9.90593 33.4725 9.90344C33.1214 9.89865 32.7707 9.9303 32.4259 9.9979V9.84627C32.2416 9.92333 32.0574 10.0103 31.8756 10.0948C31.5562 10.0153 32.0451 9.94322 31.9395 9.87858C31.3375 10.0426 31.711 10.1272 31.0157 10.2738C30.6398 10.239 31.1213 10.1321 31.2859 10.065C30.6038 10.2687 29.9096 10.4281 29.2074 10.5423C29.2074 10.5647 29.1779 10.597 29.2074 10.602C28.7873 10.7561 28.2099 10.8654 27.7333 11.0071C27.7333 10.9375 27.8389 10.8928 27.9519 10.8456C27.76 10.8595 27.5744 10.921 27.4114 11.0245L27.549 10.8406C27.178 10.935 26.5269 11.2855 26.3967 11.1687C26.4606 11.2085 26.4778 11.3179 26.1732 11.4322C25.9275 11.288 25.3747 11.8374 24.8563 11.9517C24.8907 11.8772 25.2395 11.7032 25.1388 11.7479C24.8993 11.8247 24.6857 11.9676 24.5221 12.1605L24.5467 12.0462C24.1904 12.2475 23.8514 12.4837 23.5074 12.7074C23.2323 12.5732 22.5247 13.299 22.5099 13.1101C22.1267 13.3239 22.876 13.0157 22.4117 13.3164C22.2348 13.3015 22.0087 13.6098 21.9522 13.473L21.9915 13.4258L21.6746 13.6446L21.8024 13.396C21.537 13.6073 21.4117 13.8633 21.4584 13.9677C21.1464 14.0622 20.8245 14.3853 20.6304 14.358L20.7041 14.261C20.3884 14.4913 20.047 14.6832 19.687 14.8328C19.3602 14.9527 19.0808 15.1769 18.891 15.4716C18.8369 15.4915 18.8172 15.4567 18.891 15.3871L18.4659 15.7451L18.4929 15.5711C18.3013 15.8196 18.1048 16.0682 17.9279 16.3168L17.8836 16.2522C17.3078 16.777 16.7723 17.3454 16.2817 17.9524L16.3309 17.8381C15.869 18.5664 15.7289 18.4073 15.4096 18.9567C15.4091 18.9316 15.415 18.9068 15.4268 18.8846L15.0828 19.3296L15.1024 19.1854C14.987 19.5782 14.2499 19.9983 14.4956 19.8665C14.417 20.1151 14.2499 20.4855 14.2917 20.5948C13.9649 21.1119 14.1295 20.6669 13.8715 20.9503C13.6259 21.3257 13.6824 21.4475 13.331 21.9446L13.2672 21.8924C13.1394 22.141 13.0976 22.3225 12.9158 22.6705L12.9404 22.5512C12.7831 23.19 12.3778 23.1627 12.449 23.7593C12.2819 23.9755 12.1198 24.4627 11.992 24.3757C11.8667 24.761 11.7709 25.1041 11.6726 25.4471C11.5744 25.7902 11.4663 26.1257 11.3754 26.511C11.1026 26.5508 11.3385 26.6776 11.051 27.0877H11.1886C10.884 28.1542 10.2403 29.325 10.1051 30.5679L9.96756 30.5828L10.0708 30.8512C9.80918 32.2108 9.67672 33.5926 9.67519 34.9777C9.81333 35.4416 9.89582 35.9206 9.92088 36.4045L9.89877 36.3473C9.97248 36.8271 10.0364 37.3168 10.1223 37.8164C10.1617 38.065 10.1911 38.3136 10.2255 38.5771C10.2599 38.8406 10.2992 39.0892 10.3263 39.3527C10.2599 39.298 10.2403 39.4073 10.1838 39.298C10.3705 39.5167 10.2992 39.9045 10.3508 40.1282L10.3901 39.8473C10.4652 39.9798 10.5133 40.1261 10.5314 40.2777C10.5495 40.4293 10.5374 40.583 10.4958 40.7298C10.5769 40.8715 10.6555 41.0157 10.7415 41.1549C10.7415 41.1872 10.7415 41.2394 10.712 41.2493L10.8029 41.3115L10.7022 41.6023C10.7685 41.7042 10.9749 42.3008 11.1935 42.4276C11.1542 42.4897 11.2501 42.9248 11.1125 42.6091L11.3582 43.4368L11.6481 44.2522L11.626 43.9986C11.739 43.9191 11.9945 44.369 12.0485 44.635C11.8029 44.3591 11.8643 44.6822 11.8372 44.8612C11.9969 45.0476 11.8594 44.6275 11.9773 44.712C12.2038 44.9915 12.3756 45.3121 12.4834 45.6566C12.4416 45.6119 12.4023 45.5647 12.363 45.5199C12.5743 45.858 12.4588 46.124 12.6456 46.472C12.8913 46.7429 12.9428 47.0139 13.105 46.8399C13.3974 47.26 13.0681 47.0885 13.1296 47.2426C13.3384 47.3992 13.6381 48.0505 13.5964 48.1847C13.8126 48.2145 13.9723 48.5203 14.1148 48.8136C14.2573 49.1069 14.4047 49.3704 14.5472 49.3306L14.6602 49.7681C14.7315 49.7333 14.9059 49.7035 15.1516 49.9496C15.2818 50.2529 15.1319 50.2752 15.1319 50.3995H15.4808C15.726 50.8296 16.0045 51.2394 16.3137 51.625C16.6454 52.0228 17.0016 52.4329 17.3849 52.8182C18.1441 53.6062 18.9868 54.3321 19.7116 55.0554C20.0924 55.304 20.5322 55.5526 20.9891 55.836C21.4461 56.1194 21.9154 56.3804 22.365 56.6538L22.2446 56.6264C22.537 56.8179 22.8171 57.0316 23.1192 57.2081C22.9129 57.0565 22.7163 56.8875 22.5173 56.711C22.7172 56.7812 22.9125 56.8642 23.102 56.9595C24.043 57.6108 25.3992 58.3839 26.7874 58.6996C27.7456 58.6872 27.2788 59.1719 28.1878 59.1968C28.1222 59.2125 28.0574 59.2316 27.9937 59.2539L28.63 59.3583L29.1927 59.4155C29.595 59.4568 29.9997 59.4701 30.4039 59.4553C30.2393 59.7536 31.0058 59.5572 30.8953 59.7039L30.9936 59.5895C31.1852 59.7039 31.6717 59.7884 31.5906 59.8754L32.0205 59.766L32.0402 59.9027C32.5881 59.9823 33.76 59.9574 34.0524 60.2234C34.7428 60.1488 35.6199 60.1066 36.5412 60.0419C37.0031 60.0046 37.4748 59.9823 37.9367 59.9251C38.3986 59.8679 38.8556 59.8306 39.2782 59.7586C39.4968 59.6069 39.9882 59.51 40.3641 59.4081L40.8088 59.4677C41.1896 59.3385 41.5459 59.0153 41.9218 59.0153C41.9223 59.0256 41.9197 59.0358 41.9145 59.0447C41.9092 59.0535 41.9015 59.0606 41.8923 59.065C42.2731 58.9308 42.6637 58.8836 42.9733 58.6201C43.3959 58.4908 43.8234 58.4112 43.7497 58.5977C43.6956 58.3342 44.6415 58.282 44.6415 58.282C44.6415 58.282 44.7275 58.2522 44.8872 58.185L45.5653 57.8942C46.3757 57.5312 47.1663 57.1246 47.9338 56.6762C49.0525 56.0128 50.1202 55.265 51.1277 54.439C53.5934 52.3984 55.628 49.8767 57.1102 47.0238C57.8363 45.6275 58.4128 44.1567 58.83 42.6364C59.1827 41.3471 59.4017 40.0241 59.4836 38.689C59.5107 38.159 59.5107 37.628 59.4836 37.098C59.4579 36.6807 59.4054 36.2655 59.3263 35.8551C59.2035 35.6662 59.1298 35.1591 58.9725 35.358C58.9332 34.9702 59.1666 34.7937 59.0389 34.7191C58.9381 35.2436 58.7072 34.5576 58.5327 35.0647L58.5082 34.739C58.4197 34.6719 58.604 35.1815 58.4369 35.0995L58.6826 35.1939C58.6711 35.374 58.6079 35.5468 58.5008 35.6911C58.5942 35.9397 58.9062 36.1186 58.717 36.7053V36.5387C58.69 37.0359 58.5401 36.8221 58.4934 36.9191V36.8122C58.4418 36.9439 58.3927 37.0757 58.3386 37.2049C58.4467 36.9066 58.287 36.3871 58.2821 36.6506C58.1716 37.2124 58.3509 36.5089 58.3485 36.939C58.3485 37.2049 58.2183 37.1154 58.1446 37.098L58.0954 37.5679C57.9873 37.538 58.1421 37.2596 58.002 37.4361L58.0463 38.0402C57.7588 38.1098 58.0856 38.7039 57.7711 38.9276C57.7711 38.4951 57.6704 38.9475 57.5893 38.8654C57.5402 39.206 57.4812 39.5466 57.4026 39.8846C57.3436 39.9716 57.378 39.5988 57.3583 39.7554C57.238 39.9294 57.3583 40.0835 57.3289 40.1854C57.261 40.3089 57.2121 40.4422 57.1839 40.5806C57.1225 40.7472 57.0537 40.8988 56.9652 40.8591C56.6532 41.4929 57.1249 41.212 56.8301 41.8061C56.6999 41.8534 56.9554 41.309 56.7589 41.5576C56.7073 41.7763 56.6459 41.9926 56.5893 42.2113C56.5458 42.1522 56.5197 42.0819 56.5141 42.0084C56.5084 41.935 56.5234 41.8614 56.5574 41.7962C56.249 42.4999 55.8526 43.1607 55.3781 43.7625C54.9418 44.3203 54.5754 44.9307 54.2872 45.5796C54.0538 45.7063 54.2872 45.3956 54.2872 45.2067C53.8868 46.3154 53.2283 46.467 52.7001 47.2724L52.7812 47.3519C51.7345 48.2617 50.8574 49.6364 49.6487 50.5835L49.8329 50.5164C49.7129 50.7641 49.5554 50.9914 49.3661 51.19C49.2998 51.1726 49.3415 50.8917 49.0418 51.2149C49.1376 51.1875 49.3047 51.0956 49.2998 51.1726C48.715 51.5007 47.9067 52.1073 46.9706 52.7088C46.021 53.314 45.0195 53.8314 43.9782 54.255C42.6662 54.9155 41.2744 55.3993 39.8383 55.6943C38.4201 55.9849 36.9818 56.1644 35.5363 56.2312C35.9614 56.2113 35.782 56.4947 35.4651 56.44C35.2687 56.3398 35.0552 56.2783 34.8361 56.2586C34.6433 56.2387 34.4491 56.2387 34.2563 56.2586C33.848 56.3277 33.4288 56.2813 33.045 56.1243C32.2652 56.1061 31.4908 55.9875 30.7405 55.7713C30.3744 55.6794 30.0182 55.5725 29.6496 55.5054C29.2803 55.4158 28.9037 55.3609 28.5244 55.3413L28.5367 55.2046C28.3426 55.0728 28.2566 55.1399 28.0281 55.0778L28.0453 55.043C27.5294 54.8292 26.8611 54.6826 26.5712 54.5086L26.4925 54.6378C26.183 54.511 26.382 54.4588 26.0356 54.3892L26.0749 54.3246L25.6523 54.2898C25.7972 54.0735 24.8194 53.8399 24.6376 53.6037C24.4411 53.5167 24.1462 53.3924 23.8391 53.2458C23.5303 53.0892 23.2352 52.9062 22.9571 52.6989C22.9424 52.6119 22.7753 52.4503 22.5615 52.2614C22.3358 52.0804 22.1201 51.8871 21.9154 51.6822C20.9119 50.969 19.9985 50.1342 19.1956 49.1964L19.085 49.3306C19.004 49.2536 18.9327 49.1666 18.8566 49.0821C18.886 49.0622 18.8713 49.0149 18.918 49.0398C18.9008 48.7117 18.3627 48.5029 18.2988 48.2046C18.2841 48.4358 18.4217 48.4059 18.5445 48.5526C18.6625 48.8012 18.3578 48.7266 18.1932 48.3786L18.2276 48.3612L18.0016 48.217C18.0876 48.1101 18.0016 47.8889 18.0826 47.787C17.407 46.9343 16.7903 46.4397 16.2842 45.4105C16.466 45.4404 15.8518 44.7145 16.1933 44.7891C15.8002 44.2298 16.0582 44.9904 15.7584 44.7891C15.6749 44.6151 15.5127 44.4684 15.5889 44.3939C15.6847 44.4461 15.6602 44.185 15.7511 44.3118C15.6749 44.1801 15.5987 44.0483 15.5349 43.9091C15.5349 43.8619 15.6086 43.939 15.643 43.9762C15.1246 43.1907 15.1393 42.4077 14.7388 41.6744C14.6307 41.647 14.8199 41.9975 14.7118 41.9702C14.2671 41.2245 14.6258 41.2245 14.2917 40.5036L14.4587 40.6229C14.3089 40.4042 14.1565 40.3296 14.1639 39.897C14.2941 39.7902 14.3654 40.2103 14.4931 40.3793C14.4096 40.1108 14.2253 39.4173 14.1369 39.6634C14.0672 39.4504 14.0603 39.2215 14.1172 39.0046C14.0779 39.0046 14.0878 39.3353 13.9747 39.1538C13.9747 38.679 13.8322 37.978 13.788 37.4137C13.8249 37.4137 13.8765 37.369 13.901 37.4137C13.6504 36.9862 13.9797 36.9961 13.8961 36.3821Z" fill="#AE6F2D"/>
<path d="M29.63 13.2568L29.399 13.2892C29.399 13.3215 29.399 13.3612 29.3131 13.4284C29.4162 13.3637 29.5243 13.3115 29.63 13.2568Z" fill="#AE6F2D"/>
<path d="M19.9695 18.4347C19.9567 18.4637 19.9461 18.4936 19.9376 18.5242C19.9745 18.4794 19.9769 18.4546 19.9695 18.4347Z" fill="#AE6F2D"/>
<path d="M18.316 20.5799C18.4168 20.4134 18.2743 20.5153 18.1834 20.5625C18.2055 20.5849 18.235 20.6048 18.316 20.5799Z" fill="#AE6F2D"/>
<path d="M35.8434 12.2549C35.8017 12.2673 35.7771 12.2872 35.782 12.3195C35.8385 12.2947 35.8508 12.2723 35.8434 12.2549Z" fill="#AE6F2D"/>
<path d="M51.2604 19.685C51.2491 19.6619 51.24 19.6378 51.2334 19.6129C51.2362 19.6389 51.2455 19.6637 51.2604 19.685Z" fill="#AE6F2D"/>
<path d="M50.7518 18.8124C50.7035 18.7652 50.6509 18.7227 50.5946 18.6857C50.6367 18.7396 50.6905 18.783 50.7518 18.8124Z" fill="#AE6F2D"/>
<path d="M31.6004 12.5085C31.5368 12.5176 31.4767 12.5433 31.426 12.5831C31.4896 12.5742 31.5497 12.5485 31.6004 12.5085Z" fill="#AE6F2D"/>
<path d="M50.4275 18.5664L50.2653 18.3774L50.2408 18.3973L50.4275 18.5664Z" fill="#AE6F2D"/>
<path d="M51.4446 19.9336C51.3789 19.8541 51.3174 19.7711 51.2604 19.6851C51.294 19.7857 51.3585 19.8728 51.4446 19.9336Z" fill="#AE6F2D"/>
<path d="M42.219 13.284H42.1945C41.9905 13.2791 42.1134 13.2915 42.219 13.284Z" fill="#AE6F2D"/>
<path d="M49.4767 18.0121L49.4546 17.9872L49.3833 17.9723L49.4767 18.0121Z" fill="#AE6F2D"/>
<path d="M52.0859 20.7887C52.0577 20.7566 52.0234 20.7304 51.9852 20.7117L52.0613 20.831C52.0644 20.8144 52.0731 20.7995 52.0859 20.7887Z" fill="#AE6F2D"/>
<path d="M45.4941 15.0118C45.5825 14.9944 45.6243 14.9745 45.639 14.9497C45.5678 14.9149 45.5088 14.9149 45.4941 15.0118Z" fill="#AE6F2D"/>
<path d="M55.0022 7.34555C55.0286 7.34225 55.0534 7.33099 55.0734 7.31323C55.0341 7.31572 55.0071 7.32815 55.0022 7.34555Z" fill="#AE6F2D"/>
<path d="M40.0595 0.546896H40.2536C40.1283 0.531981 40.0791 0.534467 40.0595 0.546896Z" fill="#AE6F2D"/>
<path d="M61.7832 14.4847H61.7586L62.1517 15.0565L61.7832 14.4847Z" fill="#AE6F2D"/>
<path d="M8.01435 12.5756L8.15193 12.3966C8.10111 12.4522 8.05508 12.5121 8.01435 12.5756Z" fill="#AE6F2D"/>
<path d="M25.6818 1.24292C25.6013 1.29736 25.5136 1.34004 25.4213 1.3697C25.5516 1.34235 25.6572 1.30755 25.6818 1.24292Z" fill="#AE6F2D"/>
<path d="M63.2401 19.6054L63.2008 19.3196C63.1664 19.3444 63.1713 19.4488 63.2401 19.6054Z" fill="#AE6F2D"/>
<path d="M66.7584 28.5692C66.7654 28.5601 66.7711 28.55 66.7756 28.5394C66.7633 28.527 66.7584 28.5444 66.7584 28.5692Z" fill="#AE6F2D"/>
<path d="M66.2203 24.7635C66.1859 24.6864 66.1417 24.5994 66.095 24.5149C66.1343 24.6243 66.1786 24.766 66.2203 24.7635Z" fill="#AE6F2D"/>
<path d="M66.0336 24.3957L66.095 24.5125C66.0704 24.4454 66.0483 24.3882 66.0336 24.3957Z" fill="#AE6F2D"/>
<path d="M68.9769 36.2926C68.9728 36.0172 68.9348 35.7433 68.8639 35.4773L68.9769 36.2926Z" fill="#AE6F2D"/>
<path d="M1.33408 43.6828L1.27757 43.6306C1.30705 43.6853 1.32179 43.6928 1.33408 43.6828Z" fill="#AE6F2D"/>
<path d="M68.1244 35.9048L68.1514 35.7035C68.1347 35.7693 68.1256 35.8369 68.1244 35.9048Z" fill="#AE6F2D"/>
<path d="M60.3459 15.4616C60.1174 15.2926 59.8545 14.7905 59.7808 14.8477C59.9749 15.0664 60.169 15.4343 60.3459 15.4616Z" fill="#AE6F2D"/>
<path d="M7.0365 48.5774L7.12249 48.734C7.08318 48.6594 7.05861 48.6122 7.0365 48.5774Z" fill="#AE6F2D"/>
<path d="M68.1244 35.9049L68.0974 36.1386C68.1149 36.1171 68.1313 36.0947 68.1465 36.0714C68.1342 36.0167 68.1268 35.961 68.1244 35.9049Z" fill="#AE6F2D"/>
<path d="M25.2567 68.6402L24.8759 68.5631C24.9971 68.6122 25.1262 68.6383 25.2567 68.6402Z" fill="#AE6F2D"/>
<path d="M68.8639 35.4871L68.7927 35.0248C68.8015 35.1809 68.8254 35.3357 68.8639 35.4871Z" fill="#AE6F2D"/>
<path d="M44.5236 68.4788C44.4646 68.4986 44.4081 68.5185 44.3565 68.5409C44.4146 68.5275 44.4708 68.5067 44.5236 68.4788Z" fill="#AE6F2D"/>
<path d="M27.0085 0.966974C27.0552 0.966974 27.1141 0.966974 27.1657 0.95206C27.178 0.927202 27.1633 0.912287 27.0085 0.966974Z" fill="#AE6F2D"/>
<path d="M16.9648 8.12109C16.7754 8.24464 16.6165 8.41047 16.5004 8.60582C16.6859 8.47753 16.8438 8.31266 16.9648 8.12109Z" fill="#AE6F2D"/>
<path d="M15.3432 9.41868L15.412 9.37891C15.3875 9.38918 15.3644 9.40254 15.3432 9.41868Z" fill="#AE6F2D"/>
<path d="M27.1535 3.76424C27.1547 3.75995 27.1547 3.75539 27.1535 3.7511C27.1535 3.7511 27.1535 3.7511 27.1535 3.76424Z" fill="#AE6F2D"/>
<path d="M24.6695 4.53167C24.6077 4.5288 24.5458 4.53381 24.4853 4.54658C24.5471 4.55064 24.6092 4.54562 24.6695 4.53167Z" fill="#AE6F2D"/>
<path d="M4.24245 37.0383C4.10527 35.7089 4.0413 34.3728 4.05081 33.0362C4.06555 32.6882 4.08029 32.3377 4.09503 31.9922C4.09503 31.8207 4.11469 31.6467 4.12206 31.4776L4.17611 30.9805C4.21542 30.6474 4.25227 30.3168 4.29158 29.9861C4.33089 29.6555 4.4046 29.3597 4.46111 29.0639C4.34072 28.5046 4.51516 27.7489 4.64292 26.9833L4.91809 26.9684C4.94266 26.7521 4.97951 26.5408 5.00654 26.3271C5.15641 26.0959 4.92055 26.8242 5.14412 26.3967L5.05076 26.1008C5.16795 25.8936 5.26111 25.6734 5.32839 25.4446C5.43895 25.196 5.50774 25.0817 5.44632 25.6236C5.69201 24.8356 5.93769 24.0451 6.262 23.2795C6.47084 22.7823 6.16373 22.8942 6.46101 22.3572C6.58385 22.2752 6.4217 22.5785 6.5298 22.571C6.8609 22.0026 7.08577 21.3774 7.19316 20.7266C7.28191 20.0987 7.51042 19.4995 7.86143 18.9741L7.82212 19.1207C7.9032 18.8299 8.1882 18.3501 8.15872 18.3228C7.81967 18.3775 8.13169 18.6683 7.73613 19.0437C7.56169 18.8896 7.95479 18.4098 7.79018 18.3501C8.05798 18.0394 8.09238 17.7784 8.26682 17.4677C8.69432 17.0277 9.1169 16.2646 9.52228 15.9986C9.61517 15.5696 9.79229 15.1638 10.0431 14.8054C10.4608 14.5568 10.1095 14.9968 10.5345 14.5568L10.4952 14.3928C10.8416 14.0199 10.8171 14.1044 10.8515 14.1591C11.2102 13.7514 11.0112 13.6967 11.5173 13.2344L11.3649 13.6097C11.643 13.229 11.9582 12.8775 12.3059 12.5607C12.3477 12.6254 12.1536 12.8267 11.9964 12.9609C12.3968 12.8192 12.3796 12.429 12.5369 12.2947C12.4583 12.2947 12.1045 12.6328 12.1757 12.3668C12.4214 12.1183 12.5713 11.7056 12.8612 11.646L12.6745 12.0014C13.1265 11.4222 12.8415 11.6111 13.4779 11.0692C13.4533 11.1065 13.4779 11.1165 13.4951 11.1488C13.6601 10.8903 13.8748 10.6679 14.1265 10.495C14.3943 10.2912 14.6866 10.065 15.0011 9.83629L14.9078 9.95561C15.124 9.72443 15.1879 9.52308 15.3279 9.42614C14.9323 9.6424 15.0036 9.538 14.893 9.46342C15.4925 9.27202 15.4385 8.6804 16.3156 8.22052C16.345 8.29261 16.2099 8.50391 15.9446 8.59339C15.8045 8.96626 15.8905 9.14773 15.4974 9.58771C15.7431 9.32173 16.065 9.02841 16.0502 9.16264L16.0207 8.92898C16.1976 8.79723 16.345 8.70525 16.4802 8.60831C16.4802 8.44425 15.9888 8.69531 16.3622 8.32244C16.7971 7.9272 16.7332 8.32244 16.7529 8.18821C17.3573 7.65625 16.9028 7.81285 17.5833 7.44247C17.5188 7.51859 17.4414 7.58255 17.3548 7.63139C17.8609 7.40021 18.4752 6.85831 18.7454 7.00497C18.7036 7.09446 18.7282 7.16655 18.539 7.25355V7.21875C18.1165 7.68111 18.9469 6.92045 18.9002 7.21875C18.7946 7.12429 19.4751 6.76385 19.7847 6.61222L19.6176 6.53267C20.4235 5.5831 19.7036 6.82599 20.6839 6.24929C21.276 5.82422 20.421 6.33629 20.7674 6.03551C21.2097 5.8267 21.4382 5.88636 22.0573 5.53835C22.2612 5.51349 22.6592 5.41655 22.7575 5.5657C23.1309 5.34446 23.9859 5.15305 24.1628 4.91193C23.4258 5.04368 23.5486 5.34943 22.6691 5.45632L22.8288 5.20774C23.3889 4.99893 24.0572 4.62109 24.4822 4.55895C24.3938 4.55895 24.3446 4.52663 24.3815 4.47692C25.1702 4.13885 25.3643 3.88778 26.175 3.71378C26.3224 3.8331 25.8458 3.94247 25.5092 4.05185C26.0596 4.02202 26.0522 3.90767 26.8654 3.72372C26.9416 3.84304 26.3249 3.87038 26.2659 4.0245C26.5583 3.93004 26.8458 3.82067 27.1406 3.73864C27.1406 3.73864 27.1406 3.75604 27.1406 3.76349C27.2167 3.51491 27.826 3.62429 28.369 3.43288C29.6761 3.1843 29.8235 2.83878 30.5434 2.5728C30.7522 2.6076 30.8161 2.65732 30.7399 2.72443C30.4009 2.66726 30.4672 2.73686 30.3616 2.80895C30.8112 2.7294 31.3713 2.90341 31.1306 3.02521C31.8332 2.86861 30.8628 2.9407 31.2878 2.81392C31.6121 2.77166 31.9389 2.75923 32.2705 2.73686C32.1477 2.62997 31.7964 2.63246 32.3 2.50568C32.6981 2.44971 33.0996 2.42313 33.5014 2.42614C33.4228 2.4858 33.6857 2.59766 33.2558 2.60014C33.5437 2.65491 33.8411 2.6256 34.1132 2.51562C33.4941 2.42614 35.123 2.39134 34.6635 2.22479C34.8699 2.24964 35.0763 2.29439 35.2802 2.33416C35.1402 2.33416 35.123 2.40376 34.9166 2.37642C35.091 2.5554 35.4203 2.33913 35.6389 2.32919C35.8551 2.36896 36.4202 2.39382 36.4644 2.46839C36.7224 2.43819 36.9834 2.48393 37.2162 2.60014C37.5086 2.58771 37.2482 2.48828 37.3366 2.43857C37.6659 2.46839 37.9926 2.49325 38.3194 2.54297C38.3612 2.64737 38.4128 2.9233 38.2629 2.9407C38.6412 2.89595 38.425 2.67472 38.9827 2.74929C38.6412 2.89595 39.7002 2.98295 39.2088 3.14702C39.5061 3.31854 40.3955 3.47514 40.8967 3.51243C41.2308 3.42294 40.3807 3.33097 40.4372 3.19176C40.7886 3.23153 41.0613 3.25142 41.2873 3.25888C41.4825 3.25982 41.6777 3.25069 41.872 3.23153C42.2571 3.1747 42.6502 3.21746 43.0145 3.35582L42.7688 3.24396C43.0916 3.31309 43.4226 3.33486 43.7516 3.30859C43.5304 3.43288 44.3265 4.00213 45.3461 4.30291C45.4665 4.23828 44.835 3.93999 45.0488 3.85298C45.2797 3.91264 45.5082 3.9897 45.7343 4.06676C45.7785 4.09908 45.695 4.10156 45.5991 4.09162C46.2256 4.25817 46.6335 4.73047 46.8816 4.60866L47.373 5.10582L47.1838 4.89702C47.2993 4.8473 47.9749 5.09837 48.1223 5.1456C48.5868 5.26298 49.0112 5.50518 49.3508 5.84659C49.2722 5.7223 49.0658 5.41655 49.5965 5.65767C49.454 5.92614 50.6161 6.33878 50.5252 6.46804C50.7316 6.57741 51.0337 6.88068 51.1222 6.78374L50.992 6.92791C51.1689 6.73153 51.9059 7.16406 52.4661 7.50213C52.1467 7.72337 53.0852 7.87251 53.1319 8.31499C53.3776 8.18821 54.1147 8.92152 54.3358 8.81214C54.7363 9.12038 54.5569 9.26704 54.6085 9.40873L54.8542 9.48579C55.0049 9.69499 55.177 9.88747 55.3677 10.06C55.6011 10.3086 55.8591 10.5572 56.0458 10.7834C56.2227 10.8455 56.4045 10.9052 56.574 10.9748L56.6477 11.1811C56.7435 11.1985 57.0777 11.4769 56.9376 11.2333L57.1317 11.4371C57.3062 11.2905 57.4732 11.6559 57.9278 12.0064C57.9916 12.1282 57.9278 12.1431 57.8197 12.0735C58.0137 12.2823 57.8442 12.2773 57.8934 12.4439C57.7951 12.255 58.8958 12.8963 58.4486 12.2649C58.4781 12.163 58.8466 12.4364 58.999 12.68L58.9523 12.951L59.338 13.0579C59.6476 13.3761 59.6771 13.5998 59.8785 13.8956C59.8288 13.8298 59.7637 13.7776 59.6891 13.7438C59.6144 13.7099 59.5326 13.6955 59.451 13.7017C59.3478 13.7415 59.365 13.8857 59.65 14.2535C59.421 14.0109 59.1616 13.7995 58.8786 13.6246C58.999 13.7738 59.0456 13.8732 58.7828 13.6942C59.2987 14.1914 59.0481 13.7837 59.5198 14.3232C59.3503 14.4126 59.4265 14.609 59.7655 15.136L59.5886 14.6836C59.6228 14.6876 59.6552 14.7014 59.682 14.7234C59.5886 14.5717 59.5812 14.5121 59.6132 14.4375C59.6992 14.5469 60.3109 14.9347 60.2937 15.1111C60.1832 14.7383 60.4338 14.9421 60.6696 15.2056C60.9055 15.4691 61.161 15.7624 61.0873 15.5188C61.1807 15.5536 61.4878 15.9638 61.4411 16.0607C60.9743 15.6456 61.5271 16.5579 61.3551 16.5579C61.5222 16.7145 61.2102 16.0806 61.4337 16.2944C61.5865 16.533 61.6932 16.7987 61.7482 17.0774L61.6376 16.9705L61.8686 17.4677C61.9964 17.495 61.7089 16.9308 62.0308 17.3335C62.0774 17.4627 62.3698 17.8853 62.301 17.9102C62.0676 17.7685 62.0111 18.0096 61.763 17.6616C61.9595 17.9599 62.5516 18.9343 62.4705 18.4471L62.6843 18.82C62.6179 18.549 62.3551 17.8256 62.817 18.5565H62.7801C62.9275 18.7031 63.0577 18.8622 63.1953 19.0163L63.2322 19.2972C63.2715 19.2674 63.355 19.332 63.4557 19.5309C63.4336 19.6104 63.5122 19.8068 63.4385 19.8267C63.7432 20.3984 63.7923 20.3239 63.8808 20.3661C64.0479 20.6918 64.07 20.831 63.898 20.7266C63.9889 20.9577 64.1437 21.261 64.2591 21.5643C64.3636 21.8095 64.4419 22.0653 64.4925 22.3274C64.8267 22.9091 64.4753 22.1857 64.7382 22.4964C64.7512 22.9898 64.8659 23.4749 65.0748 23.9208C65.2959 24.4901 65.5392 25.1239 65.7234 25.636C65.92 25.2706 65.8315 25.9144 66.1313 26.0387C65.9863 25.8374 66.1804 27.1001 65.861 26.1978L66.0355 26.7521C65.9839 27.1722 65.6792 25.8548 65.6227 26.4886C65.8045 27.1051 66.1903 27.4531 66.2468 28.2287C66.0011 28.0199 66.4335 28.793 66.1731 28.6488C66.0832 28.4732 66.021 28.2845 65.9888 28.0895L65.9765 28.2287C66.1853 29.6257 66.2885 28.5842 66.5539 29.2951C66.7209 30.1502 66.5072 29.9961 66.4212 30.0607C66.4259 30.3283 66.4724 30.5933 66.5588 30.8462C66.3794 30.3491 66.5588 29.8519 66.7283 30.0806C66.544 30.4932 66.8585 31.3658 66.974 31.5945C67.0083 31.2432 67.0083 30.8893 66.974 30.538C66.9488 30.207 66.9488 29.8746 66.974 29.5437C66.8757 29.3945 66.6743 29.4567 66.6448 28.7457C66.8168 29.1658 66.7529 28.696 66.7676 28.5643C66.6792 28.7209 66.6202 28.0945 66.5219 27.8931C66.576 27.6793 66.8806 28.2535 66.7676 27.5376L66.4654 27.4655C66.4482 27.1822 66.6915 27.5376 66.5023 26.9684C66.7136 27.2518 66.7037 26.8192 66.9175 27.6072C66.941 27.1965 66.8499 26.7874 66.6546 26.4265C66.4949 26.1108 66.3008 25.8324 66.1632 25.4844C66.2001 25.554 66.2369 25.5515 66.2738 25.6186C66.1582 25.4231 66.0658 25.2145 65.9986 24.9972C65.9102 24.5 66.2443 25.3352 66.2713 25.1886L66.0256 24.418C66.0256 24.4006 66.0256 24.3956 66.0404 24.3931C65.9396 24.2017 65.8586 24.0178 65.8979 23.9233C66.0576 24.1222 66.173 24.1719 66.2934 24.3185C66.1485 24.07 65.9986 23.8214 65.8365 23.5728C65.9544 23.63 65.7456 22.8544 66.0158 23.4038C65.8561 23.011 65.7136 22.6133 65.5392 22.228L65.6718 22.0589C65.5244 21.788 65.4876 21.7955 65.6055 22.141C65.4544 21.8061 65.2821 21.4814 65.0896 21.169C64.8955 20.821 64.753 20.5426 64.9741 20.565C64.6891 20.1474 64.5294 19.8491 64.35 19.5309C64.1707 19.2127 63.9766 18.8722 63.6547 18.3651C63.9471 18.7305 63.8734 18.4695 63.7874 18.2184C63.7014 17.9673 63.5958 17.7386 63.8808 18.1438C63.6597 17.6044 63.4213 17.6044 63.1658 17.2315C63.0184 16.8214 63.2715 16.8835 63.5663 17.2489L63.2174 16.8239H63.2543L62.8956 16.4758C62.7089 16.0011 62.9963 16.2844 62.7359 15.832H62.5344L62.4263 15.484C62.4263 15.6357 62.2347 15.4045 62.0037 15.1087L62.0406 15.0913L61.7482 14.7408C62.0922 15.0465 61.5345 14.3803 61.7482 14.4748C61.5397 14.1702 61.3089 13.8819 61.0578 13.6122L61.0431 13.7812C60.3994 13.1225 61.1536 13.6445 60.6991 13.0504L60.6254 13.1722C60.107 12.2028 59.3552 11.8722 58.9056 11.2085C59.2397 11.5167 59.2717 11.3278 59.2373 11.3477C58.7459 10.8704 57.9671 10.07 57.3479 9.70455C57.2841 9.38885 57.2767 9.30682 56.7853 8.75497C56.3824 8.40945 56.2939 8.38459 56.0998 8.35973C55.7485 7.97443 54.9304 7.46236 54.9869 7.34552C54.8247 7.36541 54.6282 7.05469 54.3456 6.96271L54.3309 6.88068L54.2891 7.01491C54.0369 6.68343 53.7019 6.426 53.3186 6.26918C52.941 6.10313 52.5963 5.86897 52.3015 5.57812L52.4563 5.63033L52.1123 5.46875C52.0902 5.38672 52.2425 5.43643 52.2966 5.37926L51.5325 4.90447L50.7488 4.47443L51.0116 4.72301C50.6726 4.55646 50.3925 4.54652 50.0485 4.27308C50.4097 4.35263 50.2819 4.27308 50.0485 4.16619C49.8151 4.0593 49.4908 3.91761 49.4736 3.8157L49.8422 3.9375C49.3631 3.71626 49.3631 3.71626 49.3508 3.85795C48.7169 3.60937 49.0388 3.41051 48.4 3.29368L48.8103 3.47763C48.8987 3.6044 48.5646 3.5696 48.287 3.45277C48.2304 3.40554 48.0585 3.26633 48.2747 3.34091C47.9898 3.24202 47.7102 3.12835 47.4369 3.00035C47.2322 2.90293 47.0181 2.82713 46.7981 2.77415C46.5401 2.63246 46.663 2.57777 46.8227 2.60014C45.7023 2.31179 46.3485 2.37145 45.2134 2.12784L45.2552 2.06072L44.8498 2.02592C44.6876 1.91655 44.523 1.80469 44.3584 1.70028C44.4149 1.74751 44.4714 1.8022 44.5255 1.8544C44.1737 1.79317 43.8264 1.70762 43.4862 1.59837L43.6877 1.53871C42.6435 1.31001 42.5256 1.05398 41.501 0.981889C41.4347 0.947088 41.5969 0.947088 41.6804 0.947088C40.7222 0.929687 41.0121 0.618963 40.0392 0.663707C40.1031 0.636364 40.0073 0.574219 40.0392 0.546875C39.8918 0.546875 39.7468 0.546875 39.5994 0.546875L39.6535 0.400213L39.2727 0.57919L39.027 0.392756L38.8501 0.444957C38.6213 0.29056 38.3557 0.201266 38.0811 0.186435C37.7624 0.171808 37.4477 0.108966 37.1475 0L37.2433 0.198864C36.8185 0.259181 36.3895 0.282467 35.9608 0.268466C35.5161 0.268466 35.0493 0.198864 34.5726 0.176491C34.096 0.154119 33.6046 0.109375 33.1108 0.096946C32.617 0.102337 32.1243 0.144711 31.6367 0.223722L31.6588 0.0696023C31.3959 0.144176 31.1379 0.241122 30.88 0.335582C30.4402 0.270952 31.1256 0.174006 30.9807 0.111861C30.138 0.303267 30.6515 0.380327 29.6712 0.549361C29.1552 0.534446 29.8284 0.40767 30.0618 0.333097C29.1454 0.534446 27.8113 0.870028 27.1529 0.95206C27.1529 0.976918 27.1086 1.01172 27.1529 1.01172C26.858 1.12109 26.5042 1.18821 26.148 1.28267C25.7918 1.37713 25.4281 1.46662 25.0989 1.56605C25.0989 1.49396 25.2562 1.43679 25.4158 1.37713C25.1523 1.4147 24.8962 1.49353 24.6567 1.6108L24.868 1.41193C24.352 1.53622 23.4307 1.99361 23.2661 1.88423C23.3472 1.92152 23.357 2.02592 22.9295 2.18253C22.7722 2.12038 22.4897 2.25959 22.1605 2.43111C21.8203 2.62311 21.4634 2.78288 21.0942 2.90838C21.1507 2.82138 21.6372 2.58771 21.4971 2.6598C21.1719 2.7773 20.8729 2.95896 20.6176 3.19425L20.6692 3.06747C20.4235 3.20668 20.1778 3.33842 19.9321 3.48509L19.195 3.93501C19.0329 3.89276 18.6742 4.0767 18.372 4.26811C18.0698 4.45952 17.8143 4.63849 17.8241 4.53658C17.2934 4.83487 18.3155 4.36754 17.6644 4.78516C17.4384 4.80753 17.087 5.17543 17.0379 5.03374C17.0571 5.0126 17.0776 4.99267 17.0993 4.97408L16.6522 5.27486L16.861 4.96413C16.4851 5.24503 16.2787 5.55575 16.318 5.66513C16.0993 5.76511 15.8882 5.88143 15.6866 6.01314C15.5415 6.12663 15.3739 6.20718 15.1952 6.24929L15.3058 6.125C14.323 6.87074 13.4115 7.02983 12.8071 7.84766C12.7383 7.87997 12.7211 7.84766 12.8391 7.74574L12.2519 8.2429L12.3182 8.03658C12.0381 8.3647 11.7458 8.67543 11.4804 9.01598L11.4411 8.94886C11.1291 9.22976 10.736 9.60263 10.338 10.0128C9.93995 10.4229 9.54685 10.8778 9.19061 11.288L9.27168 11.1438C8.5985 12.1033 8.46091 11.9318 7.98182 12.6776C7.98604 12.6442 7.99691 12.6121 8.01376 12.5831L7.53712 13.2021L7.58381 13.0206C7.42459 13.3185 7.2112 13.5833 6.95484 13.8011C6.73864 14.0099 6.58631 14.1218 6.74601 14.0174C6.61334 14.3281 6.36028 14.8402 6.37993 14.9719C5.91313 15.6829 6.18338 15.0888 5.84433 15.4964C5.51265 16.021 5.54214 16.1676 5.06796 16.8562L5.01145 16.804C4.82964 17.152 4.76576 17.3906 4.49551 17.8704L4.54464 17.7113C4.25719 18.5639 3.83706 18.5962 3.80758 19.3668C3.584 19.6726 3.34814 20.3437 3.22284 20.2493C3.12948 20.4979 3.04349 20.7464 2.9575 20.995L2.73146 21.7085C2.58405 22.1807 2.41698 22.6406 2.2794 23.1751C1.99194 23.2621 2.22043 23.4038 1.87401 23.9929H2.01651C1.57673 25.4844 0.788072 27.1325 0.586608 28.8576L0.446565 28.8825L0.530099 29.2479C0.372859 30.1626 0.203334 31.2191 0.124714 32.2308C0.102602 32.4794 0.0731193 32.728 0.058378 32.9766C0.0436368 33.2251 0.038723 33.4737 0.0288955 33.695C0.0288955 34.1573 -0.0153284 34.5874 0.00186977 34.9577C0.0411799 35.2063 0.107516 35.5071 0.156653 35.8452C0.210879 36.2091 0.243695 36.576 0.254929 36.9439L0.23036 36.8643C0.323721 37.5305 0.385143 38.2141 0.500617 38.9102C0.549754 39.2557 0.596435 39.6087 0.638202 39.9641C0.679969 40.3196 0.746305 40.6776 0.790529 41.0405C0.719279 40.9609 0.704538 41.1101 0.640659 40.956C0.849494 41.2717 0.790529 41.8011 0.864235 42.1069L0.88389 41.729C1.05909 42.1071 1.12142 42.5287 1.06324 42.9421C1.15906 43.1459 1.24751 43.3498 1.35315 43.5486C1.35315 43.5934 1.35315 43.663 1.33104 43.6779L1.42932 43.7699L1.35561 44.1527C1.43915 44.2994 1.70203 45.1321 1.95509 45.3334C1.92069 45.4105 2.07056 46.0046 1.89121 45.5671L2.24746 46.7131L2.6553 47.8416L2.57914 47.4787C2.68724 47.3867 3.01892 48.0256 3.10737 48.391C2.82483 47.9808 2.91327 48.4283 2.91327 48.657C3.11228 48.9254 2.91327 48.3512 3.04349 48.4805C3.32807 48.8889 3.55467 49.3358 3.71667 49.8079L3.56926 49.609C3.83706 50.0913 3.76581 50.4144 4.01641 50.9041C4.33089 51.2944 4.41689 51.6499 4.56921 51.4609C4.95986 52.0526 4.56921 51.7741 4.66503 51.9854C4.923 52.2216 5.3505 53.119 5.3333 53.2805C5.57899 53.3576 5.80748 53.7777 6.01631 54.1729C6.22515 54.5682 6.44381 54.9311 6.5986 54.9187L6.80252 55.4879C6.87868 55.4556 7.06786 55.4581 7.38234 55.8111C7.58872 56.2088 7.42165 56.2088 7.44376 56.3629L7.84423 56.4251C8.6214 57.6302 9.52775 58.7448 10.5468 59.7486C11.0849 60.283 11.6254 60.8224 12.188 61.3246C12.7506 61.8267 13.2936 62.3189 13.8071 62.816C14.3206 63.1765 14.9299 63.5444 15.5466 63.9396C16.1632 64.3349 16.8168 64.7202 17.4457 65.0905L17.2885 65.0383C17.6963 65.2994 18.0943 65.5802 18.5169 65.8263C18.2221 65.6324 17.9469 65.4038 17.6619 65.1925C17.9543 65.3217 18.1902 65.4038 18.4555 65.5529C19.7871 66.418 21.6789 67.4471 23.583 67.9517C24.8778 68.0536 24.2906 68.5085 25.5289 68.6179C25.4208 68.6179 25.3716 68.6527 25.2832 68.6577L26.1578 68.8317C26.4256 68.8739 26.6787 68.9062 26.9293 68.9386C27.4814 69.0185 28.0376 69.0658 28.5951 69.0802C28.3887 69.3711 29.4304 69.2244 29.2879 69.3711L29.4157 69.2592C29.6859 69.3984 30.3616 69.5078 30.251 69.5824L30.8431 69.4954L30.8775 69.6346C31.2559 69.6992 31.8602 69.7141 32.4106 69.7638C32.6882 69.7887 32.9536 69.826 33.1747 69.8633C33.3471 69.8806 33.5142 69.933 33.6661 70.0174L37.1204 69.8285C37.7592 69.7738 38.4152 69.7489 39.054 69.6644C39.6928 69.5799 40.3267 69.5277 40.9139 69.4158C41.2234 69.2443 41.9089 69.1275 42.4322 68.9808L43.0317 69.0057C43.5648 68.8416 44.0709 68.4737 44.5918 68.4339C44.5918 68.4513 44.5771 68.4712 44.5451 68.4886C44.8105 68.3942 45.0783 68.337 45.3338 68.24C45.5899 68.1591 45.8338 68.0428 46.0586 67.8945C46.3169 67.8082 46.5814 67.7417 46.8497 67.6957C47.0511 67.6584 47.1691 67.6758 47.0954 67.7802C47.0585 67.5092 48.3238 67.3302 48.3238 67.3302C48.3238 67.3302 48.4417 67.2905 48.6555 67.1935L49.594 66.7859C50.7222 66.2771 51.8228 65.7079 52.8912 65.0806C54.4359 64.156 55.91 63.1157 57.3013 61.9684C60.7076 59.1428 63.5274 55.6629 65.5981 51.7294C66.6102 49.8019 67.422 47.7734 68.0206 45.6765C68.5332 43.8969 68.8738 42.0713 69.0378 40.2251C69.0943 39.4197 69.1213 38.679 69.1115 38.0202C69.1017 37.3615 69.0574 36.7773 68.9886 36.3026C68.8658 36.0391 68.7995 35.3306 68.6373 35.5966C68.6029 35.0522 68.8388 34.8036 68.711 34.6992C68.6054 35.445 68.3818 34.4705 68.2024 35.1964L68.1828 34.7365C68.0919 34.6445 68.2712 35.3604 68.1066 35.2461L68.3523 35.3803C68.3418 35.625 68.278 35.8644 68.1656 36.0813C68.2565 36.4318 68.5636 36.6754 68.3572 37.5032V37.2695C68.3155 37.9506 68.1705 37.6722 68.1115 37.8114L68.1238 37.6623C68.0673 37.8487 68.0182 38.0352 67.9568 38.2191C68.0771 37.7965 67.9297 37.0682 67.9174 37.441C67.7897 38.239 67.9911 37.2397 67.9764 37.8437C67.9592 38.2191 67.8388 38.0923 67.7651 38.0774L67.6939 38.7436C67.5833 38.7063 67.7553 38.3036 67.6054 38.5597L67.6177 39.4123C67.3278 39.5266 67.6177 40.342 67.2811 40.6751C67.3204 40.0685 67.1779 40.7124 67.1042 40.6005L66.9838 41.3288C66.9396 41.5774 66.8831 41.8086 66.8315 42.0497C66.7627 42.1765 66.8315 41.652 66.7971 41.8732C66.6571 42.1218 66.7627 42.3331 66.7283 42.4773C66.6474 42.6585 66.5849 42.8476 66.5416 43.0415C66.4605 43.2901 66.3721 43.4989 66.2959 43.4542C65.9028 44.3739 66.4261 43.929 66.0502 44.7866C65.9765 44.8263 66.0306 44.6499 66.0674 44.5057C66.1043 44.3615 66.1239 44.2571 66.0109 44.4311C65.9298 44.7418 65.8365 45.0476 65.7505 45.3583C65.7116 45.2679 65.6932 45.1699 65.6966 45.0714C65.7 44.9729 65.7251 44.8765 65.7701 44.7891C65.3635 45.7987 64.8538 46.7626 64.2493 47.6651C63.9815 48.0678 63.7579 48.4755 63.4901 48.908C63.2199 49.3643 62.9739 49.8348 62.7531 50.3175C62.4681 50.5312 62.7973 50.0689 62.8145 49.8203C62.1683 51.3789 61.4018 51.707 60.6279 52.8704L60.7065 52.9574C59.3159 54.3668 57.9671 56.3008 56.262 57.7152L56.5077 57.5909C56.2978 57.9244 56.0504 58.2322 55.7706 58.5082C55.692 58.5082 55.8075 58.1552 55.3579 58.6101C55.4832 58.5554 55.7141 58.4087 55.692 58.5032C54.8886 59.0277 53.7265 59.9226 52.3777 60.8125C51.0042 61.7123 49.5566 62.4907 48.0511 63.1392C46.1347 64.083 44.1117 64.7868 42.0268 65.2347C39.9645 65.6775 37.8685 65.9411 35.7618 66.0227C36.3834 65.9979 36.1303 66.2837 35.6561 66.2315C35.3612 66.1329 35.0547 66.0736 34.7446 66.055C34.4632 66.0352 34.1808 66.0352 33.8995 66.055C33.3062 66.1189 32.7063 66.0614 32.1354 65.886L31.6932 65.8736L31.2608 65.8288C30.9733 65.7965 30.6908 65.7567 30.4107 65.7145C29.8505 65.63 29.3125 65.4858 28.7769 65.3764C28.2413 65.267 27.7179 65.098 27.1848 64.9936C26.6528 64.8562 26.1129 64.7524 25.5682 64.6829V64.5387C25.2758 64.3746 25.1628 64.4343 24.8311 64.3349L24.8508 64.3026C24.6616 64.223 24.4601 64.1534 24.2562 64.0888L23.6592 63.8775C23.3373 63.7826 23.0248 63.6577 22.7256 63.5046L22.6396 63.6314C22.19 63.44 22.4553 63.4201 21.9664 63.2908L22.0106 63.2262L21.421 63.1168C21.588 62.9006 20.1925 62.473 19.9223 62.1697C19.6397 62.033 19.2245 61.8366 18.7798 61.6104C18.3381 61.364 17.91 61.0935 17.4973 60.8001C17.3304 60.5681 17.1251 60.3671 16.8905 60.206L16.3991 59.8033C16.2345 59.6591 16.0772 59.5149 15.9397 59.3856C14.4969 58.3183 13.1738 57.0947 11.9939 55.7365L11.8907 55.8782L11.5468 55.5028C11.5787 55.4829 11.5468 55.4208 11.6131 55.4631C11.5173 55.0479 10.8318 54.6577 10.6942 54.2624C10.7286 54.5533 10.8785 54.5533 11.0578 54.7596C11.2618 55.1101 10.8662 54.9435 10.6058 54.4563L10.6426 54.4414L10.3453 54.2052C10.4264 54.0884 10.2692 53.7876 10.3453 53.6733C9.37979 52.413 8.56656 51.6374 7.81229 50.1559C7.9204 50.1907 7.76561 49.9371 7.63049 49.696C7.49536 49.4549 7.40937 49.2113 7.59609 49.2983C7.0654 48.4606 7.48553 49.5469 7.11945 49.2237C6.99907 48.9751 6.80252 48.7415 6.87377 48.6545C6.98924 48.744 6.91308 48.381 7.03592 48.5724C6.92536 48.381 6.82954 48.1822 6.73372 47.9808C6.73372 47.9162 6.81972 48.033 6.86394 48.0927C6.55264 47.5584 6.30991 46.9862 6.14162 46.3899C6.05562 46.1115 5.96963 45.8381 5.87136 45.5671C5.7801 45.2867 5.67263 45.012 5.54951 44.7443C5.43158 44.6896 5.67727 45.2092 5.54951 45.157C5.3587 44.8242 5.23432 44.4568 5.18343 44.0756C5.1662 43.7128 5.08291 43.3564 4.93774 43.0241L5.12447 43.2155C4.94757 42.8849 4.77313 42.7631 4.74611 42.1467C4.87141 42.0075 4.9746 42.6165 5.13184 42.875C5.10727 42.7756 5.0655 42.6388 5.02128 42.4947C4.97705 42.3505 4.93774 42.1939 4.89598 42.0646C4.80999 41.8036 4.72645 41.6371 4.69451 41.816C4.60068 41.509 4.57385 41.185 4.61589 40.8665C4.57167 40.8665 4.61589 41.3413 4.47831 41.0703C4.44391 40.3842 4.2449 39.3601 4.17611 38.5348C4.21296 38.5348 4.2621 38.4727 4.28913 38.5348C4.18355 38.3345 4.15135 38.103 4.19822 37.881C4.27083 37.6063 4.28589 37.3193 4.24245 37.0383Z" fill="#AE6F2D"/>
<path d="M27.4876 3.70874L27.1534 3.76343C27.1534 3.79574 27.1534 3.83552 27.0134 3.9076L27.4876 3.70874Z" fill="#AE6F2D"/>
<path d="M13.5128 11.1414C13.4903 11.1787 13.4706 11.2178 13.4539 11.2582C13.5128 11.1861 13.5128 11.1637 13.5128 11.1414Z" fill="#AE6F2D"/>
<path d="M11.024 14.1492C11.1788 13.918 10.9872 14.0771 10.8693 14.1492C10.8889 14.1815 10.9208 14.1989 11.024 14.1492Z" fill="#AE6F2D"/>
<path d="M36.4675 2.45593C36.4061 2.45593 36.3692 2.48576 36.3766 2.51808C36.4577 2.48576 36.4773 2.48576 36.4675 2.45593Z" fill="#AE6F2D"/>
<path d="M58.5843 13.2791C58.5696 13.2493 58.5524 13.2244 58.5352 13.1871C58.5458 13.2206 58.5625 13.2518 58.5843 13.2791Z" fill="#AE6F2D"/>
<path d="M57.8006 12.0784C57.7346 12.009 57.664 11.9442 57.5893 11.8845C57.6495 11.9597 57.7208 12.0251 57.8006 12.0784Z" fill="#AE6F2D"/>
<path d="M30.3621 2.79651C30.2765 2.81089 30.1937 2.83856 30.1164 2.87854C30.2031 2.86908 30.2869 2.84112 30.3621 2.79651Z" fill="#AE6F2D"/>
<path d="M57.3584 11.7032L57.1127 11.4546L57.0881 11.472L57.3584 11.7032Z" fill="#AE6F2D"/>
<path d="M58.8595 13.6296C58.7735 13.5202 58.6531 13.381 58.5843 13.2791C58.651 13.4139 58.7448 13.5333 58.8595 13.6296Z" fill="#AE6F2D"/>
<path d="M45.5972 4.08421H45.5604C45.2803 4.03699 45.4523 4.07179 45.5972 4.08421Z" fill="#AE6F2D"/>
<path d="M56.0586 10.8257L56.0169 10.7884L55.9137 10.7511L56.0586 10.8257Z" fill="#AE6F2D"/>
<path d="M59.7808 14.8477C59.7432 14.802 59.6993 14.7618 59.6506 14.7284L59.7612 14.8949C59.7628 14.8775 59.7696 14.861 59.7808 14.8477Z" fill="#AE6F2D"/>
<path d="M50.3292 6.50281C50.4447 6.50281 50.4963 6.48541 50.5135 6.46056C50.4078 6.40836 50.3292 6.39344 50.3292 6.50281Z" fill="#AE6F2D"/>
<path d="M83.1924 57.3398V57.2056L83.3497 57.1534C83.4952 57.1273 83.626 57.0476 83.7168 56.9296C83.8076 56.8116 83.8518 56.6637 83.8411 56.5146V49.2859C83.8505 49.1335 83.8164 48.9816 83.7428 48.8483C83.6527 48.7369 83.523 48.6656 83.3816 48.6495L83.1974 48.6097V48.473L85.4282 47.7024L85.5609 47.8366L85.6788 48.2468C85.9798 48.0645 86.3049 47.9264 86.6444 47.8366C87.0016 47.7388 87.3701 47.6895 87.7401 47.69C88.0859 47.6781 88.4294 47.751 88.7412 47.9025C89.0531 48.054 89.3241 48.2796 89.5312 48.56C89.9734 49.1417 90.1945 49.9703 90.1945 51.0458C90.1945 52.1213 89.9489 52.959 89.4575 53.5589C89.2104 53.8641 88.8956 54.106 88.5387 54.2649C88.1818 54.4239 87.7929 54.4954 87.4035 54.4737C86.8072 54.4903 86.2135 54.3872 85.6567 54.1704V56.4673C85.6416 56.6178 85.6816 56.7687 85.7689 56.8914C85.8563 57.0141 85.985 57.1003 86.1309 57.1335L86.3766 57.1981V57.3324L83.1924 57.3398ZM86.777 54.1083C86.9976 54.105 87.2127 54.0383 87.3971 53.9159C87.5816 53.7935 87.7278 53.6206 87.8188 53.4172C88.0759 52.9565 88.2053 52.1909 88.2069 51.1204C88.2086 50.0498 88.0857 49.2991 87.8384 48.8682C87.7397 48.6702 87.5877 48.5044 87.3999 48.3901C87.2121 48.2757 86.9962 48.2174 86.777 48.2219C86.397 48.2379 86.0266 48.348 85.6985 48.5426V53.897C86.0412 54.0356 86.408 54.1032 86.777 54.0959V54.1083Z" fill="#231F20"/>
<path d="M98.6438 54.4812C98.0404 54.4966 97.4434 54.3527 96.9117 54.0636C96.4255 53.7898 96.0305 53.3763 95.7766 52.8754C95.4987 52.3153 95.3612 51.6947 95.3761 51.0682C95.3605 50.4427 95.5071 49.8239 95.8012 49.2734C96.0745 48.7804 96.4799 48.3754 96.9706 48.1051C97.4875 47.8364 98.0602 47.6963 98.6413 47.6963C99.2224 47.6963 99.7951 47.8364 100.312 48.1051C100.8 48.3743 101.203 48.7776 101.474 49.2685C101.771 49.8223 101.919 50.4457 101.902 51.0756C101.917 51.7037 101.779 52.326 101.501 52.8878C101.246 53.3849 100.853 53.796 100.371 54.071C99.8406 54.3582 99.245 54.4996 98.6438 54.4812ZM98.6438 54.2177C98.9145 54.2306 99.1793 54.1351 99.3808 53.9517C99.6044 53.6845 99.7431 53.3553 99.7788 53.0071C99.9459 51.7325 99.9459 50.4412 99.7788 49.1665C99.7426 48.8192 99.604 48.4909 99.3808 48.2244C99.2814 48.1331 99.1651 48.0625 99.0386 48.0169C98.9121 47.9712 98.7779 47.9514 98.6438 47.9585C98.3733 47.9468 98.1089 48.0422 97.9067 48.2244C97.6797 48.4893 97.5383 48.818 97.5013 49.1665C97.3343 50.4412 97.3343 51.7325 97.5013 53.0071C97.5392 53.3561 97.6805 53.6854 97.9067 53.9517C98.1096 54.1328 98.3735 54.228 98.6438 54.2177Z" fill="#231F20"/>
<path d="M109.383 54.4812C108.911 54.511 108.445 54.3591 108.078 54.0561C107.766 53.7728 107.611 53.3104 107.611 52.7014V48.1573H106.705V48.0256L107.022 47.9709C107.267 47.9189 107.503 47.8292 107.722 47.7049C107.937 47.578 108.134 47.4215 108.307 47.2401L109.383 46.032H109.515L109.476 47.8914H110.95V48.1573H109.476V52.9475C109.459 53.1999 109.531 53.4503 109.68 53.6534C109.742 53.7318 109.821 53.7948 109.911 53.8379C110.001 53.8809 110.099 53.9028 110.198 53.902C110.372 53.9061 110.543 53.8576 110.69 53.7628C110.846 53.6553 110.987 53.5274 111.11 53.3825L111.243 53.5167C111.067 53.8154 110.819 54.063 110.52 54.2351C110.169 54.4177 109.777 54.5026 109.383 54.4812Z" fill="#231F20"/>
<path d="M118.574 54.4812C118.101 54.5106 117.634 54.3589 117.267 54.0562C116.957 53.7728 116.803 53.3104 116.803 52.7014V48.1574H115.896V48.0256L116.21 47.9759C116.457 47.9245 116.694 47.8348 116.913 47.7099C117.128 47.5823 117.325 47.426 117.498 47.2451L118.574 46.037H118.707L118.667 47.8964H120.141V48.1623H118.667V52.9475C118.65 53.1999 118.722 53.4504 118.871 53.6535C118.933 53.7319 119.012 53.7951 119.102 53.8381C119.192 53.8812 119.29 53.903 119.39 53.902C119.563 53.9061 119.735 53.8576 119.881 53.7628C120.037 53.6553 120.178 53.5274 120.301 53.3825L120.431 53.5167C120.257 53.8165 120.008 54.0644 119.709 54.2351C119.359 54.418 118.967 54.5029 118.574 54.4812Z" fill="#231F20"/>
<path d="M128.539 47.6925C129.047 47.6768 129.55 47.7987 129.996 48.0455C130.388 48.2678 130.71 48.599 130.922 49C131.141 49.4248 131.252 49.8981 131.244 50.3772C131.244 50.4749 131.239 50.5744 131.229 50.6755C131.224 50.7685 131.206 50.8604 131.178 50.9489H127.266C127.266 51.9034 127.443 52.5945 127.758 53.0146C127.937 53.2305 128.163 53.4003 128.42 53.51C128.676 53.6198 128.954 53.6664 129.232 53.646C129.598 53.6608 129.963 53.5875 130.296 53.4322C130.587 53.2751 130.845 53.0634 131.057 52.8083L131.188 52.9276C130.933 53.398 130.56 53.7923 130.107 54.0711C129.613 54.3553 129.053 54.4971 128.485 54.4812C127.908 54.4927 127.337 54.3532 126.829 54.076C126.349 53.8089 125.957 53.4053 125.701 52.9152C125.42 52.3564 125.282 51.7349 125.301 51.108C125.281 50.4567 125.445 49.8133 125.775 49.2536C126.07 48.7632 126.489 48.3615 126.989 48.0902C127.465 47.8296 127.998 47.6929 128.539 47.6925ZM128.5 47.9585C128.263 47.9522 128.032 48.0345 127.851 48.1897C127.632 48.4157 127.485 48.7032 127.429 49.0149C127.313 49.563 127.258 50.1225 127.266 50.6829H129.51C129.598 49.7168 129.564 49.0207 129.406 48.5948C129.348 48.4004 129.226 48.2317 129.06 48.1162C128.895 48.0007 128.695 47.9451 128.495 47.9585H128.5Z" fill="#231F20"/>
<path d="M136.357 54.2823V54.1506L136.553 54.0959C136.7 54.0613 136.829 53.9727 136.915 53.8473C136.985 53.7227 137.019 53.5805 137.013 53.4372V49.2859C137.024 49.1358 136.99 48.9859 136.915 48.8558C136.823 48.7469 136.694 48.6775 136.553 48.6619L136.357 48.6097V48.473L138.615 47.7024L138.745 47.8367L138.865 48.9776V49.0845C139.117 48.5804 139.513 48.164 140 47.8889C140.218 47.7629 140.464 47.6945 140.715 47.69C140.855 47.6801 140.994 47.6997 141.125 47.7477C141.256 47.7956 141.376 47.8708 141.477 47.9684C141.652 48.159 141.747 48.4116 141.74 48.6719C141.749 48.7992 141.732 48.927 141.69 49.0473C141.647 49.1675 141.581 49.2776 141.494 49.3704C141.331 49.532 141.111 49.6214 140.882 49.619C140.688 49.6118 140.498 49.5572 140.329 49.4598C140.16 49.3624 140.017 49.2251 139.912 49.0597L139.885 49.0348C139.852 48.9804 139.808 48.9339 139.756 48.8983C139.704 48.8627 139.645 48.8389 139.583 48.8285C139.52 48.8252 139.458 48.839 139.403 48.8683C139.348 48.8976 139.301 48.9413 139.268 48.995C139.179 49.0757 139.106 49.1727 139.052 49.2809C138.988 49.4027 138.933 49.5289 138.887 49.6587V53.3651C138.871 53.5136 138.909 53.663 138.993 53.7856C139.078 53.9081 139.204 53.9954 139.347 54.0313L139.767 54.1506V54.2823H136.357Z" fill="#231F20"/>
<path d="M148.034 57.4717C147.734 57.4892 147.438 57.3946 147.202 57.2057C147.103 57.1242 147.024 57.0209 146.971 56.9037C146.917 56.7865 146.891 56.6585 146.894 56.5296C146.891 56.4152 146.915 56.3017 146.962 56.1979C147.009 56.094 147.079 56.0025 147.167 55.9305C147.33 55.7842 147.541 55.7037 147.759 55.7043C147.952 55.6977 148.143 55.746 148.31 55.8435C148.469 55.9479 148.604 56.0862 148.705 56.2487L148.796 56.3556C148.988 56.6215 149.182 56.6041 149.373 56.3431C149.452 56.2089 149.543 56.0349 149.644 55.8186C149.744 55.6024 149.86 55.3215 149.99 54.9486L147.445 48.7813C147.396 48.6384 147.329 48.5022 147.246 48.3762C147.157 48.264 147.04 48.1781 146.907 48.1276L146.661 48.0356V47.9014H149.931V48.0207L149.668 48.1276C149.477 48.1905 149.378 48.29 149.373 48.4259C149.375 48.6012 149.408 48.7748 149.472 48.9379L150.838 52.5249L152.137 48.8982C152.201 48.7355 152.228 48.5606 152.216 48.3861C152.199 48.2494 152.088 48.1549 151.887 48.1002L151.612 48.0356V47.9014H153.437V48.0356L153.147 48.1276C152.982 48.1664 152.834 48.26 152.727 48.3936C152.633 48.5422 152.557 48.7026 152.504 48.8708L150.386 54.6876C150.14 55.4269 149.795 56.1286 149.361 56.7732C149.214 56.9909 149.016 57.1686 148.784 57.2904C148.553 57.4123 148.295 57.4745 148.034 57.4717Z" fill="#231F20"/>
<path d="M199.002 50.6282H159.872V52.0774H199.002V50.6282Z" fill="#AE6F2D"/>
<path d="M87.3667 35.6687V14.9372H83.19V13.309H93.4745V14.9372H89.4305V35.6687H87.3667Z" fill="black"/>
<path d="M104.115 35.6687V13.2965H109.108C110.492 13.2965 111.578 13.5219 112.368 13.9726C113.144 14.4059 113.747 15.0995 114.073 15.9339C114.44 16.9069 114.616 17.9429 114.591 18.984C114.596 19.7746 114.504 20.5626 114.319 21.3306C114.159 22.0209 113.842 22.6637 113.392 23.2074C112.906 23.75 112.252 24.1093 111.537 24.2265L114.921 35.6612H112.901L109.653 24.674H106.189V35.6612L104.115 35.6687ZM106.189 23.1353H109C109.926 23.1353 110.646 22.9812 111.154 22.668C111.667 22.3513 112.053 21.862 112.245 21.2859C112.484 20.5475 112.596 19.7731 112.574 18.9964C112.574 17.616 112.338 16.5852 111.864 15.9041C111.391 15.223 110.454 14.8824 109.054 14.8824H106.189V23.1353Z" fill="black"/>
<path d="M125.068 35.6687L129.736 13.2965H131.917L136.61 35.6687H134.563L133.47 29.6779H128.205L127.087 35.6687H125.068ZM128.507 28.1591H133.2L130.826 16.098L128.507 28.1591Z" fill="black"/>
<path d="M150.115 35.6687V28.2436L145.121 13.309H147.138L151.123 25.7379L154.941 13.309H156.995L152.13 28.2436V35.6687H150.115Z" fill="black"/>
<path d="M165.498 35.6687L170.166 13.2965H172.35L177.04 35.6687H174.996L173.903 29.6779H168.635L167.518 35.6687H165.498ZM168.938 28.1591H173.628L171.245 16.098L168.938 28.1591Z" fill="black"/>
<path d="M187.87 35.6687V13.2965H189.971V23.2198H196.926V13.3089H199.007V35.6811H196.934V24.7933H189.971V35.6687H187.87Z" fill="black"/>
</g>
<defs>
<clipPath id="clip0">
<rect width="199" height="70" fill="white"/>
</clipPath>
</defs>
</svg>
