<svg width="20" height="18" viewBox="0 0 20 18" fill="none" xmlns="http://www.w3.org/2000/svg">
<path d="M20 2.79997C19.2483 3.12606 18.4534 3.34163 17.64 3.43997C18.4982 2.92729 19.1413 2.12075 19.45 1.16997C18.6436 1.65003 17.7608 1.98826 16.84 2.16997C16.2245 1.50254 15.405 1.05826 14.5098 0.906817C13.6147 0.755372 12.6945 0.905324 11.8938 1.33315C11.093 1.76099 10.4569 2.4425 10.0852 3.2708C9.71355 4.09911 9.62729 5.02736 9.84 5.90997C8.20943 5.82749 6.61444 5.40292 5.15865 4.66383C3.70287 3.92474 2.41885 2.88766 1.39 1.61997C1.02914 2.25013 0.839519 2.96379 0.84 3.68997C0.83872 4.36435 1.00422 5.02858 1.32176 5.62353C1.63929 6.21848 2.09902 6.72568 2.66 7.09997C2.00798 7.08222 1.36989 6.90726 0.8 6.58997V6.63997C0.804887 7.58486 1.13599 8.49906 1.73731 9.22793C2.33864 9.9568 3.17326 10.4556 4.1 10.64C3.74326 10.7485 3.37287 10.8058 3 10.81C2.74189 10.807 2.48442 10.7835 2.23 10.74C2.49391 11.5528 3.00462 12.2631 3.69107 12.7721C4.37753 13.2811 5.20558 13.5635 6.06 13.58C4.6172 14.7152 2.83588 15.3348 1 15.34C0.665735 15.3411 0.331736 15.321 0 15.28C1.87443 16.4902 4.05881 17.1327 6.29 17.13C7.82969 17.146 9.35714 16.855 10.7831 16.274C12.2091 15.6931 13.505 14.8338 14.5952 13.7465C15.6854 12.6591 16.548 11.3654 17.1326 9.94087C17.7172 8.51639 18.012 6.98969 18 5.44997C18 5.27996 18 5.09997 18 4.91997C18.7847 4.33478 19.4615 3.61739 20 2.79997Z" fill="black" fill-opacity="0.8"/>
</svg>
