<svg width="149" height="29" viewBox="0 0 149 29" fill="none" xmlns="http://www.w3.org/2000/svg">
<path d="M2 22V5.01545C2 3.01083 3.92829 1.57017 5.85065 2.13858L23.7234 7.42329C24.9981 7.80019 25.8728 8.97094 25.8728 10.3002V22C25.8728 23.6569 24.5296 25 22.8728 25H20.6091C18.9523 25 17.6091 23.6569 17.6091 22V19.5294C17.6091 17.8726 16.266 16.5294 14.6091 16.5294H13.2637C11.6068 16.5294 10.2637 17.8726 10.2637 19.5294V22C10.2637 23.6569 8.92051 25 7.26365 25H5C3.34315 25 2 23.6569 2 22Z" fill="#D3F7FF" stroke="#26459B" stroke-width="3"/>
<path d="M46.5406 9.264C47.7166 9.264 48.7619 9.52533 49.6766 10.048C50.5912 10.552 51.3006 11.308 51.8046 12.316C52.3272 13.3053 52.5886 14.5 52.5886 15.9V25H48.6686V16.432C48.6686 15.2 48.3606 14.2573 47.7446 13.604C47.1286 12.932 46.2886 12.596 45.2246 12.596C44.1419 12.596 43.2832 12.932 42.6486 13.604C42.0326 14.2573 41.7246 15.2 41.7246 16.432V25H37.8046V4.28H41.7246V11.42C42.2286 10.748 42.9006 10.2253 43.7406 9.852C44.5806 9.46 45.5139 9.264 46.5406 9.264ZM63.2043 25.252C61.7109 25.252 60.3669 24.9253 59.1723 24.272C57.9776 23.6 57.0349 22.6573 56.3443 21.444C55.6723 20.2307 55.3363 18.8307 55.3363 17.244C55.3363 15.6573 55.6816 14.2573 56.3723 13.044C57.0816 11.8307 58.0429 10.8973 59.2563 10.244C60.4696 9.572 61.8229 9.236 63.3163 9.236C64.8096 9.236 66.1629 9.572 67.3763 10.244C68.5896 10.8973 69.5416 11.8307 70.2323 13.044C70.9416 14.2573 71.2963 15.6573 71.2963 17.244C71.2963 18.8307 70.9323 20.2307 70.2043 21.444C69.4949 22.6573 68.5243 23.6 67.2923 24.272C66.0789 24.9253 64.7163 25.252 63.2043 25.252ZM63.2043 21.836C63.9136 21.836 64.5763 21.668 65.1923 21.332C65.8269 20.9773 66.3309 20.4547 66.7043 19.764C67.0776 19.0733 67.2643 18.2333 67.2643 17.244C67.2643 15.7693 66.8723 14.64 66.0883 13.856C65.3229 13.0533 64.3803 12.652 63.2603 12.652C62.1403 12.652 61.1976 13.0533 60.4323 13.856C59.6856 14.64 59.3123 15.7693 59.3123 17.244C59.3123 18.7187 59.6763 19.8573 60.4043 20.66C61.1509 21.444 62.0843 21.836 63.2043 21.836ZM93.4357 9.264C95.3397 9.264 96.8704 9.852 98.0277 11.028C99.2037 12.1853 99.7917 13.8093 99.7917 15.9V25H95.8717V16.432C95.8717 15.2187 95.5637 14.2947 94.9477 13.66C94.3317 13.0067 93.4917 12.68 92.4277 12.68C91.3637 12.68 90.5144 13.0067 89.8797 13.66C89.2637 14.2947 88.9557 15.2187 88.9557 16.432V25H85.0357V16.432C85.0357 15.2187 84.7277 14.2947 84.1117 13.66C83.4957 13.0067 82.6557 12.68 81.5917 12.68C80.5091 12.68 79.6504 13.0067 79.0157 13.66C78.3997 14.2947 78.0917 15.2187 78.0917 16.432V25H74.1717V9.488H78.0917V11.364C78.5957 10.7107 79.2397 10.1973 80.0237 9.824C80.8264 9.45067 81.7037 9.264 82.6557 9.264C83.8691 9.264 84.9517 9.52533 85.9037 10.048C86.8557 10.552 87.5931 11.28 88.1157 12.232C88.6197 11.336 89.3477 10.6173 90.2997 10.076C91.2704 9.53467 92.3157 9.264 93.4357 9.264ZM117.932 16.908C117.932 17.468 117.894 17.972 117.82 18.42H106.48C106.573 19.54 106.965 20.4173 107.656 21.052C108.346 21.6867 109.196 22.004 110.204 22.004C111.66 22.004 112.696 21.3787 113.312 20.128H117.54C117.092 21.6213 116.233 22.8533 114.964 23.824C113.694 24.776 112.136 25.252 110.288 25.252C108.794 25.252 107.45 24.9253 106.256 24.272C105.08 23.6 104.156 22.6573 103.484 21.444C102.83 20.2307 102.504 18.8307 102.504 17.244C102.504 15.6387 102.83 14.2293 103.484 13.016C104.137 11.8027 105.052 10.8693 106.228 10.216C107.404 9.56267 108.757 9.236 110.288 9.236C111.762 9.236 113.078 9.55333 114.236 10.188C115.412 10.8227 116.317 11.728 116.952 12.904C117.605 14.0613 117.932 15.396 117.932 16.908ZM113.872 15.788C113.853 14.78 113.489 13.9773 112.78 13.38C112.07 12.764 111.202 12.456 110.176 12.456C109.205 12.456 108.384 12.7547 107.712 13.352C107.058 13.9307 106.657 14.7427 106.508 15.788H113.872ZM124.713 11.896C125.217 11.0747 125.87 10.4307 126.673 9.964C127.494 9.49733 128.428 9.264 129.473 9.264V13.38H128.437C127.205 13.38 126.272 13.6693 125.637 14.248C125.021 14.8267 124.713 15.8347 124.713 17.272V25H120.793V9.488H124.713V11.896ZM139.001 25.252C137.508 25.252 136.164 24.9253 134.969 24.272C133.774 23.6 132.832 22.6573 132.141 21.444C131.469 20.2307 131.133 18.8307 131.133 17.244C131.133 15.6573 131.478 14.2573 132.169 13.044C132.878 11.8307 133.84 10.8973 135.053 10.244C136.266 9.572 137.62 9.236 139.113 9.236C140.606 9.236 141.96 9.572 143.173 10.244C144.386 10.8973 145.338 11.8307 146.029 13.044C146.738 14.2573 147.093 15.6573 147.093 17.244C147.093 18.8307 146.729 20.2307 146.001 21.444C145.292 22.6573 144.321 23.6 143.089 24.272C141.876 24.9253 140.513 25.252 139.001 25.252ZM139.001 21.836C139.71 21.836 140.373 21.668 140.989 21.332C141.624 20.9773 142.128 20.4547 142.501 19.764C142.874 19.0733 143.061 18.2333 143.061 17.244C143.061 15.7693 142.669 14.64 141.885 13.856C141.12 13.0533 140.177 12.652 139.057 12.652C137.937 12.652 136.994 13.0533 136.229 13.856C135.482 14.64 135.109 15.7693 135.109 17.244C135.109 18.7187 135.473 19.8573 136.201 20.66C136.948 21.444 137.881 21.836 139.001 21.836Z" fill="#26459B"/>
</svg>
