<svg width="158" height="29" viewBox="0 0 158 29" fill="none" xmlns="http://www.w3.org/2000/svg">
<path fill-rule="evenodd" clip-rule="evenodd" d="M24.0904 2.13429C20.4992 7.32397 11.4448 20.3511 11.4448 20.3511L0.44549 4.8218C0.44549 4.8218 -0.556863 3.38537 0.44549 1.75698C0.44549 1.75698 0.777395 1.03545 1.64035 0.51251C2.05855 0.26097 2.60951 0.0557654 3.30651 0.00280948C3.30651 0.00280948 4.21593 -0.0700049 5.64312 0.52575C5.64312 0.52575 12.5136 3.30594 24.0904 2.13429Z" fill="#FFDD00"/>
<path fill-rule="evenodd" clip-rule="evenodd" d="M34.5984 0.029654C34.5984 0.029654 35.0764 0.0362735 35.6605 0.221619C36.3111 0.426824 37.0412 0.843852 37.4594 1.75072C37.4594 1.75072 38.2693 3.23349 37.2404 4.81555L21.8267 27.3549C21.8267 27.3549 20.904 28.8377 19.1582 28.9966C19.1582 28.9966 17.4655 29.1819 16.3237 27.1365L11.3518 20.2191C11.3518 20.2191 20.4261 7.33096 24.0837 2.13465C24.0837 2.13465 29.5867 1.38003 33.2708 0.267956C33.2708 0.267956 34.1537 -0.00344343 34.5984 0.029654Z" fill="#73CBF2"/>
<path fill-rule="evenodd" clip-rule="evenodd" d="M19.0456 28.9964H7.46214C7.05058 28.9766 6.72531 28.7647 6.72531 28.7647C5.9752 28.0234 6.4797 27.229 6.4797 27.229C6.4797 27.229 9.76556 22.4828 11.3454 20.2256L17.2334 28.1425C17.2401 28.1425 17.791 28.9699 19.0456 28.9964Z" fill="#F27264"/>
<path d="M54.0215 19.7822L48.2464 7.29785H45.4053L52.6607 22.7676L52.2757 23.6215C51.4526 25.4617 50.3639 26.3488 48.95 26.3488C48.2265 26.3488 47.3768 26.1766 46.7794 25.9052L45.8368 25.475V28.2022L46.2881 28.3545C47.1909 28.6523 48.2198 28.8377 49.0297 28.8377C52.8665 28.8377 54.3667 25.3492 55.004 23.8598L62.0403 7.30447H59.2523L54.0215 19.7822Z" fill="#231F20"/>
<path d="M69.9928 6.99951C65.4855 6.99951 62.0868 10.4019 62.0868 14.9164C62.0868 19.4111 65.4589 22.8002 69.933 22.8002C72.9401 22.8002 75.6816 21.238 76.9296 18.8153L77.2416 18.2129L75.0112 17.134L74.7124 17.6966C73.8229 19.3713 72.0107 20.404 69.9928 20.404C67.3774 20.404 65.2864 18.6631 64.7885 16.1675H77.4407L77.5336 15.6181C77.5735 15.3798 77.6 14.976 77.6 14.645C77.6067 10.2166 74.4071 6.99951 69.9928 6.99951ZM64.742 13.811C65.1735 11.2492 67.311 9.39577 69.9662 9.39577C72.5816 9.39577 74.6062 11.2161 74.9912 13.811H64.742Z" fill="#231F20"/>
<path d="M82.7314 0.347168H80.1824V22.5026H82.7314V0.347168Z" fill="#231F20"/>
<path d="M89.0839 0.347168H86.5349V22.5026H89.0839V0.347168Z" fill="#231F20"/>
<path d="M99.5656 6.97314C95.0584 6.97314 91.6597 10.3888 91.6597 14.9165C91.6597 19.4112 95.0584 22.8004 99.5656 22.8004C104.093 22.8004 107.505 19.4112 107.505 14.9165C107.505 10.3888 104.093 6.97314 99.5656 6.97314ZM104.923 14.9165C104.923 18.0145 102.632 20.3445 99.5922 20.3445C96.5387 20.3445 94.2353 18.0078 94.2353 14.9165C94.2353 11.8054 96.5387 9.45545 99.5922 9.45545C102.632 9.45545 104.923 11.8054 104.923 14.9165Z" fill="#231F20"/>
<path d="M128.733 7.29785L124.545 18.273L120.721 7.29785H118.617L114.793 18.2796L110.571 7.29785H107.77L113.811 22.5028H115.869L119.679 11.5409L123.443 22.5028H125.5L131.541 7.29785H128.733Z" fill="#231F20"/>
<path d="M132.597 19.4248C131.621 19.4248 130.831 20.1993 130.831 21.1591C130.831 22.1454 131.588 22.8934 132.597 22.8934C133.552 22.8934 134.303 22.1322 134.303 21.1591C134.303 20.2059 133.533 19.4248 132.597 19.4248Z" fill="#231F20"/>
<path d="M148.588 9.19718C147.22 7.79385 145.342 6.99951 143.264 6.99951C138.91 6.99951 135.624 10.4019 135.624 14.9164C135.624 19.4111 138.896 22.8002 143.231 22.8002C145.315 22.8002 147.207 21.9927 148.588 20.5695V22.5024H151.137V7.29739H148.588V9.19718ZM148.561 14.8238C148.561 17.968 146.324 20.3444 143.35 20.3444C140.436 20.3444 138.232 18.0077 138.232 14.9164C138.232 11.8053 140.443 9.45534 143.377 9.45534C146.338 9.45534 148.561 11.7655 148.561 14.8238Z" fill="#231F20"/>
<path d="M157.496 7.29785H154.914V22.5028H157.496V7.29785Z" fill="#231F20"/>
<path d="M158.001 4.18657C158.001 3.20026 157.197 2.42578 156.175 2.42578C155.166 2.42578 154.376 3.20026 154.376 4.18657C154.376 5.20597 155.166 6.00693 156.175 6.00693C157.211 6.00693 158.001 5.22583 158.001 4.18657Z" fill="#231F20"/>
</svg>
