<svg width="206" height="28" viewBox="0 0 206 28" fill="none" xmlns="http://www.w3.org/2000/svg">
<path d="M128.522 18.892L127.55 19V6.83203H129.854V20.332H126.83L117.362 8.16403L118.316 8.05603V20.332H116.012V6.83203H119.108L128.522 18.892ZM144.177 12.592V14.572H134.745V12.592H144.177ZM136.311 13.582L135.357 19.612L134.223 18.28H144.699V20.332H132.927L134.007 13.582L132.927 6.83203H144.609V8.88403H134.223L135.357 7.55203L136.311 13.582ZM154.271 13.978V12.61L160.571 20.332H157.637L152.777 14.212H153.821L148.943 20.332H146.081L152.399 12.646V13.942L146.531 6.83203H149.483L153.929 12.394H152.849L157.259 6.83203H160.121L154.271 13.978ZM164.696 14.536C164.696 15.34 164.858 16.036 165.182 16.624C165.506 17.212 165.968 17.668 166.568 17.992C167.18 18.304 167.906 18.46 168.746 18.46C169.598 18.46 170.324 18.304 170.924 17.992C171.524 17.668 171.986 17.212 172.31 16.624C172.634 16.036 172.796 15.34 172.796 14.536V6.83203H175.172V14.626C175.172 15.814 174.902 16.858 174.362 17.758C173.822 18.646 173.072 19.342 172.112 19.846C171.152 20.338 170.03 20.584 168.746 20.584C167.474 20.584 166.352 20.338 165.38 19.846C164.42 19.342 163.67 18.646 163.13 17.758C162.59 16.858 162.32 15.814 162.32 14.626V6.83203H164.696V14.536ZM177.719 15.94H180.131C180.203 16.48 180.425 16.954 180.797 17.362C181.181 17.77 181.685 18.088 182.309 18.316C182.933 18.532 183.653 18.64 184.469 18.64C185.681 18.64 186.641 18.454 187.349 18.082C188.057 17.698 188.411 17.182 188.411 16.534C188.411 16.006 188.207 15.61 187.799 15.346C187.391 15.082 186.653 14.884 185.585 14.752L182.669 14.374C181.037 14.158 179.849 13.756 179.105 13.168C178.373 12.568 178.007 11.722 178.007 10.63C178.007 9.80203 178.253 9.08803 178.745 8.48803C179.249 7.87603 179.957 7.40803 180.869 7.08403C181.781 6.74803 182.849 6.58003 184.073 6.58003C185.285 6.58003 186.359 6.76003 187.295 7.12003C188.231 7.48003 188.975 7.98403 189.527 8.63203C190.091 9.26803 190.397 10.018 190.445 10.882H188.033C187.973 10.402 187.769 9.98803 187.421 9.64003C187.085 9.29203 186.629 9.02203 186.053 8.83003C185.477 8.62603 184.799 8.52403 184.019 8.52403C182.915 8.52403 182.033 8.70403 181.373 9.06403C180.713 9.42403 180.383 9.91603 180.383 10.54C180.383 11.02 180.575 11.392 180.959 11.656C181.355 11.908 182.039 12.1 183.011 12.232L185.963 12.646C187.175 12.814 188.129 13.042 188.825 13.33C189.533 13.606 190.037 13.984 190.337 14.464C190.637 14.932 190.787 15.538 190.787 16.282C190.787 17.146 190.523 17.902 189.995 18.55C189.467 19.198 188.723 19.702 187.763 20.062C186.815 20.41 185.705 20.584 184.433 20.584C183.137 20.584 181.991 20.392 180.995 20.008C180.011 19.612 179.231 19.066 178.655 18.37C178.079 17.674 177.767 16.864 177.719 15.94Z" fill="white"/>
<g clip-path="url(#clip0_1014_4375)">
<mask id="mask0_1014_4375" style="mask-type:luminance" maskUnits="userSpaceOnUse" x="0" y="1" width="92" height="25">
<path d="M92 1.86719H0V25.8672H92V1.86719Z" fill="white"/>
</mask>
<g mask="url(#mask0_1014_4375)">
<path d="M91.9202 6.76562H90.0504C90.0053 6.76562 89.9688 6.80236 89.9688 6.84766V8.75996C89.9688 8.80527 90.0053 8.84201 90.0504 8.84201H91.9202C91.9653 8.84201 92.0019 8.80527 92.0019 8.75996V6.84766C92.0019 6.80236 91.9653 6.76562 91.9202 6.76562Z" fill="white"/>
<path d="M40.2505 9.92969H38.5075C38.4652 9.92969 38.4342 9.95515 38.4089 10.0117L36.2772 16.7274C36.235 16.818 36.1449 16.818 36.1026 16.7274L33.971 10.0117C33.9456 9.95232 33.9118 9.92969 33.8724 9.92969H32.0955C32.028 9.92969 32.0054 9.95515 32.028 10.0117L34.8045 18.272C34.9368 18.7048 35.0861 19.1093 35.0861 19.4516C35.0861 19.9495 34.8383 20.2805 34.1118 20.2805H32.1293C32.0702 20.2805 32.0477 20.3059 32.0477 20.3625V21.8081C32.0477 21.8675 32.073 21.8986 32.1293 21.8986H34.4666C36.0435 21.8986 36.5814 21.2083 37.1699 19.4658L40.335 10.0117C40.3435 9.95232 40.3181 9.92969 40.2534 9.92969H40.2505Z" fill="white"/>
<path d="M44.2514 9.75391C41.6974 9.75391 40.1289 11.5474 40.1289 14.2292C40.1289 16.9109 41.7311 18.6959 44.2514 18.6959C45.2088 18.6959 46.0367 18.464 46.7379 18.0057C47.4391 17.5502 47.8868 16.9024 48.0924 16.0623V16.0453C48.0924 16.0029 48.067 15.9802 48.0107 15.9802H46.2676C46.2085 15.9802 46.1775 16.0057 46.1522 16.0623C45.8312 16.6931 45.2201 17.0495 44.2514 17.0495C42.9138 17.0495 42.0381 16.0792 42.0381 14.9901C42.0381 14.9307 42.0634 14.9081 42.1197 14.9081H48.2332C48.267 14.9081 48.2923 14.8826 48.3148 14.8261C48.3571 14.6676 48.3796 14.4866 48.3796 14.2292C48.3796 11.5813 46.8027 9.75391 44.2486 9.75391H44.2514ZM46.3324 13.4314H42.1197C42.0606 13.4229 42.0381 13.3975 42.0381 13.3409C42.0381 12.628 42.7393 11.4229 44.2514 11.4229C45.7636 11.4229 46.4169 12.5262 46.4169 13.3409C46.4169 13.4003 46.3915 13.4314 46.3352 13.4314H46.3324Z" fill="white"/>
<path d="M51.2027 6.55859H49.5667C49.5075 6.55859 49.4766 6.58405 49.4766 6.64062V18.4426C49.485 18.502 49.5104 18.5247 49.5667 18.5247H51.2027C51.2619 18.5247 51.2844 18.4992 51.2844 18.4426V6.64345C51.2844 6.58405 51.2591 6.56142 51.2027 6.56142V6.55859Z" fill="white"/>
<path d="M54.7184 6.55859H53.0823C53.0232 6.55859 52.9922 6.58405 52.9922 6.64062V18.4426C53.0007 18.502 53.026 18.5247 53.0823 18.5247H54.7184C54.7747 18.5247 54.8001 18.4992 54.8001 18.4426V6.64345C54.8001 6.58405 54.7747 6.56142 54.7184 6.56142V6.55859Z" fill="white"/>
<path d="M60.1043 9.75391C57.4601 9.75391 55.9141 11.5474 55.9141 14.2292C55.9141 16.9109 57.4516 18.6959 60.1043 18.6959C62.7569 18.6959 64.3169 16.8855 64.3169 14.2292C64.3169 11.5729 62.7456 9.75391 60.1043 9.75391ZM61.8811 16.2773C61.4756 16.7921 60.8815 17.0495 60.1043 17.0495C59.327 17.0495 58.7667 16.7921 58.3612 16.2773C57.9472 15.7624 57.7417 15.0807 57.7417 14.2263C57.7417 13.372 57.9472 12.6903 58.3612 12.1839C58.7667 11.6775 59.3524 11.4201 60.1043 11.4201C60.8561 11.4201 61.4841 11.6775 61.8896 12.1839C62.2951 12.6903 62.4922 13.372 62.4922 14.2263C62.4922 15.0807 62.2866 15.7624 61.8811 16.2773Z" fill="white"/>
<path d="M77.0154 9.92969H75.3709C75.3061 9.92969 75.2639 9.96364 75.2554 10.0287L73.8503 16.7274C73.8081 16.8349 73.7095 16.7925 73.6842 16.7274L72.0565 10.0287C72.0312 9.96364 71.9918 9.92969 71.9242 9.92969H69.601C69.5362 9.92969 69.494 9.96364 69.4687 10.0287L67.841 16.7274C67.7988 16.818 67.7002 16.818 67.6749 16.7274L66.2697 10.0287C66.2444 9.96364 66.2022 9.92969 66.1627 9.92969H64.4929C64.4112 9.92969 64.3774 9.96364 64.4028 10.0287L66.4021 18.4446C66.4274 18.504 66.4612 18.5266 66.5007 18.5266H69.004C69.0547 18.5266 69.0857 18.5011 69.111 18.4446L70.6654 11.7628C70.6908 11.6723 70.8147 11.6723 70.84 11.7628L72.4113 18.4446C72.4367 18.504 72.462 18.5266 72.493 18.5266H75.0133C75.064 18.5266 75.0949 18.5011 75.1203 18.4446L77.1112 10.0287C77.1196 9.96364 77.0858 9.92969 77.0126 9.92969H77.0154Z" fill="white"/>
<path d="M79.4296 16.0312H77.1402C77.0951 16.0312 77.0586 16.068 77.0586 16.1133V18.4471C77.0586 18.4924 77.0951 18.529 77.1402 18.529H79.4296C79.4747 18.529 79.5113 18.4924 79.5113 18.4471V16.1133C79.5113 16.068 79.4747 16.0312 79.4296 16.0312Z" fill="white"/>
<path d="M89.2571 16.9675H88.8854C88.5222 16.9675 88.2997 16.727 88.2997 16.4017V12.9166C88.2997 11.8529 87.9618 11.058 87.2831 10.5347C86.6045 10.0113 85.6809 9.75391 84.5066 9.75391C82.5411 9.75391 80.7811 10.7497 80.7811 12.7497C80.7811 12.8091 80.8065 12.8317 80.8628 12.8317H82.5073C82.5664 12.8317 82.589 12.8063 82.589 12.7497C82.5974 12.3848 82.7551 12.0679 83.0423 11.8105C83.3324 11.5531 83.8195 11.4201 84.5038 11.4201C86.3285 11.4201 86.4778 12.3084 86.4778 12.8317C86.4778 13.0297 86.3032 13.3041 85.9399 13.3041H84.1969C81.7188 13.3041 80.4883 14.4838 80.4883 15.9774C80.4883 16.7666 80.7699 17.4229 81.3218 17.9293C81.8737 18.4357 82.7185 18.6931 83.8589 18.6931C84.577 18.6931 85.1796 18.5856 85.6612 18.3706C86.1399 18.1641 86.4862 17.9378 86.7031 17.7143C86.7622 17.6549 86.8101 17.6634 86.8523 17.7313C87.1508 18.2546 87.6295 18.529 88.5785 18.529H89.2571C89.3163 18.529 89.3388 18.5036 89.3388 18.447V17.0524C89.3388 16.993 89.3134 16.9703 89.2571 16.9703V16.9675ZM86.4806 14.993C86.4806 15.9463 85.7625 17.0524 83.8618 17.0524C82.6734 17.0524 82.3074 16.4555 82.3074 15.9802C82.3074 15.4569 82.5805 14.7836 84.2504 14.7836H86.3989C86.4581 14.7921 86.4806 14.8176 86.4806 14.8741V14.9901V14.993Z" fill="white"/>
<path d="M91.7535 9.92969H90.1174C90.0583 9.92969 90.0273 9.95515 90.0273 10.0117V18.4446C90.0357 18.504 90.0611 18.5266 90.1174 18.5266H91.7535C91.8126 18.5266 91.8351 18.5011 91.8351 18.4446V10.0117C91.8351 9.95232 91.8098 9.92969 91.7535 9.92969Z" fill="white"/>
<path d="M26.0391 1.86719H17.9939C17.6757 1.86719 17.3857 2.04823 17.2421 2.33395L11.8918 13.0355V2.71301C11.8918 2.24625 11.5144 1.86719 11.0498 1.86719H0.84197C0.377338 1.86719 0 2.24625 0 2.71301V10.0058C0 10.4726 0.377338 10.8516 0.84197 10.8516H9.23914C9.36586 10.8545 9.48413 10.911 9.56298 11.01L11.5989 13.4853C11.6243 13.5164 11.6299 13.5617 11.613 13.6013L6.09091 24.6451C5.80931 25.2081 6.21762 25.87 6.84277 25.87H14.8879C15.2061 25.87 15.4962 25.689 15.6398 25.4033L26.791 3.09208C27.0726 2.52914 26.6643 1.86719 26.0391 1.86719Z" fill="white"/>
</g>
</g>
<path d="M104 0.500001L104 27.5" stroke="white" stroke-opacity="0.3" stroke-miterlimit="3.8637" stroke-linecap="round"/>
<defs>
<clipPath id="clip0_1014_4375">
<rect width="92" height="24" fill="white" transform="translate(0 1.86719)"/>
</clipPath>
</defs>
</svg>
